<svg width="943" height="545" viewBox="0 0 943 545" fill="none" xmlns="http://www.w3.org/2000/svg">
<g clip-path="url(#clip0_305_4895)">
<rect width="919" height="485" transform="translate(0 60)" fill="#005A65" fill-opacity="0.7"/>
<g filter="url(#filter0_i_305_4895)">
<rect x="15" y="45" width="919" height="485" fill="#D5F2FF" fill-opacity="0.3"/>
<rect x="16.5" y="46.5" width="916" height="482" stroke="#FEE58E" stroke-width="3"/>
</g>
<path d="M446.297 28.1664L437.711 18.1939L452.265 21.9592C454.849 22.6278 457.274 23.8079 459.397 25.4295C462.752 27.9934 465.21 31.5532 466.418 35.5967L466.688 36.5011L465.39 36.5446C460.919 36.6947 456.492 35.5958 452.605 33.3714C450.222 32.0076 448.088 30.2473 446.297 28.1664Z" fill="#FFF2C5"/>
<path d="M437.711 18.1939L446.297 28.1664C448.088 30.2473 450.222 32.0076 452.605 33.3714V33.3714C456.492 35.5958 460.919 36.6947 465.39 36.5446L466.688 36.5011M437.711 18.1939L452.265 21.9592C454.849 22.6278 457.274 23.8079 459.397 25.4295V25.4295C462.752 27.9934 465.21 31.5532 466.418 35.5967L466.688 36.5011M437.711 18.1939L466.688 36.5011" stroke="url(#paint0_angular_305_4895)" stroke-width="3"/>
<path d="M446.297 62.8336L437.711 72.8061L452.265 69.0408C454.849 68.3722 457.274 67.1921 459.397 65.5705C462.752 63.0066 465.21 59.4468 466.418 55.4033L466.688 54.499L465.39 54.4554C460.919 54.3053 456.492 55.4042 452.605 57.6286C450.222 58.9924 448.088 60.7527 446.297 62.8336Z" fill="#FFF2C5"/>
<path d="M437.711 72.8061L446.297 62.8336C448.088 60.7527 450.222 58.9924 452.605 57.6286V57.6286C456.492 55.4042 460.919 54.3053 465.39 54.4554L466.688 54.499M437.711 72.8061L452.265 69.0408C454.849 68.3722 457.274 67.1921 459.397 65.5705V65.5705C462.752 63.0066 465.21 59.4468 466.418 55.4033L466.688 54.499M437.711 72.8061L466.688 54.499" stroke="url(#paint1_angular_305_4895)" stroke-width="3"/>
<path d="M471.097 12.5344L475.096 -1.74081e-05L479.412 14.6806C480.161 17.2254 480.403 19.8992 480.126 22.5472C479.679 26.817 477.901 30.8393 475.051 34.0264L474.507 34.6343L473.762 33.4609C471.364 29.6862 470.034 25.3089 469.918 20.8044C469.846 18.003 470.245 15.2063 471.097 12.5344Z" fill="#FFF2C5"/>
<path d="M475.096 -1.77855e-05L471.097 12.5344C470.245 15.2063 469.846 18.003 469.918 20.8044V20.8044C470.034 25.3089 471.364 29.6862 473.762 33.4609L474.507 34.6343M475.096 -1.77855e-05L479.412 14.6806C480.161 17.2254 480.403 19.8992 480.126 22.5472V22.5472C479.679 26.817 477.901 30.8393 475.051 34.0264L474.507 34.6343M475.096 -1.77855e-05L474.507 34.6343" stroke="url(#paint2_angular_305_4895)" stroke-width="3"/>
<path d="M471.097 78.4656L475.096 91L479.412 76.3194C480.161 73.7746 480.403 71.1008 480.126 68.4528C479.679 64.183 477.901 60.1607 475.051 56.9736L474.507 56.3657L473.762 57.5391C471.364 61.3138 470.034 65.6911 469.918 70.1955C469.846 72.9969 470.245 75.7937 471.097 78.4656Z" fill="#FFF2C5"/>
<path d="M475.096 91L471.097 78.4656C470.245 75.7937 469.846 72.9969 469.918 70.1955V70.1955C470.034 65.6911 471.364 61.3138 473.762 57.5391L474.507 56.3657M475.096 91L479.412 76.3194C480.161 73.7746 480.403 71.1008 480.126 68.4528V68.4528C479.679 64.183 477.901 60.1607 475.051 56.9736L474.507 56.3657M475.096 91L474.507 56.3657" stroke="url(#paint3_angular_305_4895)" stroke-width="3"/>
<path d="M504.608 28.1664L513.194 18.1939L498.64 21.9592C496.056 22.6278 493.631 23.8079 491.509 25.4295C488.153 27.9934 485.695 31.5532 484.488 35.5967L484.218 36.5011L485.516 36.5446C489.986 36.6947 494.414 35.5958 498.3 33.3714C500.683 32.0076 502.817 30.2473 504.608 28.1664Z" fill="#FFF2C5"/>
<path d="M513.194 18.1939L504.608 28.1664C502.817 30.2473 500.683 32.0076 498.3 33.3714V33.3714C494.414 35.5958 489.986 36.6947 485.516 36.5446L484.218 36.5011M513.194 18.1939L498.64 21.9592C496.056 22.6278 493.631 23.8079 491.509 25.4295V25.4295C488.153 27.9934 485.695 31.5532 484.488 35.5967L484.218 36.5011M513.194 18.1939L484.218 36.5011" stroke="url(#paint4_angular_305_4895)" stroke-width="3"/>
<path d="M504.608 62.8336L513.194 72.8061L498.64 69.0408C496.056 68.3722 493.631 67.1921 491.509 65.5705C488.153 63.0066 485.695 59.4468 484.488 55.4033L484.218 54.499L485.516 54.4554C489.986 54.3053 494.414 55.4042 498.3 57.6286C500.683 58.9924 502.817 60.7527 504.608 62.8336Z" fill="#FFF2C5"/>
<path d="M513.194 72.8061L504.608 62.8336C502.817 60.7527 500.683 58.9924 498.3 57.6286V57.6286C494.414 55.4042 489.986 54.3053 485.516 54.4554L484.218 54.499M513.194 72.8061L498.64 69.0408C496.056 68.3722 493.631 67.1921 491.509 65.5705V65.5705C488.153 63.0066 485.695 59.4468 484.488 55.4033L484.218 54.499M513.194 72.8061L484.218 54.499" stroke="url(#paint5_angular_305_4895)" stroke-width="3"/>
<path d="M742.407 41.8469L741.802 43.2192V43.2192L742.407 41.8469ZM749.664 42.6755L749.887 44.1588L749.664 42.6755ZM748.608 27.3987L748.395 28.8833L748.608 27.3987ZM747.847 27.3069L747.702 28.7998V28.7998L747.847 27.3069ZM741.415 37.2167L742.285 35.9949V35.9949L741.415 37.2167ZM745.576 37.8891L745.189 36.4399L745.576 37.8891ZM748.608 33.2032L749.571 32.0526L748.608 33.2032ZM743.82 32.0526C743.184 32.5841 743.1 33.5301 743.631 34.1655C744.163 34.801 745.109 34.8852 745.744 34.3537L743.82 32.0526ZM693.154 45.4509L693.155 43.9509H693.154V45.4509ZM693.211 45.4509L693.212 43.9509H693.212L693.211 45.4509ZM717.999 45.4626L717.999 46.9626L717.999 45.4626ZM737.796 39.9739L737.82 38.4741L737.796 39.9739ZM741.802 43.2192C744.46 44.3923 747.24 44.557 749.887 44.1588L749.441 41.1922C747.218 41.5265 745.037 41.3676 743.013 40.4745L741.802 43.2192ZM748.822 25.914C748.542 25.8736 748.265 25.8404 747.992 25.8139L747.702 28.7998C747.93 28.822 748.161 28.8497 748.395 28.8833L748.822 25.914ZM740.545 38.4385C742.422 39.7754 744.41 39.7531 745.963 39.3384L745.189 36.4399C744.227 36.6968 743.231 36.6688 742.285 35.9949L740.545 38.4385ZM749.571 32.0526C747.851 30.6138 745.54 30.6138 743.82 32.0526L745.744 34.3537C746.351 33.8467 747.04 33.8467 747.646 34.3537L749.571 32.0526ZM630.165 46.9508L693.154 46.9509V43.9509L630.165 43.9508L630.165 46.9508ZM693.21 46.9509C693.762 46.9513 707.649 46.9623 717.999 46.9626L717.999 43.9626C707.65 43.9623 693.765 43.9513 693.212 43.9509L693.21 46.9509ZM737.771 41.4737C737.652 41.4718 737.633 41.446 737.82 41.5075C737.981 41.5607 738.217 41.6515 738.566 41.7981C739.268 42.0921 740.277 42.5464 741.802 43.2192L743.013 40.4745C741.525 39.8182 740.462 39.3398 739.727 39.0315C739.358 38.877 739.035 38.7492 738.759 38.6582C738.508 38.5755 738.172 38.4798 737.82 38.4741L737.771 41.4737ZM717.999 46.9626C722.02 46.9628 725.429 45.4119 728.506 44.0451C731.665 42.6421 734.497 41.421 737.771 41.4737L737.82 38.4741C733.788 38.4092 730.375 39.9325 727.289 41.3034C724.121 42.7104 721.284 43.9627 717.999 43.9626L717.999 46.9626ZM745.963 39.3384C747.393 38.9565 748.871 37.9614 749.771 36.7884C750.224 36.198 750.629 35.433 750.684 34.5664C750.744 33.6139 750.365 32.717 749.571 32.0526L747.646 34.3537C747.709 34.4062 747.709 34.4259 747.699 34.4026C747.688 34.3785 747.691 34.3631 747.69 34.3776C747.686 34.435 747.638 34.639 747.39 34.9626C746.888 35.6176 745.971 36.231 745.189 36.4399L745.963 39.3384ZM693.154 46.9509L693.211 46.9509L693.212 43.9509L693.155 43.9509L693.154 46.9509ZM747.992 25.8139C744.489 25.4738 741.222 27.4608 739.496 29.9475C738.621 31.2084 738.054 32.72 738.142 34.2675C738.232 35.8722 739.021 37.3531 740.545 38.4385L742.285 35.9949C741.467 35.4127 741.174 34.7515 741.137 34.0987C741.097 33.3886 741.358 32.5269 741.961 31.6578C743.191 29.8846 745.482 28.5843 747.702 28.7998L747.992 25.8139ZM749.887 44.1588C752.479 43.7688 754.445 42.5253 755.706 40.7854C756.951 39.0673 757.444 36.9566 757.29 34.9037C756.981 30.8014 754.046 26.6665 748.822 25.914L748.395 28.8833C752.052 29.4103 754.081 32.2463 754.298 35.1288C754.407 36.5683 754.053 37.9535 753.277 39.025C752.516 40.0747 751.285 40.9147 749.441 41.1922L749.887 44.1588Z" fill="url(#paint6_angular_305_4895)"/>
<path d="M397.909 41.8469L397.303 43.2192V43.2192L397.909 41.8469ZM405.165 42.6755L405.388 44.1588L405.165 42.6755ZM404.11 27.3987L403.896 28.8833L404.11 27.3987ZM403.348 27.3069L403.203 28.7998V28.7998L403.348 27.3069ZM396.916 37.2167L397.786 35.9949V35.9949L396.916 37.2167ZM401.078 37.8891L400.691 36.4399L401.078 37.8891ZM404.11 33.2032L405.072 32.0526L404.11 33.2032ZM399.321 32.0526C398.686 32.5841 398.601 33.5301 399.133 34.1655C399.664 34.801 400.61 34.8852 401.246 34.3537L399.321 32.0526ZM348.656 45.4509L348.656 43.9509H348.656V45.4509ZM348.713 45.4509L348.714 43.9509H348.713L348.713 45.4509ZM373.5 45.4626L373.5 46.9626L373.5 45.4626ZM393.297 39.9739L393.321 38.4741L393.297 39.9739ZM397.303 43.2192C399.962 44.3923 402.741 44.557 405.388 44.1588L404.942 41.1922C402.719 41.5265 400.538 41.3676 398.514 40.4745L397.303 43.2192ZM404.324 25.914C404.043 25.8736 403.766 25.8404 403.493 25.8139L403.203 28.7998C403.431 28.822 403.662 28.8497 403.896 28.8833L404.324 25.914ZM396.046 38.4385C397.923 39.7754 399.912 39.7531 401.465 39.3384L400.691 36.4399C399.729 36.6968 398.733 36.6688 397.786 35.9949L396.046 38.4385ZM405.072 32.0526C403.352 30.6138 401.041 30.6138 399.321 32.0526L401.246 34.3537C401.852 33.8467 402.541 33.8467 403.147 34.3537L405.072 32.0526ZM285.667 46.9508L348.656 46.9509V43.9509L285.667 43.9508L285.667 46.9508ZM348.711 46.9509C349.264 46.9513 363.15 46.9623 373.5 46.9626L373.5 43.9626C363.152 43.9623 349.266 43.9513 348.714 43.9509L348.711 46.9509ZM393.273 41.4737C393.154 41.4718 393.135 41.446 393.321 41.5075C393.483 41.5607 393.718 41.6515 394.068 41.7981C394.769 42.0921 395.778 42.5464 397.303 43.2192L398.514 40.4745C397.027 39.8182 395.963 39.3398 395.228 39.0315C394.86 38.877 394.537 38.7492 394.26 38.6582C394.009 38.5755 393.674 38.4798 393.321 38.4741L393.273 41.4737ZM373.5 46.9626C377.522 46.9628 380.93 45.4119 384.008 44.0451C387.167 42.6421 389.998 41.421 393.273 41.4737L393.321 38.4741C389.29 38.4092 385.877 39.9325 382.79 41.3034C379.622 42.7104 376.785 43.9627 373.5 43.9626L373.5 46.9626ZM401.465 39.3384C402.894 38.9565 404.372 37.9614 405.272 36.7884C405.725 36.198 406.13 35.433 406.185 34.5664C406.245 33.6139 405.867 32.717 405.072 32.0526L403.147 34.3537C403.21 34.4062 403.21 34.4259 403.2 34.4026C403.189 34.3785 403.192 34.3631 403.191 34.3776C403.187 34.435 403.14 34.639 402.892 34.9626C402.389 35.6176 401.473 36.231 400.691 36.4399L401.465 39.3384ZM348.655 46.9509L348.712 46.9509L348.713 43.9509L348.656 43.9509L348.655 46.9509ZM403.493 25.8139C399.991 25.4738 396.723 27.4608 394.998 29.9475C394.123 31.2084 393.556 32.72 393.643 34.2675C393.734 35.8722 394.522 37.3531 396.046 38.4385L397.786 35.9949C396.969 35.4127 396.675 34.7515 396.638 34.0987C396.598 33.3886 396.859 32.5269 397.462 31.6578C398.693 29.8846 400.983 28.5843 403.203 28.7998L403.493 25.8139ZM405.388 44.1588C407.981 43.7688 409.946 42.5253 411.207 40.7854C412.452 39.0673 412.946 36.9566 412.791 34.9037C412.483 30.8014 409.547 26.6665 404.324 25.914L403.896 28.8833C407.554 29.4103 409.583 32.2463 409.8 35.1288C409.908 36.5683 409.555 37.9535 408.778 39.025C408.017 40.0747 406.786 40.9147 404.942 41.1922L405.388 44.1588Z" fill="url(#paint7_angular_305_4895)"/>
<path d="M208.141 41.8469L208.746 43.2192V43.2192L208.141 41.8469ZM200.884 42.6755L200.661 44.1588L200.884 42.6755ZM201.939 27.3987L202.153 28.8833L201.939 27.3987ZM202.701 27.3069L202.846 28.7998V28.7998L202.701 27.3069ZM209.133 37.2167L208.263 35.9949V35.9949L209.133 37.2167ZM204.972 37.8891L205.359 36.4399L204.972 37.8891ZM201.939 33.2032L200.977 32.0526L201.939 33.2032ZM206.728 32.0526C207.364 32.5841 207.448 33.5301 206.916 34.1655C206.385 34.801 205.439 34.8852 204.803 34.3537L206.728 32.0526ZM257.394 45.4509L257.393 43.9509H257.394V45.4509ZM257.337 45.4509L257.335 43.9509H257.336L257.337 45.4509ZM232.549 45.4626L232.549 46.9626L232.549 45.4626ZM212.752 39.9739L212.728 38.4741L212.752 39.9739ZM208.746 43.2192C206.088 44.3923 203.308 44.557 200.661 44.1588L201.107 41.1922C203.33 41.5265 205.511 41.3676 207.535 40.4745L208.746 43.2192ZM201.726 25.914C202.006 25.8736 202.283 25.8404 202.556 25.8139L202.846 28.7998C202.618 28.822 202.387 28.8497 202.153 28.8833L201.726 25.914ZM210.003 38.4385C208.126 39.7754 206.138 39.7531 204.585 39.3384L205.359 36.4399C206.32 36.6968 207.317 36.6688 208.263 35.9949L210.003 38.4385ZM200.977 32.0526C202.697 30.6138 205.008 30.6138 206.728 32.0526L204.803 34.3537C204.197 33.8467 203.508 33.8467 202.902 34.3537L200.977 32.0526ZM320.383 46.9508L257.394 46.9509V43.9509L320.383 43.9508L320.383 46.9508ZM257.338 46.9509C256.785 46.9513 242.899 46.9623 232.549 46.9626L232.549 43.9626C242.898 43.9623 256.783 43.9513 257.335 43.9509L257.338 46.9509ZM212.776 41.4737C212.896 41.4718 212.915 41.446 212.728 41.5075C212.567 41.5607 212.331 41.6515 211.981 41.7981C211.28 42.0921 210.271 42.5464 208.746 43.2192L207.535 40.4745C209.023 39.8182 210.086 39.3398 210.821 39.0315C211.19 38.877 211.513 38.7492 211.789 38.6582C212.04 38.5755 212.376 38.4798 212.728 38.4741L212.776 41.4737ZM232.549 46.9626C228.528 46.9628 225.119 45.4119 222.042 44.0451C218.883 42.6421 216.051 41.421 212.776 41.4737L212.728 38.4741C216.759 38.4092 220.173 39.9325 223.259 41.3034C226.427 42.7104 229.264 43.9627 232.549 43.9626L232.549 46.9626ZM204.585 39.3384C203.155 38.9565 201.677 37.9614 200.777 36.7884C200.324 36.198 199.919 35.433 199.864 34.5664C199.804 33.6139 200.183 32.717 200.977 32.0526L202.902 34.3537C202.839 34.4062 202.839 34.4259 202.849 34.4026C202.86 34.3785 202.857 34.3631 202.858 34.3776C202.862 34.435 202.909 34.639 203.158 34.9626C203.66 35.6176 204.576 36.231 205.359 36.4399L204.585 39.3384ZM257.394 46.9509L257.337 46.9509L257.336 43.9509L257.393 43.9509L257.394 46.9509ZM202.556 25.8139C206.059 25.4738 209.326 27.4608 211.052 29.9475C211.927 31.2084 212.493 32.72 212.406 34.2675C212.316 35.8722 211.527 37.3531 210.003 38.4385L208.263 35.9949C209.08 35.4127 209.374 34.7515 209.411 34.0987C209.451 33.3886 209.19 32.5269 208.587 31.6578C207.356 29.8846 205.066 28.5843 202.846 28.7998L202.556 25.8139ZM200.661 44.1588C198.069 43.7688 196.103 42.5253 194.842 40.7854C193.597 39.0673 193.104 36.9566 193.258 34.9037C193.567 30.8014 196.502 26.6665 201.726 25.914L202.153 28.8833C198.496 29.4103 196.466 32.2463 196.25 35.1288C196.141 36.5683 196.495 37.9535 197.271 39.025C198.032 40.0747 199.263 40.9147 201.107 41.1922L200.661 44.1588Z" fill="url(#paint8_angular_305_4895)"/>
<path d="M552.639 41.8469L553.244 43.2192V43.2192L552.639 41.8469ZM545.382 42.6755L545.159 44.1588L545.382 42.6755ZM546.437 27.3987L546.651 28.8833L546.437 27.3987ZM547.199 27.3069L547.344 28.7998V28.7998L547.199 27.3069ZM553.631 37.2167L552.761 35.9949V35.9949L553.631 37.2167ZM549.47 37.8891L549.857 36.4399L549.47 37.8891ZM546.437 33.2032L545.475 32.0526L546.437 33.2032ZM551.226 32.0526C551.862 32.5841 551.946 33.5301 551.414 34.1655C550.883 34.801 549.937 34.8852 549.302 34.3537L551.226 32.0526ZM601.892 45.4509L601.891 43.9509H601.892V45.4509ZM601.835 45.4509L601.834 43.9509H601.834L601.835 45.4509ZM577.047 45.4626L577.047 46.9626L577.047 45.4626ZM557.25 39.9739L557.226 38.4741L557.25 39.9739ZM553.244 43.2192C550.586 44.3923 547.806 44.557 545.159 44.1588L545.605 41.1922C547.828 41.5265 550.009 41.3676 552.033 40.4745L553.244 43.2192ZM546.224 25.914C546.504 25.8736 546.781 25.8404 547.054 25.8139L547.344 28.7998C547.116 28.822 546.885 28.8497 546.651 28.8833L546.224 25.914ZM554.501 38.4385C552.624 39.7754 550.636 39.7531 549.083 39.3384L549.857 36.4399C550.818 36.6968 551.815 36.6688 552.761 35.9949L554.501 38.4385ZM545.475 32.0526C547.195 30.6138 549.506 30.6138 551.226 32.0526L549.302 34.3537C548.695 33.8467 548.006 33.8467 547.4 34.3537L545.475 32.0526ZM664.881 46.9508L601.892 46.9509V43.9509L664.881 43.9508L664.881 46.9508ZM601.836 46.9509C601.283 46.9513 587.397 46.9623 577.047 46.9626L577.047 43.9626C587.396 43.9623 601.281 43.9513 601.834 43.9509L601.836 46.9509ZM557.275 41.4737C557.394 41.4718 557.413 41.446 557.226 41.5075C557.065 41.5607 556.829 41.6515 556.479 41.7981C555.778 42.0921 554.769 42.5464 553.244 43.2192L552.033 40.4745C553.521 39.8182 554.584 39.3398 555.319 39.0315C555.688 38.877 556.011 38.7492 556.287 38.6582C556.538 38.5755 556.874 38.4798 557.226 38.4741L557.275 41.4737ZM577.047 46.9626C573.026 46.9628 569.617 45.4119 566.54 44.0451C563.381 42.6421 560.549 41.421 557.275 41.4737L557.226 38.4741C561.257 38.4092 564.671 39.9325 567.757 41.3034C570.925 42.7104 573.762 43.9627 577.047 43.9626L577.047 46.9626ZM549.083 39.3384C547.653 38.9565 546.175 37.9614 545.275 36.7884C544.822 36.198 544.417 35.433 544.362 34.5664C544.302 33.6139 544.681 32.717 545.475 32.0526L547.4 34.3537C547.337 34.4062 547.337 34.4259 547.347 34.4026C547.358 34.3785 547.355 34.3631 547.356 34.3776C547.36 34.435 547.407 34.639 547.656 34.9626C548.158 35.6176 549.074 36.231 549.857 36.4399L549.083 39.3384ZM601.892 46.9509L601.835 46.9509L601.834 43.9509L601.891 43.9509L601.892 46.9509ZM547.054 25.8139C550.557 25.4738 553.824 27.4608 555.55 29.9475C556.425 31.2084 556.991 32.72 556.904 34.2675C556.814 35.8722 556.025 37.3531 554.501 38.4385L552.761 35.9949C553.578 35.4127 553.872 34.7515 553.909 34.0987C553.949 33.3886 553.688 32.5269 553.085 31.6578C551.855 29.8846 549.564 28.5843 547.344 28.7998L547.054 25.8139ZM545.159 44.1588C542.567 43.7688 540.601 42.5253 539.34 40.7854C538.095 39.0673 537.602 36.9566 537.756 34.9037C538.065 30.8014 541 26.6665 546.224 25.914L546.651 28.8833C542.994 29.4103 540.965 32.2463 540.748 35.1288C540.639 36.5683 540.993 37.9535 541.769 39.025C542.53 40.0747 543.761 40.9147 545.605 41.1922L545.159 44.1588Z" fill="url(#paint9_angular_305_4895)"/>
<path d="M742.407 50.0916L741.802 48.7192V48.7192L742.407 50.0916ZM749.664 49.263L749.887 47.7797L749.664 49.263ZM748.608 64.5398L748.395 63.0551L748.608 64.5398ZM747.847 64.6316L747.702 63.1386V63.1386L747.847 64.6316ZM741.415 54.7218L742.285 55.9436V55.9436L741.415 54.7218ZM745.576 54.0493L745.189 55.4985L745.576 54.0493ZM748.608 58.7353L749.571 59.8859L748.608 58.7353ZM743.82 59.8859C743.184 59.3544 743.1 58.4084 743.631 57.7729C744.163 57.1375 745.109 57.0532 745.744 57.5847L743.82 59.8859ZM693.154 46.4876L693.155 47.9876H693.154V46.4876ZM693.211 46.4876L693.212 47.9876H693.212L693.211 46.4876ZM717.999 46.4758L717.999 44.9758L717.999 46.4758ZM737.796 51.9645L737.82 53.4643L737.796 51.9645ZM741.802 48.7192C744.46 47.5461 747.24 47.3814 749.887 47.7797L749.441 50.7463C747.218 50.4119 745.037 50.5708 743.013 51.4639L741.802 48.7192ZM748.822 66.0245C748.542 66.0648 748.265 66.098 747.992 66.1246L747.702 63.1386C747.93 63.1165 748.161 63.0888 748.395 63.0551L748.822 66.0245ZM740.545 53.5C742.422 52.1631 744.41 52.1853 745.963 52.6001L745.189 55.4985C744.227 55.2417 743.231 55.2696 742.285 55.9436L740.545 53.5ZM749.571 59.8859C747.851 61.3247 745.54 61.3247 743.82 59.8859L745.744 57.5847C746.351 58.0917 747.04 58.0917 747.646 57.5847L749.571 59.8859ZM630.165 44.9876L693.154 44.9876V47.9876L630.165 47.9876L630.165 44.9876ZM693.21 44.9876C693.762 44.9871 707.649 44.9762 717.999 44.9758L717.999 47.9758C707.65 47.9762 693.765 47.9871 693.212 47.9876L693.21 44.9876ZM737.771 50.4647C737.652 50.4666 737.633 50.4925 737.82 50.4309C737.981 50.3778 738.217 50.287 738.566 50.1404C739.268 49.8463 740.277 49.392 741.802 48.7192L743.013 51.4639C741.525 52.1202 740.462 52.5986 739.727 52.9069C739.358 53.0615 739.035 53.1892 738.759 53.2803C738.508 53.363 738.172 53.4586 737.82 53.4643L737.771 50.4647ZM717.999 44.9758C722.02 44.9757 725.429 46.5265 728.506 47.8934C731.665 49.2963 734.497 50.5175 737.771 50.4647L737.82 53.4643C733.788 53.5293 730.375 52.006 727.289 50.6351C724.121 49.2281 721.284 47.9757 717.999 47.9758L717.999 44.9758ZM745.963 52.6001C747.393 52.9819 748.871 53.9771 749.771 55.15C750.224 55.7405 750.629 56.5054 750.684 57.3721C750.744 58.3245 750.365 59.2215 749.571 59.8859L747.646 57.5847C747.709 57.5322 747.709 57.5126 747.699 57.5358C747.688 57.5599 747.691 57.5754 747.69 57.5608C747.686 57.5034 747.638 57.2995 747.39 56.9759C746.888 56.3208 745.971 55.7074 745.189 55.4985L745.963 52.6001ZM693.154 44.9876L693.211 44.9876L693.212 47.9876L693.155 47.9876L693.154 44.9876ZM747.992 66.1246C744.489 66.4646 741.222 64.4777 739.496 61.9909C738.621 60.73 738.054 59.2185 738.142 57.671C738.232 56.0662 739.021 54.5854 740.545 53.5L742.285 55.9436C741.467 56.5258 741.174 57.187 741.137 57.8398C741.097 58.5499 741.358 59.4115 741.961 60.2806C743.191 62.0538 745.482 63.3542 747.702 63.1386L747.992 66.1246ZM749.887 47.7797C752.479 48.1697 754.445 49.4131 755.706 51.153C756.951 52.8711 757.444 54.9819 757.29 57.0348C756.981 61.137 754.046 65.2719 748.822 66.0245L748.395 63.0551C752.052 62.5282 754.081 59.6921 754.298 56.8096C754.407 55.3701 754.053 53.985 753.277 52.9135C752.516 51.8637 751.285 51.0238 749.441 50.7463L749.887 47.7797Z" fill="url(#paint10_angular_305_4895)"/>
<path d="M397.909 50.0916L397.303 48.7192V48.7192L397.909 50.0916ZM405.165 49.263L405.388 47.7797L405.165 49.263ZM404.11 64.5398L403.896 63.0551L404.11 64.5398ZM403.348 64.6316L403.203 63.1386V63.1386L403.348 64.6316ZM396.916 54.7217L397.786 55.9436V55.9436L396.916 54.7217ZM401.078 54.0493L400.691 55.4985L401.078 54.0493ZM404.11 58.7353L405.072 59.8858L404.11 58.7353ZM399.321 59.8858C398.686 59.3543 398.601 58.4083 399.133 57.7729C399.664 57.1374 400.61 57.0532 401.246 57.5847L399.321 59.8858ZM348.656 46.4876L348.656 47.9876H348.656V46.4876ZM348.713 46.4876L348.714 47.9876H348.713L348.713 46.4876ZM373.5 46.4758L373.5 44.9758L373.5 46.4758ZM393.297 51.9645L393.321 53.4643L393.297 51.9645ZM397.303 48.7192C399.962 47.5461 402.741 47.3814 405.388 47.7797L404.942 50.7463C402.719 50.4119 400.538 50.5708 398.514 51.4639L397.303 48.7192ZM404.324 66.0244C404.043 66.0648 403.766 66.098 403.493 66.1246L403.203 63.1386C403.431 63.1164 403.662 63.0888 403.896 63.0551L404.324 66.0244ZM396.046 53.4999C397.923 52.1631 399.912 52.1853 401.465 52.6001L400.691 55.4985C399.729 55.2417 398.733 55.2696 397.786 55.9436L396.046 53.4999ZM405.072 59.8858C403.352 61.3247 401.041 61.3247 399.321 59.8858L401.246 57.5847C401.852 58.0917 402.541 58.0917 403.147 57.5847L405.072 59.8858ZM285.667 44.9876L348.656 44.9876V47.9876L285.667 47.9876L285.667 44.9876ZM348.711 44.9876C349.264 44.9871 363.15 44.9762 373.5 44.9758L373.5 47.9758C363.152 47.9762 349.266 47.9871 348.714 47.9876L348.711 44.9876ZM393.273 50.4647C393.154 50.4666 393.135 50.4924 393.321 50.4309C393.483 50.3778 393.718 50.2869 394.068 50.1404C394.769 49.8463 395.778 49.392 397.303 48.7192L398.514 51.4639C397.027 52.1202 395.963 52.5986 395.228 52.9069C394.86 53.0615 394.537 53.1892 394.26 53.2803C394.009 53.3629 393.674 53.4586 393.321 53.4643L393.273 50.4647ZM373.5 44.9758C377.522 44.9757 380.93 46.5265 384.008 47.8933C387.167 49.2963 389.998 50.5175 393.273 50.4647L393.321 53.4643C389.29 53.5293 385.877 52.006 382.79 50.6351C379.622 49.228 376.785 47.9757 373.5 47.9758L373.5 44.9758ZM401.465 52.6001C402.894 52.9819 404.372 53.9771 405.272 55.15C405.725 55.7405 406.13 56.5054 406.185 57.3721C406.245 58.3245 405.867 59.2215 405.072 59.8858L403.147 57.5847C403.21 57.5322 403.21 57.5125 403.2 57.5358C403.189 57.5599 403.192 57.5754 403.191 57.5608C403.187 57.5034 403.14 57.2994 402.892 56.9759C402.389 56.3208 401.473 55.7074 400.691 55.4985L401.465 52.6001ZM348.655 44.9876L348.712 44.9876L348.713 47.9876L348.656 47.9876L348.655 44.9876ZM403.493 66.1246C399.991 66.4646 396.723 64.4777 394.998 61.9909C394.123 60.73 393.556 59.2185 393.643 57.671C393.734 56.0662 394.522 54.5854 396.046 53.4999L397.786 55.9436C396.969 56.5258 396.675 57.1869 396.638 57.8397C396.598 58.5498 396.859 59.4115 397.462 60.2806C398.693 62.0538 400.983 63.3541 403.203 63.1386L403.493 66.1246ZM405.388 47.7797C407.981 48.1697 409.946 49.4131 411.207 51.153C412.452 52.8711 412.946 54.9819 412.791 57.0347C412.483 61.137 409.547 65.2719 404.324 66.0244L403.896 63.0551C407.554 62.5282 409.583 59.6921 409.8 56.8096C409.908 55.3701 409.555 53.9849 408.778 52.9134C408.017 51.8637 406.786 51.0237 404.942 50.7463L405.388 47.7797Z" fill="url(#paint11_angular_305_4895)"/>
<path d="M208.141 50.0916L208.746 48.7192V48.7192L208.141 50.0916ZM200.884 49.263L200.661 47.7797L200.884 49.263ZM201.939 64.5398L202.153 63.0551L201.939 64.5398ZM202.701 64.6316L202.846 63.1386V63.1386L202.701 64.6316ZM209.133 54.7218L208.263 55.9436V55.9436L209.133 54.7218ZM204.972 54.0493L205.359 55.4985L204.972 54.0493ZM201.939 58.7353L200.977 59.8859L201.939 58.7353ZM206.728 59.8859C207.364 59.3544 207.448 58.4084 206.916 57.7729C206.385 57.1375 205.439 57.0532 204.803 57.5847L206.728 59.8859ZM257.394 46.4876L257.393 47.9876H257.394V46.4876ZM257.337 46.4876L257.335 47.9876H257.336L257.337 46.4876ZM232.549 46.4758L232.549 44.9758L232.549 46.4758ZM212.752 51.9645L212.728 53.4643L212.752 51.9645ZM208.746 48.7192C206.088 47.5461 203.308 47.3814 200.661 47.7797L201.107 50.7463C203.33 50.4119 205.511 50.5708 207.535 51.4639L208.746 48.7192ZM201.726 66.0245C202.006 66.0648 202.283 66.098 202.556 66.1246L202.846 63.1386C202.618 63.1165 202.387 63.0888 202.153 63.0551L201.726 66.0245ZM210.003 53.5C208.126 52.1631 206.138 52.1853 204.585 52.6001L205.359 55.4985C206.32 55.2417 207.317 55.2696 208.263 55.9436L210.003 53.5ZM200.977 59.8859C202.697 61.3247 205.008 61.3247 206.728 59.8859L204.803 57.5847C204.197 58.0917 203.508 58.0917 202.902 57.5847L200.977 59.8859ZM320.383 44.9876L257.394 44.9876V47.9876L320.383 47.9876L320.383 44.9876ZM257.338 44.9876C256.785 44.9871 242.899 44.9762 232.549 44.9758L232.549 47.9758C242.898 47.9762 256.783 47.9871 257.335 47.9876L257.338 44.9876ZM212.776 50.4647C212.896 50.4666 212.915 50.4925 212.728 50.4309C212.567 50.3778 212.331 50.287 211.981 50.1404C211.28 49.8463 210.271 49.392 208.746 48.7192L207.535 51.4639C209.023 52.1202 210.086 52.5986 210.821 52.9069C211.19 53.0615 211.513 53.1892 211.789 53.2803C212.04 53.363 212.376 53.4586 212.728 53.4643L212.776 50.4647ZM232.549 44.9758C228.528 44.9757 225.119 46.5265 222.042 47.8934C218.883 49.2963 216.051 50.5175 212.776 50.4647L212.728 53.4643C216.759 53.5293 220.173 52.006 223.259 50.6351C226.427 49.2281 229.264 47.9757 232.549 47.9758L232.549 44.9758ZM204.585 52.6001C203.155 52.9819 201.677 53.9771 200.777 55.15C200.324 55.7405 199.919 56.5054 199.864 57.3721C199.804 58.3245 200.183 59.2215 200.977 59.8859L202.902 57.5847C202.839 57.5322 202.839 57.5126 202.849 57.5358C202.86 57.5599 202.857 57.5754 202.858 57.5608C202.862 57.5034 202.909 57.2995 203.158 56.9759C203.66 56.3208 204.576 55.7074 205.359 55.4985L204.585 52.6001ZM257.394 44.9876L257.337 44.9876L257.336 47.9876L257.393 47.9876L257.394 44.9876ZM202.556 66.1246C206.059 66.4646 209.326 64.4777 211.052 61.9909C211.927 60.73 212.493 59.2185 212.406 57.671C212.316 56.0662 211.527 54.5854 210.003 53.5L208.263 55.9436C209.08 56.5258 209.374 57.187 209.411 57.8398C209.451 58.5499 209.19 59.4115 208.587 60.2806C207.356 62.0538 205.066 63.3542 202.846 63.1386L202.556 66.1246ZM200.661 47.7797C198.069 48.1697 196.103 49.4131 194.842 51.153C193.597 52.8711 193.104 54.9819 193.258 57.0348C193.567 61.137 196.502 65.2719 201.726 66.0245L202.153 63.0551C198.496 62.5282 196.466 59.6921 196.25 56.8096C196.141 55.3701 196.495 53.985 197.271 52.9135C198.032 51.8637 199.263 51.0238 201.107 50.7463L200.661 47.7797Z" fill="url(#paint12_angular_305_4895)"/>
<path d="M552.639 50.0916L553.244 48.7192V48.7192L552.639 50.0916ZM545.382 49.263L545.159 47.7797L545.382 49.263ZM546.437 64.5398L546.651 63.0551L546.437 64.5398ZM547.199 64.6316L547.344 63.1386V63.1386L547.199 64.6316ZM553.631 54.7218L552.761 55.9436V55.9436L553.631 54.7218ZM549.47 54.0493L549.857 55.4985L549.47 54.0493ZM546.437 58.7353L545.475 59.8859L546.437 58.7353ZM551.226 59.8859C551.862 59.3544 551.946 58.4084 551.414 57.7729C550.883 57.1375 549.937 57.0532 549.302 57.5847L551.226 59.8859ZM601.892 46.4876L601.891 47.9876H601.892V46.4876ZM601.835 46.4876L601.834 47.9876H601.834L601.835 46.4876ZM577.047 46.4758L577.047 44.9758L577.047 46.4758ZM557.25 51.9645L557.226 53.4643L557.25 51.9645ZM553.244 48.7192C550.586 47.5461 547.806 47.3814 545.159 47.7797L545.605 50.7463C547.828 50.4119 550.009 50.5708 552.033 51.4639L553.244 48.7192ZM546.224 66.0245C546.504 66.0648 546.781 66.098 547.054 66.1246L547.344 63.1386C547.116 63.1165 546.885 63.0888 546.651 63.0551L546.224 66.0245ZM554.501 53.5C552.624 52.1631 550.636 52.1853 549.083 52.6001L549.857 55.4985C550.818 55.2417 551.815 55.2696 552.761 55.9436L554.501 53.5ZM545.475 59.8859C547.195 61.3247 549.506 61.3247 551.226 59.8859L549.302 57.5847C548.695 58.0917 548.006 58.0917 547.4 57.5847L545.475 59.8859ZM664.881 44.9876L601.892 44.9876V47.9876L664.881 47.9876L664.881 44.9876ZM601.836 44.9876C601.283 44.9871 587.397 44.9762 577.047 44.9758L577.047 47.9758C587.396 47.9762 601.281 47.9871 601.834 47.9876L601.836 44.9876ZM557.275 50.4647C557.394 50.4666 557.413 50.4925 557.226 50.4309C557.065 50.3778 556.829 50.287 556.479 50.1404C555.778 49.8463 554.769 49.392 553.244 48.7192L552.033 51.4639C553.521 52.1202 554.584 52.5986 555.319 52.9069C555.688 53.0615 556.011 53.1892 556.287 53.2803C556.538 53.363 556.874 53.4586 557.226 53.4643L557.275 50.4647ZM577.047 44.9758C573.026 44.9757 569.617 46.5265 566.54 47.8934C563.381 49.2963 560.549 50.5175 557.275 50.4647L557.226 53.4643C561.257 53.5293 564.671 52.006 567.757 50.6351C570.925 49.2281 573.762 47.9757 577.047 47.9758L577.047 44.9758ZM549.083 52.6001C547.653 52.9819 546.175 53.9771 545.275 55.15C544.822 55.7405 544.417 56.5054 544.362 57.3721C544.302 58.3245 544.681 59.2215 545.475 59.8859L547.4 57.5847C547.337 57.5322 547.337 57.5126 547.347 57.5358C547.358 57.5599 547.355 57.5754 547.356 57.5608C547.36 57.5034 547.407 57.2995 547.656 56.9759C548.158 56.3208 549.074 55.7074 549.857 55.4985L549.083 52.6001ZM601.892 44.9876L601.835 44.9876L601.834 47.9876L601.891 47.9876L601.892 44.9876ZM547.054 66.1246C550.557 66.4646 553.824 64.4777 555.55 61.9909C556.425 60.73 556.991 59.2185 556.904 57.671C556.814 56.0662 556.025 54.5854 554.501 53.5L552.761 55.9436C553.578 56.5258 553.872 57.187 553.909 57.8398C553.949 58.5499 553.688 59.4115 553.085 60.2806C551.855 62.0538 549.564 63.3542 547.344 63.1386L547.054 66.1246ZM545.159 47.7797C542.567 48.1697 540.601 49.4131 539.34 51.153C538.095 52.8711 537.602 54.9819 537.756 57.0348C538.065 61.137 541 65.2719 546.224 66.0245L546.651 63.0551C542.994 62.5282 540.965 59.6921 540.748 56.8096C540.639 55.3701 540.993 53.985 541.769 52.9135C542.53 51.8637 543.761 51.0238 545.605 50.7463L545.159 47.7797Z" fill="url(#paint13_angular_305_4895)"/>
<path d="M502.241 46.19L510.901 54.8503L519.561 46.19L510.901 37.5298L502.241 46.19ZM779.534 46.19L770.873 37.5298L762.213 46.19L770.873 54.8503L779.534 46.19ZM510.901 47.69L770.873 47.69L770.873 44.69L510.901 44.69L510.901 47.69Z" fill="url(#paint14_angular_305_4895)"/>
<path d="M157.867 46.1899L166.527 54.8502L175.187 46.1899L166.527 37.5296L157.867 46.1899ZM442.633 46.1901L433.973 37.5298L425.312 46.1901L433.973 54.8503L442.633 46.1901ZM166.527 47.6899L433.973 47.6901L433.973 44.6901L166.527 44.6899L166.527 47.6899Z" fill="url(#paint15_angular_305_4895)"/>
<path d="M450.269 46.19L441.608 37.5298L432.948 46.19L441.608 54.8503L450.269 46.19ZM170.633 46.19L179.294 54.8503L187.954 46.19L179.294 37.5298L170.633 46.19ZM441.608 44.69L179.294 44.69V47.69L441.608 47.69V44.69Z" fill="url(#paint16_angular_305_4895)"/>
<path d="M792.699 46.1899L784.039 54.8502L775.379 46.1899L784.039 37.5297L792.699 46.1899ZM510.088 46.1899L518.748 37.5297L527.409 46.1899L518.748 54.8502L510.088 46.1899ZM784.039 47.6899L518.748 47.6899L518.748 44.6899L784.039 44.6899L784.039 47.6899Z" fill="url(#paint17_angular_305_4895)"/>
<path d="M465.84 45.9326L474.5 54.5928L483.16 45.9326L474.5 37.2723L465.84 45.9326ZM942.66 45.9325L934 37.2723L925.34 45.9325L934 54.5928L942.66 45.9325ZM474.5 47.4326L934 47.4325L934 44.4325L474.5 44.4326L474.5 47.4326Z" fill="url(#paint18_angular_305_4895)"/>
<path d="M6.33975 45.9325L15 54.5928L23.6603 45.9325L15 37.2723L6.33975 45.9325ZM483.16 45.9325L474.5 37.2723L465.84 45.9325L474.5 54.5928L483.16 45.9325ZM15 47.4325L474.5 47.4325L474.5 44.4325L15 44.4325L15 47.4325Z" fill="url(#paint19_angular_305_4895)"/>
</g>
<defs>
<filter id="filter0_i_305_4895" x="15" y="45" width="921" height="487" filterUnits="userSpaceOnUse" color-interpolation-filters="sRGB">
<feFlood flood-opacity="0" result="BackgroundImageFix"/>
<feBlend mode="normal" in="SourceGraphic" in2="BackgroundImageFix" result="shape"/>
<feColorMatrix in="SourceAlpha" type="matrix" values="0 0 0 0 0 0 0 0 0 0 0 0 0 0 0 0 0 0 127 0" result="hardAlpha"/>
<feOffset dx="2" dy="2"/>
<feGaussianBlur stdDeviation="5"/>
<feComposite in2="hardAlpha" operator="arithmetic" k2="-1" k3="1"/>
<feColorMatrix type="matrix" values="0 0 0 0 0 0 0 0 0 0 0 0 0 0 0 0 0 0 0.1 0"/>
<feBlend mode="normal" in2="shape" result="effect1_innerShadow_305_4895"/>
</filter>
<radialGradient id="paint0_angular_305_4895" cx="0" cy="0" r="1" gradientUnits="userSpaceOnUse" gradientTransform="translate(452.12 27.2083) rotate(-1.92247) scale(14.036 9.84712)">
<stop stop-color="#E4C863"/>
<stop offset="0.729167" stop-color="#FFE791"/>
</radialGradient>
<radialGradient id="paint1_angular_305_4895" cx="0" cy="0" r="1" gradientUnits="userSpaceOnUse" gradientTransform="translate(452.12 63.7917) rotate(1.92247) scale(14.036 9.84712)">
<stop stop-color="#E4C863"/>
<stop offset="0.729167" stop-color="#FFE791"/>
</radialGradient>
<radialGradient id="paint2_angular_305_4895" cx="0" cy="0" r="1" gradientUnits="userSpaceOnUse" gradientTransform="translate(474.878 17.1765) rotate(57.5715) scale(14.1831 9.74497)">
<stop stop-color="#E4C863"/>
<stop offset="0.729167" stop-color="#FFE791"/>
</radialGradient>
<radialGradient id="paint3_angular_305_4895" cx="0" cy="0" r="1" gradientUnits="userSpaceOnUse" gradientTransform="translate(474.878 73.8235) rotate(-57.5715) scale(14.1831 9.74497)">
<stop stop-color="#E4C863"/>
<stop offset="0.729167" stop-color="#FFE791"/>
</radialGradient>
<radialGradient id="paint4_angular_305_4895" cx="0" cy="0" r="1" gradientUnits="userSpaceOnUse" gradientTransform="translate(498.785 27.2083) rotate(-178.078) scale(14.036 9.84712)">
<stop stop-color="#E4C863"/>
<stop offset="0.729167" stop-color="#FFE791"/>
</radialGradient>
<radialGradient id="paint5_angular_305_4895" cx="0" cy="0" r="1" gradientUnits="userSpaceOnUse" gradientTransform="translate(498.785 63.7917) rotate(178.078) scale(14.036 9.84712)">
<stop stop-color="#E4C863"/>
<stop offset="0.729167" stop-color="#FFE791"/>
</radialGradient>
<radialGradient id="paint6_angular_305_4895" cx="0" cy="0" r="1" gradientUnits="userSpaceOnUse" gradientTransform="translate(698.91 36.2978) rotate(90) scale(9.0452 69.2432)">
<stop stop-color="#E4C863"/>
<stop offset="0.729167" stop-color="#FFE791"/>
</radialGradient>
<radialGradient id="paint7_angular_305_4895" cx="0" cy="0" r="1" gradientUnits="userSpaceOnUse" gradientTransform="translate(354.411 36.2978) rotate(90) scale(9.0452 69.2432)">
<stop stop-color="#E4C863"/>
<stop offset="0.729167" stop-color="#FFE791"/>
</radialGradient>
<radialGradient id="paint8_angular_305_4895" cx="0" cy="0" r="1" gradientUnits="userSpaceOnUse" gradientTransform="translate(251.638 36.2978) rotate(90) scale(9.0452 69.2432)">
<stop stop-color="#E4C863"/>
<stop offset="0.729167" stop-color="#FFE791"/>
</radialGradient>
<radialGradient id="paint9_angular_305_4895" cx="0" cy="0" r="1" gradientUnits="userSpaceOnUse" gradientTransform="translate(596.136 36.2978) rotate(90) scale(9.0452 69.2432)">
<stop stop-color="#E4C863"/>
<stop offset="0.729167" stop-color="#FFE791"/>
</radialGradient>
<radialGradient id="paint10_angular_305_4895" cx="0" cy="0" r="1" gradientUnits="userSpaceOnUse" gradientTransform="translate(698.91 55.6407) rotate(-90) scale(9.0452 69.2432)">
<stop stop-color="#E4C863"/>
<stop offset="0.729167" stop-color="#FFE791"/>
</radialGradient>
<radialGradient id="paint11_angular_305_4895" cx="0" cy="0" r="1" gradientUnits="userSpaceOnUse" gradientTransform="translate(354.411 55.6407) rotate(-90) scale(9.0452 69.2432)">
<stop stop-color="#E4C863"/>
<stop offset="0.729167" stop-color="#FFE791"/>
</radialGradient>
<radialGradient id="paint12_angular_305_4895" cx="0" cy="0" r="1" gradientUnits="userSpaceOnUse" gradientTransform="translate(251.638 55.6407) rotate(-90) scale(9.0452 69.2432)">
<stop stop-color="#E4C863"/>
<stop offset="0.729167" stop-color="#FFE791"/>
</radialGradient>
<radialGradient id="paint13_angular_305_4895" cx="0" cy="0" r="1" gradientUnits="userSpaceOnUse" gradientTransform="translate(596.136 55.6407) rotate(-90) scale(9.0452 69.2432)">
<stop stop-color="#E4C863"/>
<stop offset="0.729167" stop-color="#FFE791"/>
</radialGradient>
<radialGradient id="paint14_angular_305_4895" cx="0" cy="0" r="1" gradientUnits="userSpaceOnUse" gradientTransform="translate(642.8 46.19) rotate(90) scale(1.14583e-05 132.856)">
<stop stop-color="#E4C863"/>
<stop offset="0.729167" stop-color="#FFE791"/>
</radialGradient>
<radialGradient id="paint15_angular_305_4895" cx="0" cy="0" r="1" gradientUnits="userSpaceOnUse" gradientTransform="translate(302.218 46.19) rotate(90) scale(6.60751e-05 136.675)">
<stop stop-color="#E4C863"/>
<stop offset="0.729167" stop-color="#FFE791"/>
</radialGradient>
<radialGradient id="paint16_angular_305_4895" cx="0" cy="0" r="1" gradientUnits="userSpaceOnUse" gradientTransform="translate(308.521 45.6926) rotate(-90) scale(0.496062 134.053)">
<stop stop-color="#E4C863"/>
<stop offset="0.729167" stop-color="#FFE791"/>
</radialGradient>
<radialGradient id="paint17_angular_305_4895" cx="0" cy="0" r="1" gradientUnits="userSpaceOnUse" gradientTransform="translate(649.442 46.1899) rotate(90) scale(1.16927e-05 135.573)">
<stop stop-color="#E4C863"/>
<stop offset="0.729167" stop-color="#FFE791"/>
</radialGradient>
<radialGradient id="paint18_angular_305_4895" cx="0" cy="0" r="1" gradientUnits="userSpaceOnUse" gradientTransform="translate(707.631 46.4299) rotate(90) scale(0.496062 234.822)">
<stop stop-color="#E4C863"/>
<stop offset="0.729167" stop-color="#FFE791"/>
</radialGradient>
<radialGradient id="paint19_angular_305_4895" cx="0" cy="0" r="1" gradientUnits="userSpaceOnUse" gradientTransform="translate(248.131 45.9325) rotate(-90) scale(2.02524e-05 234.822)">
<stop stop-color="#E4C863"/>
<stop offset="0.729167" stop-color="#FFE791"/>
</radialGradient>
<clipPath id="clip0_305_4895">
<rect width="943" height="545" fill="white"/>
</clipPath>
</defs>
</svg>
