<svg width="500" height="203" viewBox="0 0 500 203" fill="none" xmlns="http://www.w3.org/2000/svg">
<path d="M452.377 -6.9681L442.771 -14.8461L446.381 -1.68391C447.051 0.760471 448.215 3.04157 449.801 5.01863C452.219 8.03295 455.518 10.2169 459.238 11.2655L460.3 11.5652L460.332 10.5138C460.456 6.34125 459.379 2.22092 457.227 -1.35623C455.943 -3.49052 454.303 -5.38868 452.377 -6.9681Z" fill="#00351F"/>
<path d="M437.377 42.0319L427.771 34.1539L431.381 47.3161C432.051 49.7605 433.215 52.0416 434.801 54.0186C437.219 57.0329 440.518 59.2169 444.238 60.2655L445.3 60.5652L445.332 59.5138C445.456 55.3412 444.379 51.2209 442.227 47.6438C440.943 45.5095 439.303 43.6113 437.377 42.0319Z" fill="#00351F"/>
<path d="M14.8914 9.18704L15.6633 7.79853L17.9652 11.6016C20.2326 15.3477 21.091 19.7792 20.3863 24.101C20.0665 26.0619 19.4316 27.9581 18.506 29.7161L13.3991 39.4165L11.5657 28.5424C11.2462 26.6474 11.1115 24.7259 11.1634 22.805C11.2926 18.0319 12.5715 13.3604 14.8914 9.18704Z" fill="#00351F"/>
<path d="M31.0959 35.4221L32.0387 34.1435L33.8361 38.2094C35.6066 42.2144 35.892 46.7192 34.6411 50.9156C34.0736 52.8196 33.2017 54.6192 32.0592 56.2447L25.7554 65.2135L25.3256 54.1942C25.2507 52.274 25.3625 50.351 25.6593 48.4524C26.397 43.7349 28.2619 39.265 31.0959 35.4221Z" fill="#00351F"/>
<path d="M48.7864 61.5523L49.5404 60.154L51.8909 63.9272C54.2062 67.6439 55.1213 72.064 54.4721 76.3945C54.1776 78.3593 53.567 80.2635 52.6641 82.0333L47.6821 91.7984L45.7093 80.9487C45.3655 79.058 45.2061 77.1384 45.2334 75.2169C45.3013 70.4426 46.5201 65.7551 48.7864 61.5523Z" fill="#00351F"/>
<path d="M152.431 144.647L152.974 143.154L155.846 146.547C158.676 149.889 160.221 154.13 160.206 158.509C160.2 160.495 159.871 162.468 159.234 164.35L155.719 174.734L152.196 164.284C151.582 162.463 151.146 160.587 150.895 158.682C150.27 153.948 150.797 149.133 152.431 144.647Z" fill="#00351F"/>
<path d="M173.786 152.552L174.54 151.154L176.891 154.927C179.206 158.644 180.121 163.064 179.472 167.394C179.178 169.359 178.567 171.264 177.664 173.033L172.682 182.798L170.709 171.949C170.365 170.058 170.206 168.138 170.233 166.217C170.301 161.443 171.52 156.755 173.786 152.552Z" fill="#00351F"/>
<path d="M196.809 158.73L197.009 157.154L200.561 159.827C204.06 162.46 206.506 166.254 207.461 170.527C207.894 172.466 208.01 174.462 207.806 176.439L206.676 187.343L200.927 177.933C199.925 176.293 199.085 174.559 198.418 172.757C196.761 168.279 196.21 163.467 196.809 158.73Z" fill="#00351F"/>
<path d="M67.454 82.6458L68.0009 81.1543L70.8655 84.5537C73.6872 87.9022 75.2233 92.1466 75.1984 96.5254C75.1871 98.5121 74.8543 100.484 74.2131 102.364L70.6747 112.74L67.1746 102.283C66.5647 100.46 66.1332 98.5832 65.8862 96.6775C65.2725 91.9422 65.8103 87.1288 67.454 82.6458Z" fill="#00351F"/>
<path d="M87.8174 102.625L88.4178 101.154L91.1578 104.655C93.8567 108.103 95.2386 112.4 95.0555 116.775C94.9725 118.76 94.5687 120.719 93.86 122.575L89.9492 132.816L86.8291 122.239C86.2854 120.396 85.9219 118.504 85.7439 116.591C85.3016 111.836 86.0129 107.045 87.8174 102.625Z" fill="#00351F"/>
<path d="M462.533 29.9009L461 29.4858L464.138 26.3365C467.228 23.2344 471.323 21.335 475.687 20.9792C477.667 20.8177 479.661 20.9778 481.59 21.4532L492.234 24.0761L482.12 28.472C480.358 29.2381 478.525 29.8312 476.648 30.2429C471.984 31.266 467.142 31.1487 462.533 29.9009Z" fill="#00351F"/>
<path d="M229.961 168.616L230.583 167.154L233.271 170.695C235.919 174.183 237.237 178.5 236.989 182.872C236.876 184.855 236.444 186.808 235.708 188.653L231.645 198.835L228.682 188.213C228.166 186.362 227.831 184.465 227.681 182.549C227.309 177.789 228.092 173.009 229.961 168.616Z" fill="#00351F"/>
<path d="M253.79 166.724L253.548 165.154L257.699 166.744C261.788 168.31 265.186 171.282 267.282 175.126C268.233 176.87 268.896 178.757 269.244 180.713L271.165 191.506L263.044 184.046C261.629 182.746 260.343 181.312 259.205 179.763C256.378 175.916 254.52 171.443 253.79 166.724Z" fill="#00351F"/>
<path d="M267.742 158.606L267.155 159.388L265.637 155.494C264.328 152.135 264.184 148.434 265.228 144.984C265.736 143.304 266.516 141.719 267.535 140.292L272.632 133.154L272.841 142.741C272.875 144.311 272.765 145.882 272.51 147.432C271.844 151.486 270.208 155.32 267.742 158.606Z" fill="#00351F"/>
<path d="M278.274 167.598L277.61 166.154L282.038 166.545C286.4 166.93 290.482 168.857 293.552 171.98C294.945 173.397 296.099 175.03 296.97 176.815L301.776 186.668L291.921 181.72C290.204 180.858 288.574 179.831 287.055 178.653C283.282 175.728 280.269 171.936 278.274 167.598Z" fill="#00351F"/>
<path d="M330.838 162.451L330 161.102L334.443 160.939C338.819 160.779 343.108 162.183 346.543 164.9C348.101 166.132 349.449 167.609 350.536 169.272L356.53 178.451L346.136 174.767C344.325 174.125 342.58 173.309 340.927 172.329C336.818 169.896 333.358 166.508 330.838 162.451Z" fill="#00351F"/>
<path d="M368.589 149.575L367.368 148.559L371.533 147.004C375.635 145.473 380.149 145.453 384.265 146.949C386.132 147.628 387.877 148.604 389.432 149.841L398.014 156.662L386.989 156.442C385.067 156.403 383.154 156.178 381.277 155.77C376.611 154.756 372.258 152.631 368.589 149.575Z" fill="#00351F"/>
<path d="M423.052 109.606L422 108.415L426.353 107.512C430.64 106.621 435.104 107.288 438.945 109.392C440.687 110.346 442.264 111.576 443.613 113.035L451.059 121.081L440.195 119.188C438.302 118.858 436.445 118.345 434.651 117.656C430.193 115.945 426.215 113.183 423.052 109.606Z" fill="#00351F"/>
<path d="M400.897 132.554L400 131.243L404.431 130.884C408.795 130.53 413.143 131.744 416.694 134.306C418.305 135.469 419.717 136.885 420.876 138.499L427.27 147.403L416.723 144.182C414.885 143.621 413.106 142.882 411.411 141.977C407.199 139.727 403.593 136.495 400.897 132.554Z" fill="#00351F"/>
<path d="M41.4772 5.41367L53.6018 2.70716L41.0132 -2.56522C38.6753 -3.54436 36.1616 -4.03406 33.6272 -4.00409C29.763 -3.95841 26.0097 -2.70719 22.891 -0.425145L22 0.22689L22.8085 0.899764C26.017 3.57007 29.9257 5.26159 34.0686 5.77275C36.5405 6.07773 39.0464 5.95628 41.4772 5.41367Z" fill="#00351F"/>
<path d="M50.829 20.3725L61.9588 14.8534L48.4762 12.7343C45.9723 12.3407 43.4143 12.4644 40.9601 13.0978C37.2183 14.0634 33.8715 16.1733 31.3868 19.1331L30.6769 19.9788L31.6225 20.4395C35.3752 22.2678 39.5744 22.9787 43.7197 22.4875C46.193 22.1943 48.5977 21.4789 50.829 20.3725Z" fill="#00351F"/>
<path d="M65.1019 43.6335L76.5117 38.7193L63.1621 35.8801C60.6829 35.3528 58.122 35.3392 55.6374 35.84C51.8492 36.6035 48.394 38.5309 45.7542 41.3532L44.9999 42.1595L45.9195 42.6703C49.5686 44.6973 53.7237 45.6324 57.8894 45.3641C60.3749 45.2041 62.8144 44.6187 65.1019 43.6335Z" fill="#00351F"/>
<path d="M99.3138 89.8745L111.531 87.6235L99.1487 81.8838C96.8491 80.8179 94.3555 80.2345 91.8217 80.1696C87.9586 80.0707 84.161 81.1806 80.9592 83.3444L80.0444 83.9626L80.8271 84.6653C83.9335 87.4537 87.7761 89.2903 91.8971 89.9561C94.3558 90.3534 96.8644 90.3257 99.3138 89.8745Z" fill="#00351F"/>
<path d="M82.1242 64.441L93.449 59.3341L80.0533 56.7216C77.5655 56.2364 75.0047 56.2662 72.5289 56.809C68.7542 57.6366 65.3322 59.6224 62.7406 62.4889L62.0001 63.308L62.9282 63.8031C66.6112 65.768 70.7815 66.6325 74.9421 66.2936C77.4245 66.0915 79.8538 65.4648 82.1242 64.441Z" fill="#00351F"/>
<path d="M151.155 122.853L162.215 117.194L148.706 115.245C146.198 114.883 143.642 115.039 141.196 115.703C137.466 116.716 134.146 118.868 131.699 121.859L131 122.713L131.951 123.162C135.727 124.943 139.934 125.601 144.073 125.057C146.543 124.733 148.938 123.987 151.155 122.853Z" fill="#00351F"/>
<path d="M124.112 106.552L135.486 101.555L122.116 98.8129C119.633 98.3036 117.072 98.3085 114.591 98.8273C110.809 99.6183 107.368 101.571 104.749 104.412L104 105.224L104.923 105.728C108.587 107.728 112.749 108.633 116.913 108.335C119.397 108.157 121.832 107.554 124.112 106.552Z" fill="#00351F"/>
<path d="M201.24 139.107L207 130.154L196.361 134.389C194.338 135.194 192.503 136.41 190.972 137.959C188.683 140.277 187.167 143.247 186.633 146.46L186.463 147.486L187.284 147.423C190.827 147.155 194.215 145.857 197.03 143.689C198.685 142.414 200.109 140.864 201.24 139.107Z" fill="#00351F"/>
<path d="M425.756 63.7611L416.797 55.1542L419.364 68.5589C419.84 71.0483 420.822 73.4136 422.248 75.509C424.422 78.7036 427.54 81.1395 431.166 82.4766L432.202 82.8586L432.315 81.8129C432.767 77.663 432.015 73.4708 430.151 69.736C429.038 67.5076 427.552 65.4867 425.756 63.7611Z" fill="#00351F"/>
<path d="M402.756 92.7611L393.797 84.1542L396.364 97.5589C396.84 100.048 397.822 102.414 399.248 104.509C401.422 107.704 404.54 110.14 408.166 111.477L409.202 111.859L409.315 110.813C409.767 106.663 409.015 102.471 407.151 98.736C406.038 96.5076 404.552 94.4867 402.756 92.7611Z" fill="#00351F"/>
<path d="M445.377 12.0319L435.771 4.15388L439.381 17.3161C440.051 19.7605 441.215 22.0416 442.801 24.0186C445.219 27.0329 448.518 29.2169 452.238 30.2655L453.3 30.5652L453.332 29.5138C453.456 25.3412 452.379 21.2209 450.227 17.6438C448.943 15.5095 447.303 13.6113 445.377 12.0319Z" fill="#00351F"/>
<path d="M461.646 86.5013L473.669 83.3747L460.904 78.5434C458.534 77.6462 456.005 77.2442 453.473 77.3623C449.613 77.5424 445.905 78.9234 442.868 81.3125L442 81.9951L442.831 82.6395C446.131 85.1966 450.096 86.7511 454.254 87.1179C456.735 87.3367 459.235 87.1281 461.646 86.5013Z" fill="#00351F"/>
<path d="M473.646 59.1322L485.669 56.0056L472.904 51.1742C470.534 50.277 468.005 49.875 465.473 49.9931C461.613 50.1732 457.905 51.5542 454.868 53.9434L454 54.626L454.831 55.2703C458.131 57.8274 462.096 59.382 466.254 59.7487C468.735 59.9675 471.235 59.759 473.646 59.1322Z" fill="#00351F"/>
<g filter="url(#filter0_d_305_5215)">
<path d="M454.377 -9.9681L444.771 -17.8461L448.381 -4.68391C449.051 -2.23953 450.215 0.0415678 451.801 2.01863C454.219 5.03295 457.518 7.21689 461.238 8.26554L462.3 8.56517L462.332 7.51376C462.456 3.34125 461.379 -0.779079 459.227 -4.35623C457.943 -6.49052 456.303 -8.38868 454.377 -9.9681Z" fill="#92FFB0" fill-opacity="0.6"/>
<path d="M444.771 -17.8461L454.377 -9.9681C456.303 -8.38869 457.943 -6.49052 459.227 -4.35623V-4.35623C461.379 -0.779079 462.456 3.34125 462.332 7.51376L462.3 8.56517M444.771 -17.8461L448.381 -4.68391C449.051 -2.23953 450.215 0.0415676 451.801 2.01863V2.01863C454.219 5.03295 457.518 7.2169 461.238 8.26554L462.3 8.56517M444.771 -17.8461L462.3 8.56517" stroke="#047A3A" stroke-opacity="0.6" stroke-width="2"/>
<path d="M439.377 39.0319L429.771 31.1539L433.381 44.3161C434.051 46.7605 435.215 49.0416 436.801 51.0186C439.219 54.0329 442.518 56.2169 446.238 57.2655L447.3 57.5652L447.332 56.5138C447.456 52.3412 446.379 48.2209 444.227 44.6438C442.943 42.5095 441.303 40.6113 439.377 39.0319Z" fill="#92FFB0" fill-opacity="0.6"/>
<path d="M429.771 31.1539L439.377 39.0319C441.303 40.6113 442.943 42.5095 444.227 44.6438V44.6438C446.379 48.2209 447.456 52.3412 447.332 56.5138L447.3 57.5652M429.771 31.1539L433.381 44.3161C434.051 46.7605 435.215 49.0416 436.801 51.0186V51.0186C439.219 54.0329 442.518 56.2169 446.238 57.2655L447.3 57.5652M429.771 31.1539L447.3 57.5652" stroke="#047A3A" stroke-opacity="0.6" stroke-width="2"/>
<path d="M17.4974 -5.29384L30.0888 17.8218C57.7807 68.6593 101.038 109.283 153.512 133.731L155.38 134.601C196.299 153.666 241.438 161.872 286.449 158.43L314.937 156.252C343.078 154.1 370.129 144.454 393.283 128.317V128.317C423.186 107.475 444.97 76.9408 454.946 41.8825L468.37 -5.29384" stroke="#005B2A" stroke-width="2"/>
<path d="M16.8914 6.18704L17.6633 4.79853L19.9652 8.60165C22.2326 12.3477 23.091 16.7792 22.3863 21.101C22.0665 23.0619 21.4316 24.9581 20.506 26.7161L15.3991 36.4165L13.5657 25.5424C13.2462 23.6474 13.1115 21.7259 13.1634 19.805C13.2926 15.0319 14.5715 10.3604 16.8914 6.18704Z" fill="#92FFB0" fill-opacity="0.6"/>
<path d="M17.6633 4.79853L16.8914 6.18704C14.5715 10.3604 13.2926 15.0319 13.1634 19.805V19.805C13.1115 21.7259 13.2462 23.6474 13.5657 25.5424L15.3991 36.4165M17.6633 4.79853L19.9652 8.60165C22.2326 12.3477 23.091 16.7792 22.3863 21.101V21.101C22.0665 23.0619 21.4316 24.9581 20.506 26.7161L15.3991 36.4165M17.6633 4.79853L15.3991 36.4165" stroke="#047A3A" stroke-opacity="0.6" stroke-width="2"/>
<path d="M33.0959 32.4221L34.0387 31.1435L35.8361 35.2094C37.6066 39.2144 37.892 43.7192 36.6411 47.9156C36.0736 49.8196 35.2017 51.6192 34.0592 53.2447L27.7554 62.2135L27.3256 51.1942C27.2507 49.274 27.3625 47.351 27.6593 45.4524C28.397 40.7349 30.2619 36.265 33.0959 32.4221Z" fill="#92FFB0" fill-opacity="0.6"/>
<path d="M34.0387 31.1435L33.0958 32.4221C30.2619 36.265 28.397 40.7349 27.6593 45.4524V45.4524C27.3625 47.351 27.2507 49.274 27.3256 51.1942L27.7554 62.2135M34.0387 31.1435L35.8361 35.2094C37.6066 39.2144 37.892 43.7192 36.6411 47.9156V47.9156C36.0736 49.8196 35.2017 51.6192 34.0592 53.2447L27.7554 62.2135M34.0387 31.1435L27.7554 62.2135" stroke="#047A3A" stroke-opacity="0.6" stroke-width="2"/>
<path d="M50.7864 58.5523L51.5404 57.154L53.8909 60.9272C56.2062 64.6439 57.1213 69.064 56.4721 73.3945C56.1776 75.3593 55.567 77.2635 54.6641 79.0333L49.6821 88.7984L47.7093 77.9487C47.3655 76.058 47.2061 74.1384 47.2334 72.2169C47.3013 67.4426 48.5201 62.7551 50.7864 58.5523Z" fill="#92FFB0" fill-opacity="0.6"/>
<path d="M51.5404 57.154L50.7864 58.5523C48.5201 62.7551 47.3013 67.4426 47.2334 72.2169V72.2169C47.2061 74.1384 47.3655 76.058 47.7093 77.9487L49.6821 88.7984M51.5404 57.154L53.8909 60.9272C56.2062 64.6439 57.1213 69.064 56.4721 73.3945V73.3945C56.1776 75.3593 55.567 77.2635 54.6641 79.0333L49.6821 88.7984M51.5404 57.154L49.6821 88.7984" stroke="#047A3A" stroke-opacity="0.6" stroke-width="2"/>
<path d="M154.431 141.647L154.974 140.154L157.846 143.547C160.676 146.889 162.221 151.13 162.206 155.509C162.2 157.495 161.871 159.468 161.234 161.35L157.719 171.734L154.196 161.284C153.582 159.463 153.146 157.587 152.895 155.682C152.27 150.948 152.797 146.133 154.431 141.647Z" fill="#92FFB0" fill-opacity="0.6"/>
<path d="M154.974 140.154L154.431 141.647C152.797 146.133 152.27 150.948 152.895 155.682V155.682C153.146 157.587 153.582 159.463 154.196 161.284L157.719 171.734M154.974 140.154L157.846 143.547C160.676 146.889 162.221 151.13 162.206 155.509V155.509C162.2 157.495 161.871 159.468 161.234 161.35L157.719 171.734M154.974 140.154L157.719 171.734" stroke="#047A3A" stroke-opacity="0.6" stroke-width="2"/>
<path d="M175.786 149.552L176.54 148.154L178.891 151.927C181.206 155.644 182.121 160.064 181.472 164.394C181.178 166.359 180.567 168.264 179.664 170.033L174.682 179.798L172.709 168.949C172.365 167.058 172.206 165.138 172.233 163.217C172.301 158.443 173.52 153.755 175.786 149.552Z" fill="#92FFB0" fill-opacity="0.6"/>
<path d="M176.54 148.154L175.786 149.552C173.52 153.755 172.301 158.443 172.233 163.217V163.217C172.206 165.138 172.365 167.058 172.709 168.949L174.682 179.798M176.54 148.154L178.891 151.927C181.206 155.644 182.121 160.064 181.472 164.394V164.394C181.178 166.359 180.567 168.264 179.664 170.033L174.682 179.798M176.54 148.154L174.682 179.798" stroke="#047A3A" stroke-opacity="0.6" stroke-width="2"/>
<path d="M198.809 155.73L199.009 154.154L202.561 156.827C206.06 159.46 208.506 163.254 209.461 167.527C209.894 169.466 210.01 171.462 209.806 173.439L208.676 184.343L202.927 174.933C201.925 173.293 201.085 171.559 200.418 169.757C198.761 165.279 198.21 160.467 198.809 155.73Z" fill="#92FFB0" fill-opacity="0.6"/>
<path d="M199.009 154.154L198.809 155.73C198.21 160.467 198.761 165.279 200.418 169.757V169.757C201.085 171.559 201.925 173.293 202.927 174.933L208.676 184.343M199.009 154.154L202.561 156.827C206.06 159.46 208.506 163.254 209.461 167.527V167.527C209.894 169.466 210.01 171.462 209.806 173.439L208.676 184.343M199.009 154.154L208.676 184.343" stroke="#047A3A" stroke-opacity="0.6" stroke-width="2"/>
<path d="M69.454 79.6458L70.0009 78.1543L72.8655 81.5537C75.6872 84.9022 77.2233 89.1466 77.1984 93.5254C77.1871 95.5121 76.8543 97.484 76.2131 99.3644L72.6747 109.74L69.1746 99.2828C68.5647 97.4605 68.1332 95.5832 67.8862 93.6775C67.2725 88.9422 67.8103 84.1288 69.454 79.6458Z" fill="#92FFB0" fill-opacity="0.6"/>
<path d="M70.0009 78.1543L69.454 79.6458C67.8103 84.1288 67.2725 88.9422 67.8862 93.6775V93.6775C68.1332 95.5832 68.5647 97.4605 69.1746 99.2828L72.6747 109.74M70.0009 78.1543L72.8655 81.5537C75.6872 84.9022 77.2233 89.1466 77.1984 93.5254V93.5254C77.1871 95.5121 76.8543 97.484 76.2131 99.3644L72.6747 109.74M70.0009 78.1543L72.6747 109.74" stroke="#047A3A" stroke-opacity="0.6" stroke-width="2"/>
<path d="M89.8174 99.6247L90.4178 98.1539L93.1578 101.655C95.8567 105.103 97.2386 109.4 97.0555 113.775C96.9725 115.76 96.5687 117.719 95.86 119.575L91.9492 129.816L88.8291 119.239C88.2854 117.396 87.9219 115.504 87.7439 113.591C87.3016 108.836 88.0129 104.045 89.8174 99.6247Z" fill="#92FFB0" fill-opacity="0.6"/>
<path d="M90.4178 98.1539L89.8174 99.6247C88.0129 104.045 87.3016 108.836 87.7439 113.591V113.591C87.9219 115.504 88.2854 117.396 88.8291 119.239L91.9492 129.816M90.4178 98.1539L93.1578 101.655C95.8567 105.103 97.2386 109.4 97.0555 113.775V113.775C96.9725 115.76 96.5687 117.719 95.86 119.575L91.9492 129.816M90.4178 98.1539L91.9492 129.816" stroke="#047A3A" stroke-opacity="0.6" stroke-width="2"/>
<path d="M464.533 26.9009L463 26.4858L466.138 23.3365C469.228 20.2344 473.323 18.335 477.687 17.9792C479.667 17.8177 481.661 17.9778 483.59 18.4532L494.234 21.0761L484.12 25.472C482.358 26.2381 480.525 26.8312 478.648 27.2429C473.984 28.266 469.142 28.1487 464.533 26.9009Z" fill="#92FFB0" fill-opacity="0.6"/>
<path d="M463 26.4858L464.533 26.9009C469.142 28.1487 473.984 28.266 478.648 27.2429V27.2429C480.525 26.8312 482.358 26.2381 484.12 25.472L494.234 21.0761M463 26.4858L466.138 23.3365C469.228 20.2344 473.323 18.335 477.687 17.9792V17.9792C479.667 17.8177 481.661 17.9778 483.59 18.4532L494.234 21.0761M463 26.4858L494.234 21.0761" stroke="#047A3A" stroke-opacity="0.6" stroke-width="2"/>
<path d="M231.961 165.616L232.583 164.154L235.271 167.695C237.919 171.183 239.237 175.5 238.989 179.872C238.876 181.855 238.444 183.808 237.708 185.653L233.645 195.835L230.682 185.213C230.166 183.362 229.831 181.465 229.681 179.549C229.309 174.789 230.092 170.009 231.961 165.616Z" fill="#92FFB0" fill-opacity="0.6"/>
<path d="M232.583 164.154L231.961 165.616C230.092 170.009 229.309 174.789 229.681 179.549V179.549C229.831 181.465 230.166 183.362 230.682 185.213L233.645 195.835M232.583 164.154L235.271 167.695C237.919 171.183 239.237 175.5 238.989 179.872V179.872C238.876 181.855 238.444 183.808 237.708 185.653L233.645 195.835M232.583 164.154L233.645 195.835" stroke="#047A3A" stroke-opacity="0.6" stroke-width="2"/>
<path d="M255.79 163.724L255.548 162.154L259.699 163.744C263.788 165.31 267.186 168.282 269.282 172.126C270.233 173.87 270.896 175.757 271.244 177.713L273.165 188.506L265.044 181.046C263.629 179.746 262.343 178.312 261.205 176.763C258.378 172.916 256.52 168.443 255.79 163.724Z" fill="#92FFB0" fill-opacity="0.6"/>
<path d="M255.548 162.154L255.79 163.724C256.52 168.443 258.378 172.916 261.205 176.763V176.763C262.343 178.312 263.629 179.746 265.044 181.046L273.165 188.506M255.548 162.154L259.699 163.744C263.788 165.31 267.186 168.282 269.282 172.126V172.126C270.233 173.87 270.896 175.757 271.244 177.713L273.165 188.506M255.548 162.154L273.165 188.506" stroke="#047A3A" stroke-opacity="0.6" stroke-width="2"/>
<path d="M269.742 155.606L269.155 156.388L267.637 152.494C266.328 149.135 266.184 145.434 267.228 141.984C267.736 140.304 268.516 138.719 269.535 137.292L274.632 130.154L274.841 139.741C274.875 141.311 274.765 142.882 274.51 144.432C273.844 148.486 272.208 152.32 269.742 155.606Z" fill="#92FFB0" fill-opacity="0.6"/>
<path d="M269.155 156.388L269.742 155.606C272.208 152.32 273.844 148.486 274.51 144.432V144.432C274.765 142.882 274.875 141.311 274.841 139.741L274.632 130.154M269.155 156.388L267.637 152.494C266.328 149.135 266.184 145.434 267.228 141.984V141.984C267.736 140.304 268.516 138.719 269.535 137.292L274.632 130.154M269.155 156.388L274.632 130.154" stroke="#047A3A" stroke-opacity="0.6" stroke-width="2"/>
<path d="M280.274 164.598L279.61 163.154L284.038 163.545C288.4 163.93 292.482 165.857 295.552 168.98C296.945 170.397 298.099 172.03 298.97 173.815L303.776 183.668L293.921 178.72C292.204 177.858 290.574 176.831 289.055 175.653C285.282 172.728 282.269 168.936 280.274 164.598Z" fill="#92FFB0" fill-opacity="0.6"/>
<path d="M279.61 163.154L280.274 164.598C282.269 168.936 285.282 172.728 289.055 175.653V175.653C290.574 176.831 292.204 177.858 293.921 178.72L303.776 183.668M279.61 163.154L284.038 163.545C288.4 163.93 292.482 165.857 295.552 168.98V168.98C296.945 170.397 298.099 172.03 298.97 173.815L303.776 183.668M279.61 163.154L303.776 183.668" stroke="#047A3A" stroke-opacity="0.6" stroke-width="2"/>
<path d="M332.838 159.451L332 158.102L336.443 157.939C340.819 157.779 345.108 159.183 348.543 161.9C350.101 163.132 351.449 164.609 352.536 166.272L358.53 175.451L348.136 171.767C346.325 171.125 344.58 170.309 342.927 169.329C338.818 166.896 335.358 163.508 332.838 159.451Z" fill="#92FFB0" fill-opacity="0.6"/>
<path d="M332 158.102L332.838 159.451C335.358 163.508 338.818 166.896 342.927 169.329V169.329C344.58 170.309 346.325 171.125 348.136 171.767L358.53 175.451M332 158.102L336.443 157.939C340.819 157.779 345.108 159.183 348.543 161.9V161.9C350.101 163.132 351.449 164.609 352.536 166.272L358.53 175.451M332 158.102L358.53 175.451" stroke="#047A3A" stroke-opacity="0.6" stroke-width="2"/>
<path d="M370.589 146.575L369.368 145.559L373.533 144.004C377.635 142.473 382.149 142.453 386.265 143.949C388.132 144.628 389.877 145.604 391.432 146.841L400.014 153.662L388.989 153.442C387.067 153.403 385.154 153.178 383.277 152.77C378.611 151.756 374.258 149.631 370.589 146.575Z" fill="#92FFB0" fill-opacity="0.6"/>
<path d="M369.368 145.559L370.589 146.575C374.258 149.631 378.611 151.756 383.277 152.77V152.77C385.154 153.178 387.067 153.403 388.989 153.442L400.014 153.662M369.368 145.559L373.533 144.004C377.635 142.473 382.149 142.453 386.265 143.949V143.949C388.132 144.628 389.877 145.604 391.432 146.841L400.014 153.662M369.368 145.559L400.014 153.662" stroke="#047A3A" stroke-opacity="0.6" stroke-width="2"/>
<path d="M425.052 106.606L424 105.415L428.353 104.512C432.64 103.621 437.104 104.288 440.945 106.392C442.687 107.346 444.264 108.576 445.613 110.035L453.059 118.081L442.195 116.188C440.302 115.858 438.445 115.345 436.651 114.656C432.193 112.945 428.215 110.183 425.052 106.606Z" fill="#92FFB0" fill-opacity="0.6"/>
<path d="M424 105.415L425.052 106.606C428.215 110.183 432.193 112.945 436.651 114.656V114.656C438.445 115.345 440.302 115.858 442.195 116.188L453.059 118.081M424 105.415L428.353 104.512C432.64 103.621 437.104 104.288 440.945 106.392V106.392C442.687 107.346 444.264 108.576 445.613 110.035L453.059 118.081M424 105.415L453.059 118.081" stroke="#047A3A" stroke-opacity="0.6" stroke-width="2"/>
<path d="M402.897 129.554L402 128.243L406.431 127.884C410.795 127.53 415.143 128.744 418.694 131.306C420.305 132.469 421.717 133.885 422.876 135.499L429.27 144.403L418.723 141.182C416.885 140.621 415.106 139.882 413.411 138.977C409.199 136.727 405.593 133.495 402.897 129.554Z" fill="#92FFB0" fill-opacity="0.6"/>
<path d="M402 128.243L402.897 129.554C405.593 133.495 409.199 136.727 413.411 138.977V138.977C415.106 139.882 416.885 140.621 418.723 141.182L429.27 144.403M402 128.243L406.431 127.884C410.795 127.53 415.143 128.744 418.694 131.306V131.306C420.305 132.469 421.717 133.885 422.876 135.499L429.27 144.403M402 128.243L429.27 144.403" stroke="#047A3A" stroke-opacity="0.6" stroke-width="2"/>
<path d="M43.4772 2.41367L55.6018 -0.292844L43.0132 -5.56522C40.6753 -6.54436 38.1616 -7.03406 35.6272 -7.00409C31.763 -6.95841 28.0097 -5.70719 24.891 -3.42514L24 -2.77311L24.8085 -2.10024C28.017 0.570075 31.9257 2.26159 36.0686 2.77275C38.5405 3.07773 41.0464 2.95628 43.4772 2.41367Z" fill="#92FFB0" fill-opacity="0.6"/>
<path d="M55.6018 -0.292844L43.4772 2.41367C41.0464 2.95628 38.5405 3.07774 36.0686 2.77275V2.77275C31.9257 2.26159 28.017 0.570075 24.8085 -2.10024L24 -2.77311M55.6018 -0.292844L43.0132 -5.56522C40.6753 -6.54436 38.1616 -7.03406 35.6272 -7.00409V-7.00409C31.763 -6.95841 28.0097 -5.70719 24.891 -3.42514L24 -2.77311M55.6018 -0.292844L24 -2.77311" stroke="#047A3A" stroke-opacity="0.6" stroke-width="2"/>
<path d="M52.829 17.3725L63.9588 11.8534L50.4762 9.73428C47.9723 9.34073 45.4143 9.46444 42.9601 10.0978C39.2183 11.0634 35.8715 13.1733 33.3868 16.1331L32.6769 16.9788L33.6225 17.4395C37.3752 19.2678 41.5744 19.9787 45.7197 19.4875C48.193 19.1943 50.5977 18.4789 52.829 17.3725Z" fill="#92FFB0" fill-opacity="0.6"/>
<path d="M63.9588 11.8534L52.829 17.3725C50.5977 18.4789 48.193 19.1943 45.7197 19.4875V19.4875C41.5744 19.9787 37.3752 19.2678 33.6225 17.4395L32.6769 16.9788M63.9588 11.8534L50.4762 9.73428C47.9723 9.34073 45.4143 9.46444 42.9601 10.0978V10.0978C39.2183 11.0634 35.8715 13.1733 33.3868 16.1331L32.6769 16.9788M63.9588 11.8534L32.6769 16.9788" stroke="#047A3A" stroke-opacity="0.6" stroke-width="2"/>
<path d="M67.1019 40.6335L78.5117 35.7193L65.1621 32.8801C62.6829 32.3528 60.122 32.3392 57.6374 32.84C53.8492 33.6035 50.394 35.5309 47.7542 38.3532L46.9999 39.1595L47.9195 39.6703C51.5686 41.6973 55.7237 42.6324 59.8894 42.3641C62.3749 42.2041 64.8144 41.6187 67.1019 40.6335Z" fill="#92FFB0" fill-opacity="0.6"/>
<path d="M78.5117 35.7193L67.1019 40.6335C64.8144 41.6187 62.3749 42.2041 59.8894 42.3641V42.3641C55.7237 42.6324 51.5686 41.6973 47.9195 39.6703L46.9999 39.1595M78.5117 35.7193L65.1621 32.8801C62.6829 32.3528 60.122 32.3392 57.6374 32.84V32.84C53.8492 33.6035 50.394 35.5309 47.7542 38.3532L46.9999 39.1595M78.5117 35.7193L46.9999 39.1595" stroke="#047A3A" stroke-opacity="0.6" stroke-width="2"/>
<path d="M101.314 86.8745L113.531 84.6235L101.149 78.8838C98.8491 77.8179 96.3555 77.2345 93.8217 77.1696C89.9586 77.0707 86.161 78.1806 82.9592 80.3444L82.0444 80.9626L82.8271 81.6653C85.9335 84.4537 89.7761 86.2903 93.8971 86.9561C96.3558 87.3534 98.8644 87.3257 101.314 86.8745Z" fill="#92FFB0" fill-opacity="0.6"/>
<path d="M113.531 84.6235L101.314 86.8745C98.8644 87.3257 96.3558 87.3534 93.8971 86.9561V86.9561C89.7761 86.2903 85.9335 84.4537 82.8271 81.6653L82.0444 80.9626M113.531 84.6235L101.149 78.8838C98.8491 77.8179 96.3555 77.2345 93.8217 77.1696V77.1696C89.9586 77.0707 86.161 78.1806 82.9592 80.3444L82.0444 80.9626M113.531 84.6235L82.0444 80.9626" stroke="#047A3A" stroke-opacity="0.6" stroke-width="2"/>
<path d="M84.1242 61.441L95.449 56.3341L82.0533 53.7216C79.5655 53.2364 77.0047 53.2662 74.5289 53.809C70.7542 54.6366 67.3322 56.6224 64.7406 59.4889L64.0001 60.308L64.9282 60.8031C68.6112 62.768 72.7815 63.6325 76.9421 63.2936C79.4245 63.0915 81.8538 62.4648 84.1242 61.441Z" fill="#92FFB0" fill-opacity="0.6"/>
<path d="M95.449 56.3341L84.1242 61.441C81.8538 62.4648 79.4245 63.0915 76.9421 63.2936V63.2936C72.7815 63.6325 68.6112 62.768 64.9282 60.8031L64.0001 60.308M95.449 56.3341L82.0533 53.7216C79.5655 53.2364 77.0047 53.2662 74.5289 53.809V53.809C70.7542 54.6366 67.3322 56.6224 64.7406 59.4889L64.0001 60.308M95.449 56.3341L64.0001 60.308" stroke="#047A3A" stroke-opacity="0.6" stroke-width="2"/>
<path d="M153.155 119.853L164.215 114.194L150.706 112.245C148.198 111.883 145.642 112.039 143.196 112.703C139.466 113.716 136.146 115.868 133.699 118.859L133 119.713L133.951 120.162C137.727 121.943 141.934 122.601 146.073 122.057C148.543 121.733 150.938 120.987 153.155 119.853Z" fill="#92FFB0" fill-opacity="0.6"/>
<path d="M164.215 114.194L153.155 119.853C150.938 120.987 148.543 121.733 146.073 122.057V122.057C141.934 122.601 137.727 121.943 133.951 120.162L133 119.713M164.215 114.194L150.706 112.245C148.198 111.883 145.642 112.039 143.196 112.703V112.703C139.466 113.716 136.146 115.868 133.699 118.859L133 119.713M164.215 114.194L133 119.713" stroke="#047A3A" stroke-opacity="0.6" stroke-width="2"/>
<path d="M126.112 103.552L137.486 98.5551L124.116 95.8129C121.633 95.3036 119.072 95.3085 116.591 95.8273C112.809 96.6183 109.368 98.5708 106.749 101.412L106 102.224L106.923 102.728C110.587 104.728 114.749 105.633 118.913 105.335C121.397 105.157 123.832 104.554 126.112 103.552Z" fill="#92FFB0" fill-opacity="0.6"/>
<path d="M137.486 98.5551L126.112 103.552C123.832 104.554 121.397 105.157 118.913 105.335V105.335C114.749 105.633 110.587 104.728 106.923 102.728L106 102.224M137.486 98.5551L124.116 95.8129C121.633 95.3036 119.072 95.3085 116.591 95.8273V95.8273C112.809 96.6183 109.368 98.5708 106.749 101.412L106 102.224M137.486 98.5551L106 102.224" stroke="#047A3A" stroke-opacity="0.6" stroke-width="2"/>
<path d="M203.24 136.107L209 127.154L198.361 131.389C196.338 132.194 194.503 133.41 192.972 134.959C190.683 137.277 189.167 140.247 188.633 143.46L188.463 144.486L189.284 144.423C192.827 144.155 196.215 142.857 199.03 140.689C200.685 139.414 202.109 137.864 203.24 136.107Z" fill="#92FFB0" fill-opacity="0.6"/>
<path d="M209 127.154L203.24 136.107C202.109 137.864 200.685 139.414 199.03 140.689V140.689C196.215 142.857 192.827 144.155 189.284 144.423L188.463 144.486M209 127.154L198.361 131.389C196.338 132.194 194.503 133.41 192.972 134.959V134.959C190.683 137.277 189.167 140.247 188.633 143.46L188.463 144.486M209 127.154L188.463 144.486" stroke="#047A3A" stroke-opacity="0.6" stroke-width="2"/>
<path d="M427.756 60.7611L418.797 52.1542L421.364 65.5589C421.84 68.0483 422.822 70.4136 424.248 72.509C426.422 75.7036 429.54 78.1395 433.166 79.4766L434.202 79.8586L434.315 78.8129C434.767 74.663 434.015 70.4708 432.151 66.736C431.038 64.5076 429.552 62.4867 427.756 60.7611Z" fill="#92FFB0" fill-opacity="0.6"/>
<path d="M418.797 52.1542L427.756 60.7611C429.552 62.4867 431.038 64.5076 432.151 66.736V66.736C434.015 70.4708 434.767 74.663 434.315 78.8129L434.202 79.8586M418.797 52.1542L421.364 65.5589C421.84 68.0483 422.822 70.4136 424.248 72.509V72.509C426.422 75.7036 429.54 78.1395 433.166 79.4766L434.202 79.8586M418.797 52.1542L434.202 79.8586" stroke="#047A3A" stroke-opacity="0.6" stroke-width="2"/>
<path d="M404.756 89.7611L395.797 81.1542L398.364 94.5589C398.84 97.0483 399.822 99.4136 401.248 101.509C403.422 104.704 406.54 107.14 410.166 108.477L411.202 108.859L411.315 107.813C411.767 103.663 411.015 99.4708 409.151 95.736C408.038 93.5076 406.552 91.4867 404.756 89.7611Z" fill="#92FFB0" fill-opacity="0.6"/>
<path d="M395.797 81.1542L404.756 89.7611C406.552 91.4867 408.038 93.5076 409.151 95.736V95.736C411.015 99.4708 411.767 103.663 411.315 107.813L411.202 108.859M395.797 81.1542L398.364 94.5589C398.84 97.0483 399.822 99.4136 401.248 101.509V101.509C403.422 104.704 406.54 107.14 410.166 108.477L411.202 108.859M395.797 81.1542L411.202 108.859" stroke="#047A3A" stroke-opacity="0.6" stroke-width="2"/>
<path d="M447.377 9.0319L437.771 1.15388L441.381 14.3161C442.051 16.7605 443.215 19.0416 444.801 21.0186C447.219 24.0329 450.518 26.2169 454.238 27.2655L455.3 27.5652L455.332 26.5138C455.456 22.3412 454.379 18.2209 452.227 14.6438C450.943 12.5095 449.303 10.6113 447.377 9.0319Z" fill="#92FFB0" fill-opacity="0.6"/>
<path d="M437.771 1.15388L447.377 9.0319C449.303 10.6113 450.943 12.5095 452.227 14.6438V14.6438C454.379 18.2209 455.456 22.3412 455.332 26.5138L455.3 27.5652M437.771 1.15388L441.381 14.3161C442.051 16.7605 443.215 19.0416 444.801 21.0186V21.0186C447.219 24.0329 450.518 26.2169 454.238 27.2655L455.3 27.5652M437.771 1.15388L455.3 27.5652" stroke="#047A3A" stroke-opacity="0.6" stroke-width="2"/>
<path d="M463.646 83.5013L475.669 80.3747L462.904 75.5434C460.534 74.6462 458.005 74.2442 455.473 74.3623C451.613 74.5424 447.905 75.9234 444.868 78.3125L444 78.9951L444.831 79.6395C448.131 82.1966 452.096 83.7511 456.254 84.1179C458.735 84.3367 461.235 84.1281 463.646 83.5013Z" fill="#92FFB0" fill-opacity="0.6"/>
<path d="M475.669 80.3747L463.646 83.5013C461.235 84.1281 458.735 84.3367 456.254 84.1179V84.1179C452.096 83.7511 448.131 82.1966 444.831 79.6395L444 78.9951M475.669 80.3747L462.904 75.5434C460.534 74.6462 458.005 74.2442 455.473 74.3623V74.3623C451.613 74.5424 447.905 75.9234 444.868 78.3125L444 78.9951M475.669 80.3747L444 78.9951" stroke="#047A3A" stroke-opacity="0.6" stroke-width="2"/>
<path d="M475.646 56.1322L487.669 53.0056L474.904 48.1742C472.534 47.277 470.005 46.875 467.473 46.9931C463.613 47.1732 459.905 48.5542 456.868 50.9434L456 51.626L456.831 52.2703C460.131 54.8274 464.096 56.382 468.254 56.7487C470.735 56.9675 473.235 56.759 475.646 56.1322Z" fill="#92FFB0" fill-opacity="0.6"/>
<path d="M487.669 53.0056L475.646 56.1322C473.235 56.759 470.735 56.9675 468.254 56.7487V56.7487C464.096 56.382 460.131 54.8274 456.831 52.2703L456 51.626M487.669 53.0056L474.904 48.1742C472.534 47.277 470.005 46.875 467.473 46.9931V46.9931C463.613 47.1732 459.905 48.5542 456.868 50.9434L456 51.626M487.669 53.0056L456 51.626" stroke="#047A3A" stroke-opacity="0.6" stroke-width="2"/>
</g>
<g filter="url(#filter1_d_305_5215)">
<path d="M319.985 146.41C312.922 148.397 305.256 141.783 299.909 140.681C290.877 138.82 292.799 140.726 282.03 132.242C270.174 122.903 268.149 123.744 265.563 119.553C261.683 113.267 257.836 116.412 255.266 111.69C252.637 106.86 259.162 103.921 267.379 102.805C276.074 101.624 273.056 102.993 278.009 98.7387C283.931 93.6526 298.869 89.4289 303.247 92.7571C306.147 94.9623 304.229 100.621 307.261 108.041C309.098 112.538 309.348 112.83 314.356 122.198C318.747 130.411 332.143 136.137 331.454 139.798C330.764 143.458 325.787 144.778 319.985 146.41Z" fill="#92DEFF" fill-opacity="0.9"/>
<path d="M347.465 133.043C342.249 133.827 335.389 141.917 330.687 138.265C326.154 134.744 319.738 130.232 314.983 124.696C312.481 121.783 306.202 109.064 304.504 101.295C302.868 93.8048 304.13 86.9612 303.654 83.7999C302.706 77.496 313.663 76.5851 314.431 71.0006C315.262 64.9535 314.465 63.3773 314.876 57.9615C315.288 52.5457 319.002 50.1172 325.074 49.2036C332.571 48.0755 329.916 30.3636 337.266 35.6945C343.978 40.562 345.182 45.1066 351.629 58.502C359.993 75.8817 361.208 83.3391 360.599 93.6265C359.603 110.433 352.854 132.232 347.465 133.043Z" fill="#92DEFF" fill-opacity="0.9"/>
<path d="M261.599 112.874C264.247 110.002 269.217 107.038 274.155 105.151C276.617 104.209 279.047 103.546 281.147 103.293C283.267 103.038 284.964 103.212 286.036 103.845C286.719 104.249 287.186 104.878 287.555 105.761C287.93 106.656 288.188 107.766 288.48 109.095C288.503 109.201 288.526 109.308 288.55 109.416C289.116 112.003 289.827 115.253 291.775 118.785C293.862 122.567 294.383 123.314 298.439 129.136C299.103 130.089 299.862 131.178 300.738 132.438C303.546 136.48 308.099 139.129 312.09 141.229C312.639 141.518 313.177 141.796 313.698 142.066C315.088 142.785 316.363 143.444 317.439 144.094C318.938 144.999 319.923 145.816 320.306 146.63C320.482 147.006 320.5 147.348 320.402 147.677C320.301 148.019 320.064 148.382 319.673 148.758C318.884 149.516 317.567 150.235 315.922 150.871C312.646 152.137 308.265 153.002 304.81 153.271C299.567 153.678 296.517 153.256 293.199 152.797C291.792 152.603 290.336 152.401 288.644 152.254C286.824 152.095 285.429 152.03 284.291 151.977C283.946 151.961 283.624 151.946 283.321 151.929C282.019 151.86 281.077 151.769 280.064 151.486C278.014 150.913 275.628 149.547 269.598 145.842C263.549 142.125 259.843 140.331 257.311 139.105C257.067 138.987 256.834 138.874 256.61 138.765C254.093 137.538 252.898 136.86 251.398 134.964C250.184 133.43 249.028 132.495 247.914 131.894C246.803 131.295 245.76 131.042 244.81 130.844C244.687 130.819 244.566 130.794 244.447 130.77C243.635 130.604 242.921 130.458 242.23 130.148C241.461 129.802 240.71 129.245 239.962 128.185C239.214 127.127 239.048 126.173 239.268 125.303C239.494 124.41 240.147 123.524 241.203 122.666C243.321 120.948 246.88 119.494 250.987 118.44C252.908 117.946 254.261 117.648 255.259 117.428C255.392 117.398 255.518 117.371 255.638 117.344C256.647 117.12 257.308 116.964 257.838 116.703C258.394 116.429 258.782 116.055 259.294 115.481C259.461 115.293 259.641 115.085 259.846 114.847C260.28 114.344 260.827 113.712 261.599 112.874Z" fill="#08B2EC" fill-opacity="0.8" stroke="black"/>
<path d="M303.514 56.8181C305.616 56.2462 306.812 54.5768 307.57 52.6287C308.239 50.9089 308.602 48.8805 308.935 47.0214C308.977 46.7847 309.019 46.5507 309.061 46.3204C309.249 45.2888 309.438 44.3309 309.677 43.5035C309.918 42.6708 310.198 42.0131 310.547 41.5587C310.883 41.1207 311.271 40.884 311.766 40.8445C312.287 40.8029 313 40.9744 313.976 41.522L314.219 41.0895L313.976 41.522C315.749 42.5164 318.208 44.8946 320.972 48.1405C323.721 51.3691 326.729 55.4043 329.601 59.6538C335.359 68.1727 340.516 77.4728 341.972 82.8259C345.856 97.1004 348.061 109.841 345.164 119.871C344.861 120.92 344.559 122.057 344.246 123.238C343.532 125.929 342.758 128.846 341.772 131.46C341.066 133.333 340.263 135.013 339.32 136.306C338.377 137.6 337.322 138.468 336.12 138.795C334.72 139.176 333.299 140.057 331.908 141.065C331.208 141.571 330.503 142.12 329.802 142.665L329.775 142.686C329.081 143.226 328.392 143.762 327.704 144.262C326.304 145.282 324.949 146.123 323.648 146.525C322.366 146.921 321.161 146.886 320.001 146.185C319.177 145.686 318.302 145.169 317.391 144.63C312.683 141.844 307.007 138.486 302.426 134.262C301.739 133.629 300.724 132.397 299.533 130.756C298.348 129.123 297.009 127.112 295.675 124.941C293.004 120.591 290.379 115.635 289.067 111.821C287.803 108.148 287.284 104.544 286.975 101.447C286.886 100.55 286.816 99.7175 286.75 98.9331C286.7 98.3431 286.653 97.7804 286.601 97.2382C286.484 96.0069 286.349 94.9275 286.12 94.0888C285.735 92.6741 286.057 91.4964 286.791 90.4025C287.543 89.2837 288.713 88.2727 290.001 87.2325C290.19 87.08 290.382 86.9268 290.575 86.7727C291.673 85.8947 292.809 84.986 293.712 83.9999C294.78 82.8326 295.582 81.4944 295.615 79.8742C295.68 76.7032 295.458 74.7282 295.193 72.8494C295.155 72.5822 295.116 72.3175 295.078 72.052C294.846 70.4603 294.61 68.8403 294.514 66.4756C294.406 63.8078 295.185 61.8216 296.686 60.2957C298.206 58.7509 300.506 57.6365 303.514 56.8181Z" fill="#08B2EC" fill-opacity="0.8" stroke="black"/>
<path d="M331.643 140.569L331.408 140.206L331.643 140.569C331.711 140.524 331.78 140.48 331.848 140.436C336.712 137.292 340.66 134.74 345.194 133.366C346.443 132.987 347.921 133.021 349.213 133.367C350.523 133.717 351.534 134.355 351.962 135.08C352.173 135.435 352.325 135.975 352.384 136.658C352.442 137.334 352.405 138.117 352.262 138.934C351.976 140.574 351.278 142.287 350.155 143.504C347.03 146.893 342.001 149.652 334.24 152.124C328.93 153.816 324.826 155.089 321.44 155.666C318.198 156.219 315.669 156.122 313.414 155.174C313.421 154.205 314.01 153.089 315.131 151.848C316.344 150.507 318.089 149.119 320.059 147.753C322.024 146.391 324.19 145.066 326.233 143.844C326.712 143.558 327.184 143.277 327.646 143.002C329.147 142.11 330.533 141.286 331.643 140.569Z" fill="#762A00" stroke="black"/>
<path d="M349.985 133.922C349.938 134.052 350.005 134.195 350.135 134.242C350.265 134.289 350.408 134.222 350.455 134.092L349.985 133.922ZM361.643 121.981C361.144 122.523 361.178 123.366 361.719 123.865C362.261 124.365 363.104 124.33 363.603 123.789C364.103 123.248 364.068 122.404 363.527 121.905C362.986 121.406 362.142 121.44 361.643 121.981ZM359.634 126.109C359.771 126.119 359.891 126.016 359.902 125.878C359.912 125.741 359.809 125.621 359.671 125.61L359.634 126.109ZM353.693 130.583C353.831 130.593 353.951 130.49 353.961 130.352C353.971 130.214 353.868 130.094 353.73 130.084L353.693 130.583ZM353.712 130.333L353.73 130.084L353.712 130.333ZM350.455 134.092L351.121 132.248L350.651 132.078L349.985 133.922L350.455 134.092ZM356.665 128.848L357.316 127.462L356.864 127.249L356.212 128.635L356.665 128.848ZM362.635 123.915L362.866 122.943L362.38 122.827L362.148 123.8L362.635 123.915ZM359.634 126.109C361.037 126.214 362.309 125.284 362.635 123.915L362.148 123.8C361.879 124.93 360.829 125.697 359.671 125.61L359.634 126.109ZM357.316 127.462C357.733 126.574 358.655 126.036 359.634 126.109L359.671 125.61C358.486 125.522 357.369 126.174 356.864 127.249L357.316 127.462ZM353.693 130.583C354.948 130.677 356.13 129.986 356.665 128.848L356.212 128.635C355.766 129.586 354.778 130.163 353.73 130.084L353.693 130.583ZM351.121 132.248C351.508 131.179 352.559 130.498 353.693 130.583L353.73 130.084C352.373 129.982 351.114 130.798 350.651 132.078L351.121 132.248Z" fill="black"/>
<path d="M351.802 135.846C351.727 135.957 351.767 136.104 351.89 136.176C352.013 136.248 352.174 136.217 352.249 136.107L351.802 135.846ZM366.214 127.231C365.592 127.627 365.456 128.417 365.91 128.997C366.364 129.577 367.235 129.727 367.856 129.332C368.478 128.937 368.614 128.147 368.16 127.566C367.707 126.986 366.835 126.836 366.214 127.231ZM363.308 130.641C363.447 130.679 363.591 130.608 363.628 130.483C363.666 130.357 363.584 130.223 363.445 130.185L363.308 130.641ZM366.591 129.142L366.354 129.035L366.591 129.142ZM360.448 131.253L360.238 131.105L360.448 131.253ZM356.295 133.536C356.434 133.575 356.578 133.504 356.616 133.378C356.653 133.252 356.571 133.119 356.432 133.08L356.295 133.536ZM359.479 132.415L359.27 132.267L359.479 132.415ZM353.098 134.401L352.874 134.27L353.098 134.401ZM356.363 133.308L356.432 133.08L356.363 133.308ZM352.249 136.107L353.321 134.531L352.874 134.27L351.802 135.846L352.249 136.107ZM359.689 132.563L360.658 131.401L360.238 131.105L359.27 132.267L359.689 132.563ZM366.828 129.25L367.272 128.389L366.798 128.175L366.354 129.035L366.828 129.25ZM363.308 130.641C364.724 131.032 366.211 130.445 366.828 129.25L366.354 129.035C365.844 130.023 364.615 130.509 363.445 130.185L363.308 130.641ZM360.658 131.401C361.268 130.669 362.319 130.367 363.308 130.641L363.445 130.185C362.248 129.854 360.976 130.219 360.238 131.105L360.658 131.401ZM356.295 133.536C357.561 133.886 358.908 133.5 359.689 132.563L359.27 132.267C358.616 133.05 357.49 133.373 356.432 133.08L356.295 133.536ZM353.321 134.531C353.937 133.625 355.15 133.219 356.295 133.536L356.432 133.08C355.062 132.701 353.612 133.186 352.874 134.27L353.321 134.531Z" fill="black"/>
</g>
<defs>
<filter id="filter0_d_305_5215" x="10.1528" y="-20.6118" width="489.194" height="223.567" filterUnits="userSpaceOnUse" color-interpolation-filters="sRGB">
<feFlood flood-opacity="0" result="BackgroundImageFix"/>
<feColorMatrix in="SourceAlpha" type="matrix" values="0 0 0 0 0 0 0 0 0 0 0 0 0 0 0 0 0 0 127 0" result="hardAlpha"/>
<feOffset dy="2"/>
<feGaussianBlur stdDeviation="1"/>
<feComposite in2="hardAlpha" operator="out"/>
<feColorMatrix type="matrix" values="0 0 0 0 0 0 0 0 0 0 0 0 0 0 0 0 0 0 0.15 0"/>
<feBlend mode="normal" in2="BackgroundImageFix" result="effect1_dropShadow_305_5215"/>
<feBlend mode="normal" in="SourceGraphic" in2="effect1_dropShadow_305_5215" result="shape"/>
</filter>
<filter id="filter1_d_305_5215" x="236.678" y="34.6967" width="133.75" height="125.808" filterUnits="userSpaceOnUse" color-interpolation-filters="sRGB">
<feFlood flood-opacity="0" result="BackgroundImageFix"/>
<feColorMatrix in="SourceAlpha" type="matrix" values="0 0 0 0 0 0 0 0 0 0 0 0 0 0 0 0 0 0 127 0" result="hardAlpha"/>
<feOffset dy="2"/>
<feGaussianBlur stdDeviation="1"/>
<feComposite in2="hardAlpha" operator="out"/>
<feColorMatrix type="matrix" values="0 0 0 0 0 0 0 0 0 0 0 0 0 0 0 0 0 0 0.15 0"/>
<feBlend mode="normal" in2="BackgroundImageFix" result="effect1_dropShadow_305_5215"/>
<feBlend mode="normal" in="SourceGraphic" in2="effect1_dropShadow_305_5215" result="shape"/>
</filter>
</defs>
</svg>
