<svg width="457" height="381" viewBox="0 0 457 381" fill="none" xmlns="http://www.w3.org/2000/svg">
<path d="M211.834 40.9609C212.025 39.931 212.121 39.179 212.121 38.7051C212.121 38.222 212.062 37.8483 211.943 37.584C211.834 37.3105 211.647 37.0964 211.383 36.9414C210.927 36.668 210.061 36.5312 208.785 36.5312H206.475V52.3223C206.475 52.8509 206.507 53.2656 206.57 53.5664C206.634 53.8581 206.789 54.0814 207.035 54.2363C207.281 54.3913 207.646 54.5052 208.129 54.5781C208.621 54.651 209.291 54.7285 210.139 54.8105V56H200.158V54.8105C201.771 54.6556 202.724 54.4824 203.016 54.291C203.316 54.0996 203.503 53.8581 203.576 53.5664C203.658 53.2656 203.699 52.8509 203.699 52.3223V36.5312H201.074C199.434 36.5312 198.249 37.3333 197.52 38.9375C197.292 39.4297 197.064 39.9583 196.836 40.5234L196.672 40.9473H195.332L196.863 35.082H214.582L213.146 40.9609H211.834ZM217.918 34.0293L220.406 31.582L222.84 34.0293L220.406 36.5039L217.918 34.0293ZM216.783 54.8652L217.262 54.7969C217.654 54.7422 217.973 54.6875 218.219 54.6328C218.465 54.569 218.656 54.4596 218.793 54.3047C219.03 54.0221 219.148 53.375 219.148 52.3633V43.0938C219.148 42.0547 219.039 41.4303 218.82 41.2207C218.602 41.002 218.337 40.8652 218.027 40.8105C217.717 40.7559 217.303 40.7057 216.783 40.6602V39.4844H224.262V40.6602C223.742 40.7148 223.327 40.7695 223.018 40.8242C222.708 40.8789 222.471 40.9837 222.307 41.1387C222.042 41.3848 221.91 42.0365 221.91 43.0938V52.3633C221.91 53.4023 221.992 54.0176 222.156 54.209C222.32 54.4004 222.521 54.528 222.758 54.5918C223.004 54.6556 223.327 54.7194 223.729 54.7832L224.262 54.8652V56H216.783V54.8652ZM227.092 54.8652C227.502 54.7741 227.826 54.6966 228.062 54.6328C228.309 54.5599 228.491 54.4414 228.609 54.2773C228.81 54.013 228.91 53.3294 228.91 52.2266V41.1523H226.572V39.8945C227.903 39.7031 228.669 39.5072 228.869 39.3066H228.855C229.056 39.0332 229.234 38.4225 229.389 37.4746C229.544 36.5267 229.639 35.8294 229.676 35.3828L231.658 34.5625V39.4844H236.607V41.1523H231.658V52.1855C231.658 53.0332 231.717 53.5755 231.836 53.8125C231.964 54.0404 232.118 54.209 232.301 54.3184C232.483 54.4277 232.729 54.5098 233.039 54.5645C233.54 54.6556 234.456 54.7103 235.787 54.7285V56H227.092V54.8652ZM237.838 54.8652L238.316 54.7969C238.708 54.7422 239.027 54.6875 239.273 54.6328C239.52 54.569 239.711 54.4596 239.848 54.3047C240.085 54.0221 240.203 53.3796 240.203 52.377V35.9297C240.203 34.8906 240.094 34.2708 239.875 34.0703C239.656 33.8607 239.392 33.7285 239.082 33.6738C238.772 33.61 238.357 33.5553 237.838 33.5098V32.3477H242.965V52.377C242.965 53.3249 243.12 53.9492 243.43 54.25C243.658 54.4779 244.204 54.651 245.07 54.7695L245.727 54.8652V56H237.838V54.8652ZM260.602 53.9629C259.353 55.5033 257.48 56.2734 254.982 56.2734C252.576 56.2734 250.694 55.4941 249.336 53.9355C248.033 52.4316 247.381 50.4447 247.381 47.9746C247.381 45.4316 248.105 43.3307 249.555 41.6719C250.995 40.0312 252.84 39.2109 255.092 39.2109C256.814 39.2109 258.159 39.5755 259.125 40.3047C260.046 40.9883 260.506 41.9271 260.506 43.1211C260.506 44.6615 259.758 45.9603 258.264 47.0176C256.523 48.248 253.889 48.877 250.361 48.9043C250.68 52.6322 252.367 54.4961 255.42 54.4961C257.334 54.4961 258.801 54.0586 259.822 53.1836L260.602 53.9629ZM250.32 47.4414C253.565 47.3776 255.762 46.6074 256.91 45.1309C257.329 44.584 257.539 43.9049 257.539 43.0938C257.539 42.0365 257.083 41.3073 256.172 40.9062C255.816 40.7513 255.374 40.6738 254.846 40.6738C254.317 40.6738 253.848 40.7695 253.438 40.9609C253.027 41.1432 252.658 41.3984 252.33 41.7266C252.002 42.0456 251.715 42.4238 251.469 42.8613C251.223 43.2897 251.018 43.7546 250.854 44.2559C250.516 45.2858 250.339 46.3477 250.32 47.4414Z" fill="black"/>
<path d="M163.574 111.554L164.434 111.564C164.763 111.564 165.075 111.557 165.368 111.543L166.142 111.489C166.929 111.439 167.463 111.414 167.742 111.414C170.191 111.414 172.129 112.037 173.554 113.283C175.093 114.622 175.863 116.603 175.863 119.224C175.863 121.952 175.147 124.129 173.715 125.755C172.232 127.431 170.181 128.269 167.56 128.269C166.879 128.269 166.263 128.24 165.712 128.183L164.358 128.043C164.007 128.007 163.746 127.989 163.574 127.989L160.448 128V127.108C160.856 127.051 161.182 126.997 161.426 126.947C161.669 126.89 161.855 126.797 161.984 126.668C162.199 126.46 162.307 125.955 162.307 125.153V114.368C162.307 113.559 162.221 113.076 162.049 112.918C161.877 112.76 161.669 112.66 161.426 112.617C161.182 112.574 160.856 112.535 160.448 112.499V111.554H163.574ZM164.487 125.669C164.487 126.299 165.196 126.725 166.614 126.947C167.037 127.019 167.441 127.055 167.828 127.055C170.729 127.055 172.501 125.497 173.146 122.382C173.353 121.358 173.457 120.215 173.457 118.955C173.457 117.695 173.31 116.663 173.017 115.861C172.723 115.052 172.311 114.4 171.781 113.906C170.786 112.968 169.336 112.499 167.431 112.499C166.213 112.499 165.332 112.707 164.788 113.122C164.588 113.28 164.487 113.48 164.487 113.724V125.669ZM187.755 126.399C186.774 127.61 185.302 128.215 183.34 128.215C181.449 128.215 179.97 127.603 178.903 126.378C177.879 125.196 177.367 123.635 177.367 121.694C177.367 119.696 177.937 118.046 179.075 116.742C180.207 115.453 181.657 114.809 183.426 114.809C184.779 114.809 185.836 115.095 186.595 115.668C187.318 116.205 187.68 116.943 187.68 117.881C187.68 119.091 187.092 120.112 185.918 120.942C184.55 121.909 182.48 122.403 179.709 122.425C179.96 125.354 181.285 126.818 183.684 126.818C185.188 126.818 186.34 126.475 187.143 125.787L187.755 126.399ZM179.677 121.275C182.226 121.225 183.952 120.62 184.854 119.46C185.184 119.03 185.349 118.497 185.349 117.859C185.349 117.029 184.991 116.456 184.274 116.141C183.995 116.019 183.648 115.958 183.232 115.958C182.817 115.958 182.448 116.033 182.126 116.184C181.804 116.327 181.514 116.527 181.256 116.785C180.998 117.036 180.772 117.333 180.579 117.677C180.386 118.013 180.225 118.379 180.096 118.772C179.831 119.582 179.691 120.416 179.677 121.275ZM197.874 118.396C198.146 117.974 198.282 117.594 198.282 117.258C198.282 116.914 198.078 116.613 197.67 116.355C197.269 116.09 196.789 115.958 196.23 115.958C195.672 115.958 195.242 116.008 194.941 116.108C194.641 116.209 194.386 116.348 194.179 116.527C193.771 116.878 193.566 117.347 193.566 117.935C193.566 118.644 194.161 119.299 195.35 119.9C195.693 120.079 195.983 120.223 196.22 120.33C198.032 121.146 199.181 121.752 199.668 122.146C200.155 122.532 200.506 122.905 200.721 123.263C200.943 123.621 201.054 124.065 201.054 124.595C201.054 125.125 200.907 125.622 200.613 126.088C200.32 126.553 199.929 126.947 199.442 127.27C198.454 127.928 197.265 128.258 195.876 128.258C194.58 128.258 193.448 127.993 192.481 127.463C191.422 126.897 190.906 126.177 190.935 125.304C190.949 124.788 191.171 124.326 191.601 123.918C191.987 123.553 192.449 123.309 192.986 123.188L193.459 123.735C193.187 124.072 193.051 124.523 193.051 125.089C193.051 125.583 193.309 126.023 193.824 126.41C194.397 126.847 195.128 127.065 196.016 127.065C196.911 127.065 197.613 126.865 198.121 126.464C198.637 126.063 198.895 125.526 198.895 124.853C198.895 124.065 198.236 123.37 196.918 122.769C196.524 122.59 196.202 122.45 195.951 122.35C195.701 122.242 195.543 122.174 195.479 122.146C195.414 122.117 195.235 122.038 194.941 121.909C194.655 121.773 194.279 121.573 193.813 121.308C193.355 121.043 192.951 120.753 192.6 120.438C191.848 119.771 191.472 119.02 191.472 118.182C191.472 117.143 191.93 116.312 192.847 115.689C193.72 115.102 194.881 114.809 196.327 114.809C197.444 114.809 198.365 115.031 199.088 115.475C199.818 115.919 200.184 116.47 200.184 117.129C200.184 117.544 199.987 117.924 199.593 118.268C199.249 118.561 198.88 118.751 198.486 118.837L197.874 118.396ZM209.143 126.883C210.561 126.883 211.868 126.421 213.063 125.497L213.676 126.088C212.838 127.105 211.674 127.778 210.185 128.107C209.712 128.208 209.239 128.258 208.767 128.258C206.912 128.258 205.437 127.57 204.341 126.195C203.331 124.913 202.826 123.338 202.826 121.469C202.826 119.528 203.338 117.924 204.362 116.656C205.465 115.303 206.948 114.626 208.81 114.626C209.726 114.626 210.611 114.809 211.463 115.174C211.592 115.231 211.685 115.263 211.742 115.271C212.208 115.149 212.483 114.859 212.569 114.4H213.418V118.998H212.526C212.14 116.842 210.954 115.765 208.971 115.765C207.696 115.765 206.74 116.355 206.103 117.537C205.551 118.54 205.275 119.857 205.275 121.49C205.275 124.29 206.124 126.016 207.821 126.668C208.201 126.811 208.641 126.883 209.143 126.883ZM223.752 118.923C224.153 118.536 224.354 117.949 224.354 117.161C224.354 116.774 224.171 116.47 223.806 116.248C223.498 116.069 223.029 115.979 222.398 115.979C221.038 115.979 220.357 116.424 220.357 117.312V125.476C220.357 125.784 220.386 126.038 220.443 126.238C220.508 126.439 220.647 126.6 220.862 126.722C221.235 126.937 222.094 127.065 223.44 127.108V128H216.265V127.119L216.286 127.108C217.131 127.022 217.636 126.904 217.801 126.754C217.973 126.596 218.076 126.417 218.112 126.217C218.155 126.009 218.177 125.733 218.177 125.39V117.945C218.177 117.165 218.098 116.681 217.94 116.495C217.79 116.309 217.604 116.18 217.382 116.108C217.16 116.037 216.866 115.979 216.501 115.937V115.023H218.725C219.605 115.023 220.232 115.006 220.604 114.97C220.977 114.934 221.271 114.909 221.485 114.895C222.13 114.837 222.653 114.809 223.054 114.809C223.462 114.809 223.881 114.841 224.311 114.905C224.74 114.97 225.12 115.081 225.449 115.238C226.173 115.582 226.534 116.116 226.534 116.839C226.534 117.419 226.298 117.96 225.825 118.461C225.381 118.934 224.887 119.245 224.343 119.396L223.752 118.923ZM229.413 110.737L231.368 108.814L233.28 110.737L231.368 112.682L229.413 110.737ZM228.521 127.108L228.897 127.055C229.205 127.012 229.456 126.969 229.649 126.926C229.843 126.876 229.993 126.79 230.101 126.668C230.287 126.446 230.38 125.938 230.38 125.143V117.859C230.38 117.043 230.294 116.552 230.122 116.388C229.95 116.216 229.743 116.108 229.499 116.065C229.256 116.022 228.93 115.983 228.521 115.947V115.023H234.397V115.947C233.989 115.99 233.663 116.033 233.42 116.076C233.176 116.119 232.99 116.201 232.861 116.323C232.654 116.517 232.55 117.029 232.55 117.859V125.143C232.55 125.959 232.614 126.442 232.743 126.593C232.872 126.743 233.03 126.843 233.216 126.894C233.409 126.944 233.663 126.994 233.979 127.044L234.397 127.108V128H228.521V127.108ZM243.034 128.258C241.709 128.258 240.589 127.778 239.672 126.818V131.545C239.672 132.254 239.819 132.698 240.112 132.877C240.32 133.006 240.868 133.11 241.756 133.188V134.08H235.74V133.199L235.762 133.188C236.485 133.124 236.925 133.031 237.083 132.909C237.348 132.694 237.48 132.24 237.48 131.545V117.698C237.48 116.996 237.398 116.563 237.233 116.398C237.076 116.234 236.872 116.123 236.621 116.065C236.378 116.001 236.045 115.951 235.622 115.915V115.023H238.415C238.859 115.023 239.36 115.002 239.919 114.959C241.065 114.859 241.946 114.809 242.562 114.809C243.177 114.809 243.775 114.898 244.355 115.077C244.936 115.249 245.455 115.493 245.913 115.808C246.371 116.116 246.769 116.484 247.105 116.914C247.442 117.337 247.721 117.802 247.943 118.311C248.38 119.299 248.599 120.312 248.599 121.351C248.599 122.382 248.488 123.299 248.266 124.101C248.044 124.896 247.703 125.601 247.245 126.217C246.243 127.577 244.839 128.258 243.034 128.258ZM246.171 121.619C246.171 117.838 244.936 115.947 242.465 115.947C240.811 115.947 239.905 116.406 239.747 117.322C239.697 117.587 239.672 117.867 239.672 118.16V124.068C239.672 124.913 239.983 125.622 240.606 126.195C241.244 126.775 241.964 127.065 242.766 127.065C243.568 127.065 244.176 126.904 244.592 126.582C245.014 126.253 245.34 125.826 245.569 125.304C245.97 124.409 246.171 123.18 246.171 121.619ZM251.273 127.108C251.596 127.037 251.85 126.976 252.036 126.926C252.229 126.868 252.373 126.775 252.466 126.646C252.623 126.439 252.702 125.902 252.702 125.035V116.334H250.865V115.346C251.911 115.195 252.512 115.041 252.67 114.884H252.659C252.817 114.669 252.956 114.189 253.078 113.444C253.2 112.7 253.275 112.152 253.304 111.801L254.861 111.156V115.023H258.75V116.334H254.861V125.003C254.861 125.669 254.908 126.095 255.001 126.281C255.101 126.46 255.223 126.593 255.366 126.679C255.509 126.765 255.703 126.829 255.946 126.872C256.34 126.944 257.06 126.987 258.105 127.001V128H251.273V127.108ZM260.565 110.737L262.521 108.814L264.433 110.737L262.521 112.682L260.565 110.737ZM259.674 127.108L260.05 127.055C260.358 127.012 260.608 126.969 260.802 126.926C260.995 126.876 261.146 126.79 261.253 126.668C261.439 126.446 261.532 125.938 261.532 125.143V117.859C261.532 117.043 261.446 116.552 261.274 116.388C261.103 116.216 260.895 116.108 260.651 116.065C260.408 116.022 260.082 115.983 259.674 115.947V115.023H265.55V115.947C265.142 115.99 264.816 116.033 264.572 116.076C264.329 116.119 264.143 116.201 264.014 116.323C263.806 116.517 263.702 117.029 263.702 117.859V125.143C263.702 125.959 263.767 126.442 263.896 126.593C264.024 126.743 264.182 126.843 264.368 126.894C264.562 126.944 264.816 126.994 265.131 127.044L265.55 127.108V128H259.674V127.108ZM267.365 121.447C267.365 120.889 267.419 120.334 267.526 119.782C267.641 119.231 267.809 118.708 268.031 118.214C268.26 117.72 268.543 117.265 268.88 116.85C269.216 116.434 269.607 116.076 270.051 115.775C271.003 115.131 272.11 114.809 273.37 114.809C275.275 114.809 276.779 115.489 277.882 116.85C278.892 118.096 279.396 119.632 279.396 121.458C279.396 123.299 278.892 124.863 277.882 126.152C276.779 127.556 275.275 128.258 273.37 128.258C271.472 128.258 269.968 127.545 268.858 126.12C267.863 124.831 267.365 123.273 267.365 121.447ZM272.113 126.829C272.479 126.987 272.901 127.065 273.381 127.065C273.868 127.065 274.294 126.99 274.659 126.84C275.024 126.682 275.34 126.467 275.604 126.195C275.869 125.923 276.088 125.608 276.26 125.25C276.439 124.885 276.582 124.494 276.689 124.079C276.883 123.334 276.979 122.6 276.979 121.877C276.979 121.146 276.958 120.559 276.915 120.115C276.872 119.664 276.797 119.238 276.689 118.837C276.582 118.429 276.439 118.049 276.26 117.698C276.088 117.347 275.869 117.043 275.604 116.785C275.032 116.241 274.294 115.969 273.392 115.969C271.694 115.969 270.599 116.943 270.104 118.891C269.911 119.628 269.814 120.484 269.814 121.458C269.814 124.38 270.581 126.17 272.113 126.829ZM286.368 117.258C287.02 115.962 288.187 114.887 289.87 114.035C291.109 114.694 292.062 115.417 292.728 116.205C293.78 117.473 294.418 119.356 294.64 121.855C294.711 122.715 294.747 123.546 294.747 124.348C294.747 125.15 294.761 125.694 294.79 125.98C294.819 126.267 294.88 126.485 294.973 126.636C295.066 126.779 295.202 126.876 295.381 126.926C295.56 126.969 295.739 127.005 295.918 127.033C296.097 127.062 296.222 127.08 296.294 127.087C296.373 127.087 296.451 127.094 296.53 127.108V128H290.654V127.108C291.062 127.058 291.388 127.012 291.632 126.969C291.875 126.919 292.062 126.829 292.19 126.7C292.398 126.493 292.502 125.916 292.502 124.971V123.725C292.502 122.085 292.463 120.95 292.384 120.319C292.305 119.682 292.205 119.159 292.083 118.751C291.968 118.336 291.811 117.945 291.61 117.58C291.216 116.893 290.601 116.216 289.763 115.55C287.5 116.946 286.368 118.837 286.368 121.222V124.863C286.368 125.809 286.436 126.374 286.572 126.561C286.715 126.747 286.891 126.868 287.099 126.926C287.306 126.976 287.589 127.026 287.947 127.076L288.227 127.108V128H282.351V127.119C282.394 127.098 282.447 127.087 282.512 127.087C282.583 127.08 282.709 127.065 282.888 127.044C283.074 127.015 283.264 126.976 283.457 126.926C283.658 126.876 283.812 126.79 283.919 126.668C284.098 126.475 284.188 125.988 284.188 125.207V117.548C284.188 116.896 284.105 116.499 283.94 116.355C283.776 116.205 283.572 116.108 283.328 116.065C283.085 116.015 282.759 115.976 282.351 115.947V115.023H286.368V117.258Z" fill="black"/>
<path d="M96 186.644L98.0411 186.423C128.699 183.107 159.587 182.63 190.311 185L198.774 185.653L224.209 187.393C236.621 188.242 249.088 187.962 261.457 186.556V186.556C274.127 185.116 286.9 184.857 299.609 185.783L319.672 187.244" stroke="#005B2A" stroke-width="2"/>
<path d="M113.465 188.57L112.703 187.196L118.433 187.386C123.604 187.557 128.553 189.496 132.455 192.88C134.307 194.487 135.884 196.386 137.124 198.502L143.542 209.458L131.086 204.295C129.001 203.43 127.002 202.371 125.116 201.131C120.274 197.947 116.277 193.638 113.465 188.57Z" fill="#73DB90"/>
<path d="M112.703 187.196L113.465 188.57C116.277 193.638 120.274 197.947 125.116 201.131V201.131C127.002 202.371 129.001 203.43 131.086 204.295L143.542 209.458M112.703 187.196L118.433 187.386C123.604 187.557 128.553 189.496 132.455 192.88V192.88C134.307 194.487 135.884 196.386 137.124 198.502L143.542 209.458M112.703 187.196L143.542 209.458" stroke="#047A2C" stroke-opacity="0.8" stroke-width="2"/>
<path d="M147.587 188.583L146.825 187.209L152.555 187.399C157.726 187.57 162.675 189.509 166.577 192.893C168.429 194.499 170.006 196.398 171.246 198.515L177.664 209.471L165.208 204.307C163.123 203.443 161.124 202.384 159.238 201.144C154.396 197.96 150.399 193.651 147.587 188.583Z" fill="#73DB90"/>
<path d="M146.825 187.209L147.587 188.583C150.399 193.651 154.396 197.96 159.238 201.144V201.144C161.124 202.384 163.123 203.443 165.208 204.307L177.664 209.471M146.825 187.209L152.555 187.399C157.726 187.57 162.675 189.509 166.577 192.893V192.893C168.429 194.499 170.006 196.398 171.246 198.515L177.664 209.471M146.825 187.209L177.664 209.471" stroke="#047A2C" stroke-opacity="0.8" stroke-width="2"/>
<path d="M181.541 189.122L180.779 187.749L186.509 187.938C191.679 188.109 196.629 190.048 200.53 193.432C202.383 195.039 203.96 196.938 205.2 199.054L211.618 210.011L199.162 204.847C197.076 203.982 195.078 202.923 193.192 201.683C188.349 198.5 184.352 194.19 181.541 189.122Z" fill="#73DB90"/>
<path d="M180.779 187.749L181.541 189.122C184.352 194.19 188.349 198.5 193.192 201.683V201.683C195.078 202.923 197.076 203.982 199.162 204.847L211.618 210.011M180.779 187.749L186.509 187.938C191.679 188.109 196.629 190.048 200.53 193.432V193.432C202.383 195.039 203.96 196.938 205.2 199.054L211.618 210.011M180.779 187.749L211.618 210.011" stroke="#047A2C" stroke-opacity="0.8" stroke-width="2"/>
<path d="M215.514 191.096L214.751 189.722L220.481 189.911C225.652 190.082 230.601 192.022 234.503 195.405C236.356 197.012 237.933 198.911 239.172 201.027L245.59 211.984L233.134 206.82C231.049 205.956 229.05 204.897 227.165 203.657C222.322 200.473 218.325 196.164 215.514 191.096Z" fill="#73DB90"/>
<path d="M214.751 189.722L215.514 191.096C218.325 196.164 222.322 200.473 227.165 203.657V203.657C229.05 204.897 231.049 205.956 233.134 206.82L245.59 211.984M214.751 189.722L220.481 189.911C225.652 190.082 230.601 192.022 234.503 195.405V195.405C236.356 197.012 237.933 198.911 239.172 201.027L245.59 211.984M214.751 189.722L245.59 211.984" stroke="#047A2C" stroke-opacity="0.8" stroke-width="2"/>
<path d="M246.238 192.112L245.476 190.738L251.206 190.928C256.377 191.099 261.326 193.038 265.227 196.421C267.08 198.028 268.657 199.927 269.897 202.044L276.315 213L263.859 207.836C261.774 206.972 259.775 205.913 257.889 204.673C253.047 201.489 249.049 197.18 246.238 192.112Z" fill="#73DB90"/>
<path d="M245.476 190.738L246.238 192.112C249.049 197.18 253.047 201.489 257.889 204.673V204.673C259.775 205.913 261.774 206.972 263.859 207.836L276.315 213M245.476 190.738L251.206 190.928C256.377 191.099 261.326 193.038 265.227 196.421V196.421C267.08 198.028 268.657 199.927 269.897 202.044L276.315 213M245.476 190.738L276.315 213" stroke="#047A2C" stroke-opacity="0.8" stroke-width="2"/>
<path d="M278.878 189.793L278.116 188.419L283.846 188.608C289.017 188.779 293.966 190.719 297.868 194.102C299.72 195.709 301.298 197.608 302.537 199.724L308.955 210.681L296.499 205.517C294.414 204.653 292.415 203.593 290.529 202.354C285.687 199.17 281.69 194.861 278.878 189.793Z" fill="#73DB90"/>
<path d="M278.116 188.419L278.878 189.793C281.69 194.861 285.687 199.17 290.529 202.354V202.354C292.415 203.593 294.414 204.653 296.499 205.517L308.955 210.681M278.116 188.419L283.846 188.608C289.017 188.779 293.966 190.719 297.868 194.102V194.102C299.72 195.709 301.298 197.608 302.537 199.724L308.955 210.681M278.116 188.419L308.955 210.681" stroke="#047A2C" stroke-opacity="0.8" stroke-width="2"/>
<path d="M311.082 191.141L310.32 189.767L316.05 189.957C321.221 190.128 326.17 192.067 330.072 195.451C331.924 197.058 333.502 198.956 334.741 201.073L341.159 212.029L328.703 206.866C326.618 206.001 324.619 204.942 322.733 203.702C317.891 200.518 313.894 196.209 311.082 191.141Z" fill="#73DB90"/>
<path d="M310.32 189.767L311.082 191.141C313.894 196.209 317.891 200.518 322.733 203.702V203.702C324.619 204.942 326.618 206.001 328.703 206.866L341.159 212.029M310.32 189.767L316.05 189.957C321.221 190.128 326.17 192.067 330.072 195.451V195.451C331.924 197.058 333.502 198.956 334.741 201.073L341.159 212.029M310.32 189.767L341.159 212.029" stroke="#047A2C" stroke-opacity="0.8" stroke-width="2"/>
<path d="M112.572 171.963L103.007 182.91L119.339 178.747C122.19 178.02 124.87 176.733 127.222 174.962C130.993 172.123 133.765 168.158 135.132 163.644L135.406 162.74L133.894 162.69C128.933 162.526 124.017 163.731 119.687 166.173C117.005 167.686 114.598 169.644 112.572 171.963Z" fill="#73DB90"/>
<path d="M103.007 182.91L112.572 171.963C114.598 169.644 117.005 167.686 119.687 166.173V166.173C124.017 163.731 128.933 162.526 133.894 162.69L135.406 162.74M103.007 182.91L119.339 178.747C122.19 178.02 124.87 176.733 127.222 174.962V174.962C130.993 172.123 133.765 168.158 135.132 163.644L135.406 162.74M103.007 182.91L135.406 162.74" stroke="#047A2C" stroke-opacity="0.8" stroke-width="2"/>
<path d="M146.456 168.269L136.891 179.216L153.223 175.053C156.074 174.326 158.754 173.039 161.106 171.268C164.877 168.429 167.648 164.464 169.016 159.95L169.29 159.046L167.777 158.996C162.816 158.832 157.901 160.037 153.571 162.479C150.888 163.992 148.482 165.95 146.456 168.269Z" fill="#73DB90"/>
<path d="M136.891 179.216L146.456 168.269C148.482 165.95 150.888 163.992 153.571 162.479V162.479C157.901 160.037 162.816 158.832 167.777 158.996L169.29 159.046M136.891 179.216L153.223 175.053C156.074 174.326 158.754 173.039 161.106 171.268V171.268C164.877 168.429 167.648 164.464 169.016 159.95L169.29 159.046M136.891 179.216L169.29 159.046" stroke="#047A2C" stroke-opacity="0.8" stroke-width="2"/>
<path d="M180.162 169.384L170.597 180.331L186.93 176.167C189.781 175.441 192.46 174.154 194.813 172.383C198.584 169.543 201.355 165.578 202.723 161.065L202.997 160.161L201.484 160.111C196.523 159.947 191.608 161.152 187.277 163.594C184.595 165.106 182.189 167.064 180.162 169.384Z" fill="#73DB90"/>
<path d="M170.597 180.331L180.162 169.384C182.189 167.064 184.595 165.106 187.277 163.594V163.594C191.608 161.152 196.523 159.947 201.484 160.111L202.997 160.161M170.597 180.331L186.93 176.167C189.781 175.441 192.46 174.154 194.813 172.383V172.383C198.584 169.543 201.355 165.578 202.723 161.065L202.997 160.161M170.597 180.331L202.997 160.161" stroke="#047A2C" stroke-opacity="0.8" stroke-width="2"/>
<path d="M209.683 170.643L200.118 181.591L216.451 177.427C219.302 176.7 221.981 175.414 224.334 173.643C228.105 170.803 230.876 166.838 232.244 162.324L232.518 161.42L231.005 161.37C226.044 161.206 221.129 162.411 216.798 164.853C214.116 166.366 211.71 168.324 209.683 170.643Z" fill="#73DB90"/>
<path d="M200.118 181.591L209.683 170.643C211.71 168.324 214.116 166.366 216.798 164.853V164.853C221.129 162.411 226.044 161.206 231.005 161.37L232.518 161.42M200.118 181.591L216.451 177.427C219.302 176.7 221.981 175.414 224.334 173.643V173.643C228.105 170.803 230.876 166.838 232.244 162.324L232.518 161.42M200.118 181.591L232.518 161.42" stroke="#047A2C" stroke-opacity="0.8" stroke-width="2"/>
<path d="M239.471 172.761L229.906 183.709L246.239 179.545C249.09 178.818 251.769 177.532 254.122 175.761C257.893 172.921 260.664 168.956 262.032 164.442L262.306 163.538L260.793 163.488C255.832 163.324 250.917 164.53 246.586 166.972C243.904 168.484 241.498 170.442 239.471 172.761Z" fill="#73DB90"/>
<path d="M229.906 183.709L239.471 172.761C241.498 170.442 243.904 168.484 246.586 166.972V166.972C250.917 164.53 255.832 163.324 260.793 163.488L262.306 163.538M229.906 183.709L246.239 179.545C249.09 178.818 251.769 177.532 254.122 175.761V175.761C257.893 172.921 260.664 168.956 262.032 164.442L262.306 163.538M229.906 183.709L262.306 163.538" stroke="#047A2C" stroke-opacity="0.8" stroke-width="2"/>
<path d="M274.763 171.38L265.198 182.327L281.531 178.163C284.382 177.437 287.061 176.15 289.414 174.379C293.185 171.539 295.956 167.574 297.324 163.06L297.598 162.157L296.085 162.107C291.124 161.942 286.209 163.148 281.878 165.59C279.196 167.102 276.79 169.06 274.763 171.38Z" fill="#73DB90"/>
<path d="M265.198 182.327L274.763 171.38C276.79 169.06 279.196 167.102 281.878 165.59V165.59C286.209 163.148 291.124 161.942 296.085 162.107L297.598 162.157M265.198 182.327L281.531 178.163C284.382 177.437 287.061 176.15 289.414 174.379V174.379C293.185 171.539 295.956 167.574 297.324 163.06L297.598 162.157M265.198 182.327L297.598 162.157" stroke="#047A2C" stroke-opacity="0.8" stroke-width="2"/>
<path d="M310.024 170.847L300.459 181.794L316.791 177.63C319.642 176.904 322.322 175.617 324.674 173.846C328.446 171.006 331.217 167.041 332.585 162.528L332.858 161.624L331.346 161.574C326.385 161.409 321.47 162.615 317.139 165.057C314.457 166.569 312.051 168.527 310.024 170.847Z" fill="#73DB90"/>
<path d="M300.459 181.794L310.024 170.847C312.051 168.527 314.457 166.569 317.139 165.057V165.057C321.47 162.615 326.385 161.409 331.346 161.574L332.858 161.624M300.459 181.794L316.791 177.63C319.642 176.904 322.322 175.617 324.674 173.846V173.846C328.446 171.006 331.217 167.041 332.585 162.528L332.858 161.624M300.459 181.794L332.858 161.624" stroke="#047A2C" stroke-opacity="0.8" stroke-width="2"/>
<path d="M336.378 178.007L323.9 185.954L340.764 186.351C343.744 186.421 346.723 185.905 349.525 184.832C353.974 183.129 357.792 180.097 360.428 176.173L361 175.321L359.606 174.88C354.872 173.381 349.773 173.212 344.878 174.393C341.868 175.119 338.993 176.341 336.378 178.007Z" fill="#73DB90"/>
<path d="M323.9 185.954L336.378 178.007C338.993 176.341 341.868 175.119 344.878 174.393V174.393C349.773 173.212 354.872 173.381 359.606 174.88L361 175.321M323.9 185.954L340.764 186.351C343.744 186.421 346.723 185.905 349.525 184.832V184.832C353.974 183.129 357.792 180.097 360.428 176.173L361 175.321M323.9 185.954L361 175.321" stroke="#047A2C" stroke-opacity="0.8" stroke-width="2"/>
<path d="M201.473 349L229 267.266L256.527 349L201.473 349Z" stroke="#FFD12D" stroke-width="4"/>
<path d="M211.822 349L229 297.913L246.178 349L211.822 349Z" stroke="#FFDE6A" stroke-width="4"/>
<path d="M222.918 349L229 331.059L235.081 349L222.918 349Z" stroke="#FFE999" stroke-width="4"/>
<path d="M256.527 247L229 328.734L201.473 247L256.527 247Z" stroke="#FFD12D" stroke-width="4"/>
<path d="M246.178 247L229 298.087L211.822 247L246.178 247Z" stroke="#FFDE6A" stroke-width="4"/>
<path d="M235.082 247L229 264.941L222.919 247L235.082 247Z" stroke="#FFE999" stroke-width="4"/>
</svg>
