<svg width="150" height="23" viewBox="0 0 150 23" fill="none" xmlns="http://www.w3.org/2000/svg">
<path d="M78.3802 5.76767L79.2051 7.02051L79.2051 7.02051L78.3802 5.76767ZM84.104 5.07876L84.5435 3.64457L84.5435 3.64457L84.104 5.07876ZM76.6689 12.2922L75.2705 11.7496L75.2705 11.7495L76.6689 12.2922ZM77.6872 10.5924L76.5948 9.56442L76.5948 9.56442L77.6872 10.5924ZM79.9246 9.70862L80.1392 8.22405L80.1392 8.22405L79.9246 9.70862ZM82.7107 14.7745L83.8813 15.7124L83.8813 15.7124L82.7107 14.7745ZM78.868 15.7124C78.35 15.0659 78.4542 14.1219 79.1007 13.6039C79.7472 13.0859 80.6912 13.1901 81.2092 13.8366L78.868 15.7124ZM43.9544 2.01228L43.9553 3.51228L43.9544 3.51228L43.9544 2.01228ZM44.0679 2.01222L44.0696 3.51222L44.0687 3.51222L44.0679 2.01222ZM56.2948 2.00166L56.2956 3.50166L56.2956 3.50166L56.2948 2.00166ZM82.7107 20.8228L82.3954 19.3563L82.3954 19.3563L82.7107 20.8228ZM77.5553 4.51484C79.8549 3.0008 82.3092 2.96003 84.5435 3.64457L83.6646 6.51295C82.0828 6.0283 80.5975 6.10372 79.2051 7.02051L77.5553 4.51484ZM75.2705 11.7495C75.57 10.9779 75.9911 10.206 76.5948 9.56442L78.7796 11.6203C78.5161 11.9003 78.2736 12.3033 78.0673 12.8349L75.2705 11.7495ZM76.5948 9.56442C77.6637 8.42847 78.9242 8.04843 80.1392 8.22405L79.71 11.1932C79.5677 11.1726 79.4445 11.1835 79.3228 11.2271C79.1994 11.2712 79.0132 11.3721 78.7796 11.6203L76.5948 9.56442ZM83.8813 15.7124C83.2867 16.4544 82.4293 17.0348 81.3746 17.0348C80.32 17.0348 79.4625 16.4544 78.868 15.7124L81.2092 13.8366C81.3161 13.9699 81.3927 14.022 81.4204 14.0376C81.4426 14.0501 81.4237 14.0348 81.3746 14.0348C81.3256 14.0348 81.3067 14.0501 81.3289 14.0376C81.3566 14.022 81.4332 13.9699 81.5401 13.8366L83.8813 15.7124ZM-8.46178e-07 0.512304L43.9544 0.51228L43.9544 3.51228L8.46178e-07 3.5123L-8.46178e-07 0.512304ZM44.0661 0.512218C44.6796 0.511497 50.4465 0.504818 56.294 0.501656L56.2956 3.50166C50.4491 3.50482 44.683 3.51149 44.0696 3.51222L44.0661 0.512218ZM56.294 0.501656C58.6488 0.500381 60.8313 1.08688 62.8343 1.83421C64.7776 2.55926 66.7675 3.52868 68.4433 4.23896C71.9766 5.73646 74.7245 6.37863 77.5553 4.51484L79.2051 7.02051C75.0002 9.78895 70.9173 8.54583 67.2726 7.00112C65.3596 6.1903 63.6737 5.34939 61.7856 4.64495C59.9572 3.96279 58.1526 3.50065 56.2956 3.50166L56.294 0.501656ZM80.1392 8.22405C81.8045 8.46476 83.2097 9.63233 83.9804 10.9379C84.7468 12.2361 85.1302 14.1536 83.8813 15.7124L81.5401 13.8366C81.7067 13.6286 81.8174 13.1751 81.397 12.463C80.981 11.7583 80.2853 11.2764 79.71 11.1932L80.1392 8.22405ZM43.9536 0.51228L44.067 0.512217L44.0687 3.51222L43.9553 3.51228L43.9536 0.51228ZM83.0259 22.2893C80.0773 22.9232 77.5854 21.4602 76.1603 19.345C74.7514 17.2538 74.2539 14.3694 75.2705 11.7496L78.0673 12.8349C77.4379 14.4569 77.737 16.316 78.6483 17.6687C79.5435 18.9973 80.8955 19.6788 82.3954 19.3563L83.0259 22.2893ZM84.5435 3.64457C89.1206 5.04696 90.8921 9.39751 90.5184 13.3331C90.1458 17.2572 87.6097 21.304 83.0259 22.2893L82.3954 19.3563C85.3854 18.7136 87.2495 16.023 87.5319 13.0495C87.8131 10.0874 86.4945 7.38 83.6646 6.51295L84.5435 3.64457Z" fill="url(#paint0_angular_315_1177)"/>
<path d="M71.6198 5.76767L70.7949 7.02051L70.7949 7.02051L71.6198 5.76767ZM65.896 5.07876L65.4565 3.64457L65.4565 3.64457L65.896 5.07876ZM73.3311 12.2922L74.7295 11.7496L74.7295 11.7495L73.3311 12.2922ZM72.3128 10.5924L73.4052 9.56442L73.4052 9.56442L72.3128 10.5924ZM70.0754 9.70862L69.8608 8.22405L69.8608 8.22405L70.0754 9.70862ZM67.2893 14.7745L66.1187 15.7124L66.1187 15.7124L67.2893 14.7745ZM71.132 15.7124C71.65 15.0659 71.5458 14.1219 70.8993 13.6039C70.2528 13.0859 69.3088 13.1901 68.7908 13.8366L71.132 15.7124ZM106.046 2.01228L106.045 3.51228L106.046 3.51228L106.046 2.01228ZM105.932 2.01222L105.93 3.51222L105.931 3.51222L105.932 2.01222ZM93.7052 2.00166L93.7044 3.50166L93.7044 3.50166L93.7052 2.00166ZM67.2893 20.8228L67.6046 19.3563L67.6046 19.3563L67.2893 20.8228ZM72.4447 4.51484C70.1451 3.0008 67.6908 2.96003 65.4565 3.64457L66.3354 6.51295C67.9172 6.0283 69.4025 6.10372 70.7949 7.02051L72.4447 4.51484ZM74.7295 11.7495C74.43 10.9779 74.0089 10.206 73.4052 9.56442L71.2204 11.6203C71.4839 11.9003 71.7264 12.3033 71.9327 12.8349L74.7295 11.7495ZM73.4052 9.56442C72.3363 8.42847 71.0758 8.04843 69.8608 8.22405L70.29 11.1932C70.4323 11.1726 70.5555 11.1835 70.6772 11.2271C70.8006 11.2712 70.9868 11.3721 71.2204 11.6203L73.4052 9.56442ZM66.1187 15.7124C66.7133 16.4544 67.5707 17.0348 68.6254 17.0348C69.68 17.0348 70.5375 16.4544 71.132 15.7124L68.7908 13.8366C68.6839 13.9699 68.6073 14.022 68.5796 14.0376C68.5574 14.0501 68.5763 14.0348 68.6254 14.0348C68.6744 14.0348 68.6933 14.0501 68.6711 14.0376C68.6434 14.022 68.5668 13.9699 68.4599 13.8366L66.1187 15.7124ZM150 0.512304L106.046 0.51228L106.046 3.51228L150 3.5123L150 0.512304ZM105.934 0.512218C105.32 0.511497 99.5535 0.504818 93.706 0.501656L93.7044 3.50166C99.5509 3.50482 105.317 3.51149 105.93 3.51222L105.934 0.512218ZM93.706 0.501656C91.3512 0.500381 89.1687 1.08688 87.1657 1.83421C85.2224 2.55926 83.2325 3.52868 81.5567 4.23896C78.0234 5.73646 75.2755 6.37863 72.4447 4.51484L70.7949 7.02051C74.9998 9.78895 79.0827 8.54583 82.7274 7.00112C84.6404 6.1903 86.3263 5.34939 88.2144 4.64495C90.0428 3.96279 91.8474 3.50065 93.7044 3.50166L93.706 0.501656ZM69.8608 8.22405C68.1955 8.46476 66.7903 9.63233 66.0196 10.9379C65.2532 12.2361 64.8698 14.1536 66.1187 15.7124L68.4599 13.8366C68.2933 13.6286 68.1826 13.1751 68.603 12.463C69.019 11.7583 69.7147 11.2764 70.29 11.1932L69.8608 8.22405ZM106.046 0.51228L105.933 0.512217L105.931 3.51222L106.045 3.51228L106.046 0.51228ZM66.9741 22.2893C69.9227 22.9232 72.4146 21.4602 73.8397 19.345C75.2486 17.2538 75.7461 14.3694 74.7295 11.7496L71.9327 12.8349C72.5621 14.4569 72.263 16.316 71.3517 17.6687C70.4565 18.9973 69.1045 19.6788 67.6046 19.3563L66.9741 22.2893ZM65.4565 3.64457C60.8794 5.04696 59.1079 9.39751 59.4816 13.3331C59.8542 17.2572 62.3903 21.304 66.9741 22.2893L67.6046 19.3563C64.6146 18.7136 62.7505 16.023 62.4681 13.0495C62.1869 10.0874 63.5055 7.38 66.3354 6.51295L65.4565 3.64457Z" fill="url(#paint1_angular_315_1177)"/>
<defs>
<radialGradient id="paint0_angular_315_1177" cx="0" cy="0" r="1" gradientUnits="userSpaceOnUse" gradientTransform="translate(48.0054 11.5499) rotate(-90) scale(9.42517 48.3535)">
<stop stop-color="#E4C863"/>
<stop offset="0.729167" stop-color="#FFE791"/>
</radialGradient>
<radialGradient id="paint1_angular_315_1177" cx="0" cy="0" r="1" gradientUnits="userSpaceOnUse" gradientTransform="translate(101.995 11.5499) rotate(-90) scale(9.42517 48.3535)">
<stop stop-color="#E4C863"/>
<stop offset="0.729167" stop-color="#FFE791"/>
</radialGradient>
</defs>
</svg>
