<svg width="1512" height="100" viewBox="0 0 1512 100" fill="none" xmlns="http://www.w3.org/2000/svg">
<path d="M1199.74 57.0957L1192.19 6.41405L1196.15 12.3397C1201.7 20.6617 1205.72 30.1309 1208.04 40.3717L1208.37 41.8571C1209.55 47.0441 1210.28 52.4023 1210.56 57.8768L1211.56 77.178C1208.34 77.7923 1205.5 76.1591 1204.6 73.1772L1199.74 57.0957Z" fill="#3BD737"/>
<path d="M1192.19 6.41405L1199.74 57.0957L1204.6 73.1772C1205.5 76.1591 1208.34 77.7923 1211.56 77.178V77.178M1192.19 6.41405L1196.15 12.3397C1201.7 20.6617 1205.72 30.1309 1208.04 40.3717L1208.37 41.8571C1209.55 47.0441 1210.28 52.4023 1210.56 57.8768L1211.56 77.178M1192.19 6.41405L1211.56 77.178" stroke="#00AE1C"/>
<path d="M260.551 56.8076L253 6.12597L256.955 12.0516C262.509 20.3736 266.525 29.8428 268.843 40.0836L269.179 41.5691C270.353 46.756 271.085 52.1142 271.369 57.5887L272.368 76.8899C269.15 77.5042 266.31 75.871 265.409 72.8891L260.551 56.8076Z" fill="#3BD737"/>
<path d="M253 6.12597L260.551 56.8076L265.409 72.8891C266.31 75.871 269.15 77.5042 272.368 76.8899V76.8899M253 6.12597L256.955 12.0516C262.509 20.3736 266.525 29.8428 268.843 40.0836L269.179 41.5691C270.353 46.756 271.085 52.1142 271.369 57.5887L272.368 76.8899M253 6.12597L272.368 76.8899" stroke="#00AE1C"/>
<path d="M879.896 56.8036L872.346 6.12194L876.3 12.0476C881.854 20.3695 885.87 29.8388 888.188 40.0796L888.524 41.565C889.698 46.752 890.431 52.1102 890.714 57.5847L891.713 76.8859C888.496 77.5002 885.655 75.867 884.754 72.8851L879.896 56.8036Z" fill="#3BD737"/>
<path d="M872.346 6.12194L879.896 56.8036L884.754 72.8851C885.655 75.867 888.496 77.5002 891.713 76.8859V76.8859M872.346 6.12194L876.3 12.0476C881.854 20.3695 885.87 29.8388 888.188 40.0796L888.524 41.565C889.698 46.752 890.431 52.1102 890.714 57.5847L891.713 76.8859M872.346 6.12194L891.713 76.8859" stroke="#00AE1C"/>
<path d="M824.234 58.2933L816.683 7.61168L820.638 13.5373C826.192 21.8593 830.208 31.3285 832.526 41.5693L832.862 43.0548C834.036 48.2417 834.769 53.5999 835.052 59.0744L836.051 78.3757C832.834 78.9899 829.993 77.3567 829.092 74.3748L824.234 58.2933Z" fill="#3BD737"/>
<path d="M816.683 7.61168L824.234 58.2933L829.092 74.3748C829.993 77.3567 832.834 78.9899 836.051 78.3757V78.3757M816.683 7.61168L820.638 13.5373C826.192 21.8593 830.208 31.3285 832.526 41.5693L832.862 43.0548C834.036 48.2417 834.769 53.5999 835.052 59.0744L836.051 78.3757M816.683 7.61168L836.051 78.3757" stroke="#00AE1C"/>
<path d="M873.953 56.8069L881.504 6.12523L877.549 12.0509C871.995 20.3728 867.979 29.8421 865.661 40.0829L865.325 41.5683C864.151 46.7553 863.418 52.1135 863.135 57.588L862.136 76.8892C865.353 77.5035 868.194 75.8703 869.095 72.8884L873.953 56.8069Z" fill="#3BD737"/>
<path d="M881.504 6.12523L873.953 56.8069L869.095 72.8884C868.194 75.8703 865.353 77.5035 862.136 76.8892V76.8892M881.504 6.12523L877.549 12.0509C871.995 20.3728 867.979 29.8421 865.661 40.0829L865.325 41.5683C864.151 46.7553 863.418 52.1135 863.135 57.588L862.136 76.8892M881.504 6.12523L862.136 76.8892" stroke="#00AE1C"/>
<path d="M379.489 56.8069L387.04 6.12523L383.085 12.0509C377.531 20.3728 373.515 29.8421 371.197 40.0829L370.861 41.5683C369.687 46.7553 368.955 52.1135 368.671 57.588L367.672 76.8892C370.89 77.5035 373.73 75.8703 374.631 72.8884L379.489 56.8069Z" fill="#3BD737"/>
<path d="M387.04 6.12523L379.489 56.8069L374.631 72.8884C373.73 75.8703 370.89 77.5035 367.672 76.8892V76.8892M387.04 6.12523L383.085 12.0509C377.531 20.3728 373.515 29.8421 371.197 40.0829L370.861 41.5683C369.687 46.7553 368.955 52.1135 368.671 57.588L367.672 76.8892M387.04 6.12523L367.672 76.8892" stroke="#00AE1C"/>
<path d="M1124.57 59.6116L1132.12 8.92992L1128.17 14.8556C1122.61 23.1775 1118.6 32.6467 1116.28 42.8876L1115.94 44.373C1114.77 49.56 1114.04 54.9182 1113.75 60.3927L1112.75 79.6939C1115.97 80.3082 1118.81 78.675 1119.71 75.693L1124.57 59.6116Z" fill="#3BD737"/>
<path d="M1132.12 8.92992L1124.57 59.6116L1119.71 75.693C1118.81 78.675 1115.97 80.3082 1112.75 79.6939V79.6939M1132.12 8.92992L1128.17 14.8556C1122.61 23.1775 1118.6 32.6467 1116.28 42.8876L1115.94 44.373C1114.77 49.5599 1114.04 54.9182 1113.75 60.3927L1112.75 79.6939M1132.12 8.92992L1112.75 79.6939" stroke="#00AE1C"/>
<path d="M630.106 59.6116L637.657 8.92992L633.702 14.8556C628.148 23.1775 624.132 32.6467 621.814 42.8876L621.478 44.373C620.304 49.56 619.572 54.9182 619.288 60.3927L618.29 79.6939C621.507 80.3082 624.347 78.675 625.248 75.693L630.106 59.6116Z" fill="#3BD737"/>
<path d="M637.657 8.92992L630.106 59.6116L625.248 75.693C624.347 78.675 621.507 80.3082 618.29 79.6939V79.6939M637.657 8.92992L633.702 14.8556C628.148 23.1775 624.132 32.6467 621.814 42.8876L621.478 44.373C620.304 49.5599 619.572 54.9182 619.288 60.3927L618.29 79.6939M637.657 8.92992L618.29 79.6939" stroke="#00AE1C"/>
<path d="M855.471 68.4381L863.022 17.7565L859.067 23.6821C853.513 32.0041 849.497 41.4733 847.179 51.7141L846.843 53.1995C845.669 58.3865 844.936 63.7447 844.653 69.2192L843.654 88.5204C846.871 89.1347 849.712 87.5015 850.613 84.5196L855.471 68.4381Z" fill="#3BD737"/>
<path d="M863.022 17.7565L855.471 68.4381L850.613 84.5196C849.712 87.5015 846.871 89.1347 843.654 88.5204V88.5204M863.022 17.7565L859.067 23.6821C853.513 32.0041 849.497 41.4733 847.179 51.7141L846.843 53.1995C845.669 58.3865 844.936 63.7447 844.653 69.2192L843.654 88.5204M863.022 17.7565L843.654 88.5204" stroke="#00AE1C"/>
<path d="M361.007 68.4381L368.557 17.7565L364.603 23.6821C359.048 32.0041 355.033 41.4733 352.715 51.7141L352.379 53.1995C351.205 58.3865 350.472 63.7447 350.189 69.2192L349.19 88.5204C352.407 89.1347 355.248 87.5015 356.149 84.5196L361.007 68.4381Z" fill="#3BD737"/>
<path d="M368.557 17.7565L361.007 68.4381L356.149 84.5196C355.248 87.5015 352.407 89.1347 349.19 88.5204V88.5204M368.557 17.7565L364.603 23.6821C359.048 32.0041 355.033 41.4733 352.715 51.7141L352.379 53.1995C351.205 58.3865 350.472 63.7447 350.189 69.2192L349.19 88.5204M368.557 17.7565L349.19 88.5204" stroke="#00AE1C"/>
<path d="M1106.09 71.2428L1113.64 20.5611L1109.68 26.4868C1104.13 34.8088 1100.11 44.278 1097.8 54.5188L1097.46 56.0042C1096.29 61.1912 1095.55 66.5494 1095.27 72.0239L1094.27 91.3251C1097.49 91.9394 1100.33 90.3062 1101.23 87.3243L1106.09 71.2428Z" fill="#3BD737"/>
<path d="M1113.64 20.5611L1106.09 71.2428L1101.23 87.3243C1100.33 90.3062 1097.49 91.9394 1094.27 91.3251V91.3251M1113.64 20.5611L1109.68 26.4868C1104.13 34.8088 1100.11 44.278 1097.8 54.5188L1097.46 56.0042C1096.29 61.1912 1095.55 66.5494 1095.27 72.0239L1094.27 91.3251M1113.64 20.5611L1094.27 91.3251" stroke="#00AE1C"/>
<path d="M611.624 71.2428L619.175 20.5611L615.22 26.4868C609.666 34.8088 605.65 44.278 603.332 54.5188L602.996 56.0042C601.822 61.1912 601.089 66.5494 600.806 72.0239L599.807 91.3251C603.024 91.9394 605.865 90.3062 606.766 87.3243L611.624 71.2428Z" fill="#3BD737"/>
<path d="M619.175 20.5611L611.624 71.2428L606.766 87.3243C605.865 90.3062 603.024 91.9394 599.807 91.3251V91.3251M619.175 20.5611L615.22 26.4868C609.666 34.8088 605.65 44.278 603.332 54.5188L602.996 56.0042C601.822 61.1912 601.089 66.5494 600.806 72.0239L599.807 91.3251M619.175 20.5611L599.807 91.3251" stroke="#00AE1C"/>
<path d="M837.087 64.9277L844.637 14.2461L840.683 20.1717C835.128 28.4937 831.113 37.9629 828.795 48.2037L828.459 49.6892C827.285 54.8761 826.552 60.2343 826.269 65.7088L825.27 85.0101C828.487 85.6243 831.328 83.9911 832.229 81.0092L837.087 64.9277Z" fill="#3BD737"/>
<path d="M844.637 14.2461L837.087 64.9277L832.229 81.0092C831.328 83.9911 828.487 85.6243 825.27 85.0101V85.0101M844.637 14.2461L840.683 20.1717C835.128 28.4937 831.113 37.9629 828.795 48.2037L828.459 49.6892C827.285 54.8761 826.552 60.2343 826.269 65.7088L825.27 85.0101M844.637 14.2461L825.27 85.0101" stroke="#00AE1C"/>
<path d="M342.622 64.9277L350.173 14.2461L346.218 20.1717C340.664 28.4937 336.648 37.9629 334.33 48.2037L333.994 49.6892C332.82 54.8761 332.087 60.2343 331.804 65.7088L330.805 85.0101C334.022 85.6243 336.863 83.9911 337.764 81.0092L342.622 64.9277Z" fill="#3BD737"/>
<path d="M350.173 14.2461L342.622 64.9277L337.764 81.0092C336.863 83.9911 334.022 85.6243 330.805 85.0101V85.0101M350.173 14.2461L346.218 20.1717C340.664 28.4937 336.648 37.9629 334.33 48.2037L333.994 49.6892C332.82 54.8761 332.087 60.2343 331.804 65.7088L330.805 85.0101M350.173 14.2461L330.805 85.0101" stroke="#00AE1C"/>
<path d="M1087.7 67.7324L1095.25 17.0508L1091.3 22.9764C1085.75 31.2984 1081.73 40.7676 1079.41 51.0084L1079.08 52.4939C1077.9 57.6808 1077.17 63.039 1076.89 68.5135L1075.89 87.8147C1079.1 88.429 1081.94 86.7958 1082.85 83.8139L1087.7 67.7324Z" fill="#3BD737"/>
<path d="M1095.25 17.0508L1087.7 67.7324L1082.85 83.8139C1081.94 86.7958 1079.1 88.429 1075.89 87.8147V87.8147M1095.25 17.0508L1091.3 22.9764C1085.75 31.2984 1081.73 40.7676 1079.41 51.0084L1079.08 52.4939C1077.9 57.6808 1077.17 63.039 1076.89 68.5135L1075.89 87.8147M1095.25 17.0508L1075.89 87.8147" stroke="#00AE1C"/>
<path d="M593.239 67.7324L600.79 17.0508L596.835 22.9764C591.281 31.2984 587.265 40.7676 584.947 51.0084L584.611 52.4939C583.437 57.6808 582.705 63.039 582.421 68.5135L581.422 87.8147C584.64 88.429 587.48 86.7958 588.381 83.8139L593.239 67.7324Z" fill="#3BD737"/>
<path d="M600.79 17.0508L593.239 67.7324L588.381 83.8139C587.48 86.7958 584.64 88.429 581.422 87.8147V87.8147M600.79 17.0508L596.835 22.9764C591.281 31.2984 587.265 40.7676 584.947 51.0084L584.611 52.4939C583.437 57.6808 582.705 63.039 582.421 68.5135L581.422 87.8147M600.79 17.0508L581.422 87.8147" stroke="#00AE1C"/>
<path d="M820.984 60.9617L828.535 10.28L824.58 16.2057C819.026 24.5276 815.01 33.9968 812.692 44.2377L812.356 45.7231C811.182 50.91 810.45 56.2683 810.166 61.7428L809.167 81.044C812.385 81.6583 815.225 80.0251 816.126 77.0431L820.984 60.9617Z" fill="#3BD737"/>
<path d="M828.535 10.28L820.984 60.9617L816.126 77.0431C815.225 80.0251 812.385 81.6583 809.167 81.044V81.044M828.535 10.28L824.58 16.2057C819.026 24.5276 815.01 33.9968 812.692 44.2377L812.356 45.7231C811.182 50.91 810.45 56.2683 810.166 61.7428L809.167 81.044M828.535 10.28L809.167 81.044" stroke="#00AE1C"/>
<path d="M326.521 60.9617L334.071 10.28L330.116 16.2057C324.562 24.5276 320.546 33.9968 318.228 44.2377L317.892 45.7231C316.718 50.91 315.986 56.2683 315.702 61.7428L314.704 81.044C317.921 81.6583 320.761 80.0251 321.662 77.0431L326.521 60.9617Z" fill="#3BD737"/>
<path d="M334.071 10.28L326.521 60.9617L321.662 77.0431C320.761 80.0251 317.921 81.6583 314.704 81.044V81.044M334.071 10.28L330.116 16.2057C324.562 24.5276 320.546 33.9968 318.228 44.2377L317.892 45.7231C316.718 50.91 315.986 56.2683 315.702 61.7428L314.704 81.044M334.071 10.28L314.704 81.044" stroke="#00AE1C"/>
<path d="M1071.6 63.7662L1079.15 13.0846L1075.2 19.0102C1069.64 27.3322 1065.63 36.8014 1063.31 47.0422L1062.97 48.5277C1061.8 53.7146 1061.07 59.0729 1060.78 64.5473L1059.78 83.8486C1063 84.4628 1065.84 82.8296 1066.74 79.8477L1071.6 63.7662Z" fill="#3BD737"/>
<path d="M1079.15 13.0846L1071.6 63.7662L1066.74 79.8477C1065.84 82.8296 1063 84.4628 1059.78 83.8486V83.8486M1079.15 13.0846L1075.2 19.0102C1069.64 27.3322 1065.63 36.8014 1063.31 47.0422L1062.97 48.5277C1061.8 53.7146 1061.07 59.0729 1060.78 64.5473L1059.78 83.8486M1079.15 13.0846L1059.78 83.8486" stroke="#00AE1C"/>
<path d="M577.137 63.7662L584.688 13.0846L580.733 19.0102C575.179 27.3322 571.163 36.8014 568.845 47.0422L568.509 48.5277C567.335 53.7146 566.603 59.0729 566.319 64.5473L565.32 83.8486C568.538 84.4628 571.378 82.8296 572.279 79.8477L577.137 63.7662Z" fill="#3BD737"/>
<path d="M584.688 13.0846L577.137 63.7662L572.279 79.8477C571.378 82.8296 568.538 84.4628 565.32 83.8486V83.8486M584.688 13.0846L580.733 19.0102C575.179 27.3322 571.163 36.8014 568.845 47.0422L568.509 48.5277C567.335 53.7146 566.603 59.0729 566.319 64.5473L565.32 83.8486M584.688 13.0846L565.32 83.8486" stroke="#00AE1C"/>
<path d="M804.725 56.0005L812.287 3.61099L807.938 10.3644C802.64 18.5932 798.82 27.8985 796.623 37.9282L795.994 40.8023C794.889 45.8438 794.2 51.0439 793.933 56.3523L792.904 76.8147C796.115 77.4279 798.945 75.782 799.819 72.793L804.725 56.0005Z" fill="#3BD737"/>
<path d="M812.287 3.61099L804.725 56.0005L799.819 72.793C798.945 75.782 796.115 77.4279 792.904 76.8147V76.8147M812.287 3.61099L807.938 10.3644C802.64 18.5932 798.82 27.8985 796.623 37.9282L795.994 40.8023C794.889 45.8438 794.2 51.0439 793.933 56.3523L792.904 76.8147M812.287 3.61099L792.904 76.8147" stroke="#00AE1C"/>
<path d="M310.273 54.2926L317.823 3.61095L313.868 9.5366C308.314 17.8586 304.298 27.3278 301.98 37.5686L301.644 39.054C300.47 44.241 299.738 49.5992 299.454 55.0737L298.456 74.3749C301.673 74.9892 304.513 73.356 305.414 70.3741L310.273 54.2926Z" fill="#3BD737"/>
<path d="M317.823 3.61095L310.273 54.2926L305.414 70.3741C304.513 73.356 301.673 74.9892 298.456 74.3749V74.3749M317.823 3.61095L313.868 9.53659C308.314 17.8586 304.298 27.3278 301.98 37.5686L301.644 39.054C300.47 44.241 299.738 49.5992 299.454 55.0737L298.456 74.3749M317.823 3.61095L298.456 74.3749" stroke="#00AE1C"/>
<path d="M1055.35 57.0973L1062.9 6.41564L1058.95 12.3413C1053.4 20.6632 1049.38 30.1325 1047.06 40.3733L1046.73 41.8587C1045.55 47.0457 1044.82 52.4039 1044.54 57.8784L1043.54 77.1796C1046.75 77.7939 1049.59 76.1607 1050.5 73.1788L1055.35 57.0973Z" fill="#3BD737"/>
<path d="M1062.9 6.41564L1055.35 57.0973L1050.5 73.1788C1049.59 76.1607 1046.75 77.7939 1043.54 77.1796V77.1796M1062.9 6.41564L1058.95 12.3413C1053.4 20.6632 1049.38 30.1325 1047.06 40.3733L1046.73 41.8587C1045.55 47.0457 1044.82 52.4039 1044.54 57.8784L1043.54 77.1796M1062.9 6.41564L1043.54 77.1796" stroke="#00AE1C"/>
<path d="M560.89 57.0973L568.44 6.41564L564.485 12.3413C558.931 20.6632 554.916 30.1325 552.598 40.3733L552.261 41.8587C551.087 47.0457 550.355 52.4039 550.072 57.8784L549.073 77.1796C552.29 77.7939 555.131 76.1607 556.031 73.1788L560.89 57.0973Z" fill="#3BD737"/>
<path d="M568.44 6.41564L560.89 57.0973L556.031 73.1788C555.131 76.1607 552.29 77.7939 549.073 77.1796V77.1796M568.44 6.41564L564.485 12.3413C558.931 20.6632 554.916 30.1325 552.598 40.3733L552.261 41.8587C551.087 47.0457 550.355 52.4039 550.072 57.8784L549.073 77.1796M568.44 6.41564L549.073 77.1796" stroke="#00AE1C"/>
<path d="M785.487 58.6438L793.038 7.96215L789.083 13.8878C783.529 22.2098 779.513 31.679 777.195 41.9198L776.859 43.4052C775.685 48.5922 774.953 53.9504 774.669 59.4249L773.67 78.7261C776.888 79.3404 779.728 77.7072 780.629 74.7253L785.487 58.6438Z" fill="#3BD737"/>
<path d="M793.038 7.96215L785.487 58.6438L780.629 74.7253C779.728 77.7072 776.888 79.3404 773.67 78.7261V78.7261M793.038 7.96215L789.083 13.8878C783.529 22.2098 779.513 31.679 777.195 41.9198L776.859 43.4052C775.685 48.5922 774.953 53.9504 774.669 59.4249L773.67 78.7261M793.038 7.96215L773.67 78.7261" stroke="#00AE1C"/>
<path d="M291.023 58.6438L298.573 7.96215L294.619 13.8878C289.065 22.2098 285.049 31.679 282.731 41.9198L282.395 43.4052C281.221 48.5922 280.488 53.9504 280.205 59.4249L279.206 78.7261C282.423 79.3404 285.264 77.7072 286.165 74.7253L291.023 58.6438Z" fill="#3BD737"/>
<path d="M298.573 7.96215L291.023 58.6438L286.165 74.7253C285.264 77.7072 282.423 79.3404 279.206 78.7261V78.7261M298.573 7.96215L294.619 13.8878C289.065 22.2098 285.049 31.679 282.731 41.9198L282.395 43.4052C281.221 48.5922 280.488 53.9504 280.205 59.4249L279.206 78.7261M298.573 7.96215L279.206 78.7261" stroke="#00AE1C"/>
<path d="M1036.1 61.4485L1043.65 10.7668L1039.7 16.6925C1034.15 25.0144 1030.13 34.4837 1027.81 44.7245L1027.48 46.2099C1026.3 51.3969 1025.57 56.7551 1025.29 62.2296L1024.29 81.5308C1027.5 82.1451 1030.35 80.5119 1031.25 77.53L1036.1 61.4485Z" fill="#3BD737"/>
<path d="M1043.65 10.7668L1036.1 61.4485L1031.25 77.53C1030.35 80.5119 1027.5 82.1451 1024.29 81.5308V81.5308M1043.65 10.7668L1039.7 16.6925C1034.15 25.0144 1030.13 34.4837 1027.81 44.7245L1027.48 46.2099C1026.3 51.3969 1025.57 56.7551 1025.29 62.2296L1024.29 81.5308M1043.65 10.7668L1024.29 81.5308" stroke="#00AE1C"/>
<path d="M541.64 61.4485L549.191 10.7668L545.236 16.6925C539.682 25.0144 535.666 34.4837 533.348 44.7245L533.012 46.2099C531.838 51.3969 531.105 56.7551 530.822 62.2296L529.823 81.5308C533.04 82.1451 535.881 80.5119 536.782 77.53L541.64 61.4485Z" fill="#3BD737"/>
<path d="M549.191 10.7668L541.64 61.4485L536.782 77.53C535.881 80.5119 533.04 82.1451 529.823 81.5308V81.5308M549.191 10.7668L545.236 16.6925C539.682 25.0144 535.666 34.4837 533.348 44.7245L533.012 46.2099C531.838 51.3969 531.105 56.7551 530.822 62.2296L529.823 81.5308M549.191 10.7668L529.823 81.5308" stroke="#00AE1C"/>
<path d="M766.255 60.3219L773.805 9.64025L769.851 15.5659C764.296 23.8879 760.281 33.3571 757.963 43.5979L757.627 45.0833C756.453 50.2703 755.72 55.6285 755.437 61.103L754.438 80.4042C757.655 81.0185 760.496 79.3853 761.397 76.4034L766.255 60.3219Z" fill="#3BD737"/>
<path d="M773.805 9.64025L766.255 60.3219L761.397 76.4034C760.496 79.3853 757.655 81.0185 754.438 80.4042V80.4042M773.805 9.64025L769.851 15.5659C764.296 23.8879 760.281 33.3571 757.963 43.5979L757.627 45.0833C756.453 50.2703 755.72 55.6285 755.437 61.103L754.438 80.4042M773.805 9.64025L754.438 80.4042" stroke="#00AE1C"/>
<path d="M271.79 60.3219L279.341 9.64025L275.386 15.5659C269.832 23.8879 265.816 33.3571 263.498 43.5979L263.162 45.0833C261.988 50.2703 261.255 55.6285 260.972 61.103L259.973 80.4042C263.19 81.0185 266.031 79.3853 266.932 76.4034L271.79 60.3219Z" fill="#3BD737"/>
<path d="M279.341 9.64025L271.79 60.3219L266.932 76.4034C266.031 79.3853 263.19 81.0185 259.973 80.4042V80.4042M279.341 9.64025L275.386 15.5659C269.832 23.8879 265.816 33.3571 263.498 43.5979L263.162 45.0833C261.988 50.2703 261.255 55.6285 260.972 61.103L259.973 80.4042M279.341 9.64025L259.973 80.4042" stroke="#00AE1C"/>
<path d="M1016.87 63.1267L1024.42 12.4451L1020.47 18.3707C1014.91 26.6927 1010.9 36.1619 1008.58 46.4027L1008.24 47.8881C1007.07 53.0751 1006.34 58.4333 1006.05 63.9078L1005.05 83.209C1008.27 83.8233 1011.11 82.1901 1012.01 79.2082L1016.87 63.1267Z" fill="#3BD737"/>
<path d="M1024.42 12.4451L1016.87 63.1267L1012.01 79.2082C1011.11 82.1901 1008.27 83.8233 1005.05 83.209V83.209M1024.42 12.4451L1020.47 18.3707C1014.91 26.6927 1010.9 36.1619 1008.58 46.4027L1008.24 47.8881C1007.07 53.0751 1006.34 58.4333 1006.05 63.9078L1005.05 83.209M1024.42 12.4451L1005.05 83.209" stroke="#00AE1C"/>
<path d="M522.407 63.1266L529.958 12.4449L526.003 18.3706C520.449 26.6925 516.433 36.1618 514.115 46.4026L513.779 47.888C512.605 53.075 511.873 58.4332 511.589 63.9077L510.59 83.2089C513.808 83.8232 516.648 82.19 517.549 79.2081L522.407 63.1266Z" fill="#3BD737"/>
<path d="M529.958 12.4449L522.407 63.1266L517.549 79.2081C516.648 82.19 513.808 83.8232 510.59 83.2089V83.2089M529.958 12.4449L526.003 18.3706C520.449 26.6925 516.433 36.1618 514.115 46.4026L513.779 47.888C512.605 53.075 511.873 58.4332 511.589 63.9077L510.59 83.2089M529.958 12.4449L510.59 83.2089" stroke="#00AE1C"/>
<path d="M998.82 56.8032L1006.37 6.12157L1002.42 12.0472C996.861 20.3692 992.846 29.8384 990.528 40.0792L990.192 41.5647C989.018 46.7516 988.285 52.1098 988.002 57.5843L987.003 76.8855C990.22 77.4998 993.061 75.8666 993.962 72.8847L998.82 56.8032Z" fill="#3BD737"/>
<path d="M1006.37 6.12157L998.82 56.8032L993.962 72.8847C993.061 75.8666 990.22 77.4998 987.003 76.8855V76.8855M1006.37 6.12157L1002.42 12.0472C996.861 20.3692 992.846 29.8384 990.528 40.0792L990.192 41.5647C989.018 46.7516 988.285 52.1098 988.002 57.5843L987.003 76.8855M1006.37 6.12157L987.003 76.8855" stroke="#00AE1C"/>
<path d="M504.356 56.8032L511.906 6.12157L507.951 12.0472C502.397 20.3692 498.381 29.8384 496.063 40.0792L495.727 41.5647C494.553 46.7516 493.821 52.1098 493.537 57.5843L492.539 76.8855C495.756 77.4998 498.596 75.8666 499.497 72.8847L504.356 56.8032Z" fill="#3BD737"/>
<path d="M511.906 6.12157L504.356 56.8032L499.497 72.8847C498.596 75.8666 495.756 77.4998 492.539 76.8855V76.8855M511.906 6.12157L507.951 12.0472C502.397 20.3692 498.381 29.8384 496.063 40.0792L495.727 41.5647C494.553 46.7516 493.821 52.1098 493.537 57.5843L492.539 76.8855M511.906 6.12157L492.539 76.8855" stroke="#00AE1C"/>
<path d="M1249.45 59.6085L1257 8.92687L1253.05 14.8525C1247.49 23.1745 1243.48 32.6437 1241.16 42.8845L1240.82 44.37C1239.65 49.5569 1238.92 54.9151 1238.63 60.3896L1237.63 79.6908C1240.85 80.3051 1243.69 78.6719 1244.59 75.69L1249.45 59.6085Z" fill="#3BD737"/>
<path d="M1257 8.92687L1249.45 59.6085L1244.59 75.69C1243.69 78.6719 1240.85 80.3051 1237.63 79.6908V79.6908M1257 8.92687L1253.05 14.8525C1247.49 23.1745 1243.48 32.6437 1241.16 42.8845L1240.82 44.37C1239.65 49.5569 1238.92 54.9151 1238.63 60.3896L1237.63 79.6908M1257 8.92687L1237.63 79.6908" stroke="#00AE1C"/>
<path d="M754.986 59.6085L762.537 8.92687L758.582 14.8525C753.028 23.1745 749.012 32.6437 746.694 42.8845L746.358 44.37C745.184 49.5569 744.452 54.9151 744.168 60.3896L743.169 79.6908C746.387 80.3051 749.227 78.6719 750.128 75.69L754.986 59.6085Z" fill="#3BD737"/>
<path d="M762.537 8.92687L754.986 59.6085L750.128 75.69C749.227 78.6719 746.387 80.3051 743.169 79.6908V79.6908M762.537 8.92687L758.582 14.8525C753.028 23.1745 749.012 32.6437 746.694 42.8845L746.358 44.37C745.184 49.5569 744.452 54.9151 744.168 60.3896L743.169 79.6908M762.537 8.92687L743.169 79.6908" stroke="#00AE1C"/>
<path d="M980.338 68.4346L987.888 17.7529L983.934 23.6786C978.379 32.0005 974.364 41.4697 972.046 51.7106L971.71 53.196C970.536 58.3829 969.803 63.7412 969.52 69.2157L968.521 88.5169C971.738 89.1312 974.579 87.498 975.48 84.516L980.338 68.4346Z" fill="#3BD737"/>
<path d="M987.888 17.7529L980.338 68.4346L975.48 84.516C974.579 87.498 971.738 89.1312 968.521 88.5169V88.5169M987.888 17.7529L983.934 23.6786C978.379 32.0005 974.364 41.4697 972.046 51.7106L971.71 53.196C970.536 58.3829 969.803 63.7412 969.52 69.2157L968.521 88.5169M987.888 17.7529L968.521 88.5169" stroke="#00AE1C"/>
<path d="M485.874 68.4346L493.424 17.7529L489.469 23.6786C483.915 32.0005 479.899 41.4697 477.582 51.7106L477.245 53.196C476.071 58.3829 475.339 63.7412 475.056 69.2157L474.057 88.5169C477.274 89.1312 480.114 87.498 481.015 84.516L485.874 68.4346Z" fill="#3BD737"/>
<path d="M493.424 17.7529L485.874 68.4346L481.015 84.516C480.114 87.498 477.274 89.1312 474.057 88.5169V88.5169M493.424 17.7529L489.469 23.6786C483.915 32.0005 479.899 41.4697 477.582 51.7106L477.245 53.196C476.071 58.3829 475.339 63.7412 475.056 69.2157L474.057 88.5169M493.424 17.7529L474.057 88.5169" stroke="#00AE1C"/>
<path d="M1230.97 71.2399L1238.52 20.5582L1234.56 26.4839C1229.01 34.8058 1224.99 44.275 1222.68 54.5159L1222.34 56.0013C1221.17 61.1882 1220.43 66.5465 1220.15 72.021L1219.15 91.3222C1222.37 91.9364 1225.21 90.3033 1226.11 87.3213L1230.97 71.2399Z" fill="#3BD737"/>
<path d="M1238.52 20.5582L1230.97 71.2399L1226.11 87.3213C1225.21 90.3033 1222.37 91.9364 1219.15 91.3222V91.3222M1238.52 20.5582L1234.56 26.4839C1229.01 34.8058 1224.99 44.275 1222.68 54.5159L1222.34 56.0013C1221.17 61.1882 1220.43 66.5465 1220.15 72.021L1219.15 91.3222M1238.52 20.5582L1219.15 91.3222" stroke="#00AE1C"/>
<path d="M736.504 71.2399L744.054 20.5582L740.1 26.4839C734.545 34.8058 730.53 44.275 728.212 54.5159L727.876 56.0013C726.702 61.1882 725.969 66.5465 725.686 72.021L724.687 91.3222C727.904 91.9364 730.745 90.3033 731.646 87.3213L736.504 71.2399Z" fill="#3BD737"/>
<path d="M744.054 20.5582L736.504 71.2399L731.646 87.3213C730.745 90.3033 727.904 91.9364 724.687 91.3222V91.3222M744.054 20.5582L740.1 26.4839C734.545 34.8058 730.53 44.275 728.212 54.5159L727.876 56.0013C726.702 61.1882 725.969 66.5465 725.686 72.021L724.687 91.3222M744.054 20.5582L724.687 91.3222" stroke="#00AE1C"/>
<path d="M961.953 64.9242L969.504 14.2425L965.549 20.1682C959.995 28.4902 955.979 37.9594 953.661 48.2002L953.325 49.6856C952.151 54.8726 951.418 60.2308 951.135 65.7053L950.136 85.0065C953.353 85.6208 956.194 83.9876 957.095 81.0057L961.953 64.9242Z" fill="#3BD737"/>
<path d="M969.504 14.2425L961.953 64.9242L957.095 81.0057C956.194 83.9876 953.353 85.6208 950.136 85.0065V85.0065M969.504 14.2425L965.549 20.1682C959.995 28.4902 955.979 37.9594 953.661 48.2002L953.325 49.6856C952.151 54.8726 951.418 60.2308 951.135 65.7053L950.136 85.0065M969.504 14.2425L950.136 85.0065" stroke="#00AE1C"/>
<path d="M467.489 64.9242L475.039 14.2425L471.084 20.1682C465.53 28.4902 461.515 37.9594 459.197 48.2002L458.861 49.6856C457.687 54.8726 456.954 60.2308 456.671 65.7053L455.672 85.0065C458.889 85.6208 461.73 83.9876 462.63 81.0057L467.489 64.9242Z" fill="#3BD737"/>
<path d="M475.039 14.2425L467.489 64.9242L462.63 81.0057C461.73 83.9876 458.889 85.6208 455.672 85.0065V85.0065M475.039 14.2425L471.084 20.1682C465.53 28.4902 461.515 37.9594 459.197 48.2002L458.861 49.6856C457.687 54.8726 456.954 60.2308 456.671 65.7053L455.672 85.0065M475.039 14.2425L455.672 85.0065" stroke="#00AE1C"/>
<path d="M1212.58 67.7294L1220.13 17.0477L1216.18 22.9734C1210.63 31.2953 1206.61 40.7645 1204.29 51.0054L1203.96 52.4908C1202.78 57.6777 1202.05 63.036 1201.77 68.5105L1200.77 87.8117C1203.98 88.426 1206.82 86.7928 1207.73 83.8108L1212.58 67.7294Z" fill="#3BD737"/>
<path d="M1220.13 17.0477L1212.58 67.7294L1207.73 83.8108C1206.82 86.7928 1203.98 88.426 1200.77 87.8117V87.8117M1220.13 17.0477L1216.18 22.9734C1210.63 31.2953 1206.61 40.7645 1204.29 51.0054L1203.96 52.4908C1202.78 57.6777 1202.05 63.036 1201.77 68.5105L1200.77 87.8117M1220.13 17.0477L1200.77 87.8117" stroke="#00AE1C"/>
<path d="M718.119 67.7294L725.67 17.0477L721.715 22.9734C716.161 31.2953 712.145 40.7645 709.827 51.0054L709.491 52.4908C708.317 57.6777 707.584 63.036 707.301 68.5105L706.302 87.8117C709.519 88.426 712.36 86.7928 713.261 83.8108L718.119 67.7294Z" fill="#3BD737"/>
<path d="M725.67 17.0477L718.119 67.7294L713.261 83.8108C712.36 86.7928 709.519 88.426 706.302 87.8117V87.8117M725.67 17.0477L721.715 22.9734C716.161 31.2953 712.145 40.7645 709.827 51.0054L709.491 52.4908C708.317 57.6777 707.584 63.036 707.301 68.5105L706.302 87.8117M725.67 17.0477L706.302 87.8117" stroke="#00AE1C"/>
<path d="M945.851 60.958L953.401 10.2764L949.446 16.202C943.892 24.524 939.876 33.9932 937.559 44.234L937.222 45.7194C936.048 50.9064 935.316 56.2646 935.033 61.7391L934.034 81.0403C937.251 81.6546 940.091 80.0214 940.992 77.0395L945.851 60.958Z" fill="#3BD737"/>
<path d="M953.401 10.2764L945.851 60.958L940.992 77.0395C940.091 80.0214 937.251 81.6546 934.034 81.0403V81.0403M953.401 10.2764L949.446 16.202C943.892 24.524 939.876 33.9932 937.559 44.234L937.222 45.7194C936.048 50.9064 935.316 56.2646 935.033 61.7391L934.034 81.0403M953.401 10.2764L934.034 81.0403" stroke="#00AE1C"/>
<path d="M451.387 60.958L458.937 10.2764L454.982 16.202C449.428 24.524 445.413 33.9932 443.095 44.234L442.758 45.7194C441.584 50.9064 440.852 56.2646 440.569 61.7391L439.57 81.0403C442.787 81.6546 445.628 80.0214 446.528 77.0395L451.387 60.958Z" fill="#3BD737"/>
<path d="M458.937 10.2764L451.387 60.958L446.528 77.0395C445.628 80.0214 442.787 81.6546 439.57 81.0403V81.0403M458.937 10.2764L454.982 16.202C449.428 24.524 445.413 33.9932 443.095 44.234L442.758 45.7194C441.584 50.9064 440.852 56.2646 440.569 61.7391L439.57 81.0403M458.937 10.2764L439.57 81.0403" stroke="#00AE1C"/>
<path d="M1196.48 63.7633L1204.03 13.0817L1200.08 19.0073C1194.52 27.3293 1190.51 36.7985 1188.19 47.0393L1187.85 48.5247C1186.68 53.7117 1185.95 59.0699 1185.66 64.5444L1184.66 83.8456C1187.88 84.4599 1190.72 82.8267 1191.62 79.8448L1196.48 63.7633Z" fill="#3BD737"/>
<path d="M1204.03 13.0817L1196.48 63.7633L1191.62 79.8448C1190.72 82.8267 1187.88 84.4599 1184.66 83.8456V83.8456M1204.03 13.0817L1200.08 19.0073C1194.52 27.3293 1190.51 36.7985 1188.19 47.0393L1187.85 48.5247C1186.68 53.7117 1185.95 59.0699 1185.66 64.5444L1184.66 83.8456M1204.03 13.0817L1184.66 83.8456" stroke="#00AE1C"/>
<path d="M702.017 63.7633L709.568 13.0817L705.613 19.0073C700.059 27.3293 696.043 36.7985 693.725 47.0393L693.389 48.5247C692.215 53.7117 691.482 59.0699 691.199 64.5444L690.2 83.8456C693.417 84.4599 696.258 82.8267 697.159 79.8448L702.017 63.7633Z" fill="#3BD737"/>
<path d="M709.568 13.0817L702.017 63.7633L697.159 79.8448C696.258 82.8267 693.417 84.4599 690.2 83.8456V83.8456M709.568 13.0817L705.613 19.0073C700.059 27.3293 696.043 36.7985 693.725 47.0393L693.389 48.5247C692.215 53.7117 691.482 59.0699 691.199 64.5444L690.2 83.8456M709.568 13.0817L690.2 83.8456" stroke="#00AE1C"/>
<path d="M929.603 54.2891L937.154 3.60741L933.199 9.53306C927.645 17.855 923.629 27.3242 921.311 37.565L920.975 39.0505C919.801 44.2374 919.068 49.5957 918.785 55.0702L917.786 74.3714C921.003 74.9856 923.844 73.3525 924.745 70.3705L929.603 54.2891Z" fill="#3BD737"/>
<path d="M937.154 3.60741L929.603 54.2891L924.745 70.3705C923.844 73.3525 921.003 74.9856 917.786 74.3714V74.3714M937.154 3.60741L933.199 9.53305C927.645 17.855 923.629 27.3242 921.311 37.565L920.975 39.0505C919.801 44.2374 919.068 49.5957 918.785 55.0702L917.786 74.3714M937.154 3.60741L917.786 74.3714" stroke="#00AE1C"/>
<path d="M435.139 54.2891L442.689 3.60741L438.734 9.53306C433.18 17.855 429.165 27.3242 426.847 37.565L426.51 39.0505C425.336 44.2374 424.604 49.5957 424.321 55.0702L423.322 74.3714C426.539 74.9856 429.38 73.3525 430.28 70.3705L435.139 54.2891Z" fill="#3BD737"/>
<path d="M442.689 3.60741L435.139 54.2891L430.28 70.3705C429.38 73.3525 426.539 74.9856 423.322 74.3714V74.3714M442.689 3.60741L438.734 9.53305C433.18 17.855 429.165 27.3242 426.847 37.565L426.51 39.0505C425.336 44.2374 424.604 49.5957 424.321 55.0702L423.322 74.3714M442.689 3.60741L423.322 74.3714" stroke="#00AE1C"/>
<path d="M1180.23 57.0944L1187.78 6.41271L1183.83 12.3384C1178.27 20.6603 1174.26 30.1295 1171.94 40.3703L1171.61 41.8558C1170.43 47.0427 1169.7 52.401 1169.42 57.8755L1168.42 77.1767C1171.63 77.7909 1174.47 76.1578 1175.38 73.1758L1180.23 57.0944Z" fill="#3BD737"/>
<path d="M1187.78 6.41271L1180.23 57.0944L1175.38 73.1758C1174.47 76.1578 1171.63 77.7909 1168.42 77.1767V77.1767M1187.78 6.41271L1183.83 12.3384C1178.27 20.6603 1174.26 30.1295 1171.94 40.3703L1171.61 41.8558C1170.43 47.0427 1169.7 52.401 1169.42 57.8755L1168.42 77.1767M1187.78 6.41271L1168.42 77.1767" stroke="#00AE1C"/>
<path d="M685.769 57.0944L693.32 6.41271L689.365 12.3384C683.811 20.6603 679.795 30.1295 677.477 40.3703L677.141 41.8558C675.967 47.0427 675.234 52.401 674.951 57.8755L673.952 77.1767C677.169 77.7909 680.01 76.1578 680.911 73.1758L685.769 57.0944Z" fill="#3BD737"/>
<path d="M693.32 6.41271L685.769 57.0944L680.911 73.1758C680.01 76.1578 677.169 77.7909 673.952 77.1767V77.1767M693.32 6.41271L689.365 12.3384C683.811 20.6603 679.795 30.1295 677.477 40.3703L677.141 41.8558C675.967 47.0427 675.234 52.401 674.951 57.8755L673.952 77.1767M693.32 6.41271L673.952 77.1767" stroke="#00AE1C"/>
<path d="M910.354 58.6404L917.904 7.95873L913.949 13.8844C908.395 22.2063 904.379 31.6755 902.061 41.9164L901.725 43.4018C900.551 48.5888 899.819 53.947 899.536 59.4215L898.537 78.7227C901.754 79.337 904.594 77.7038 905.495 74.7219L910.354 58.6404Z" fill="#3BD737"/>
<path d="M917.904 7.95873L910.354 58.6404L905.495 74.7219C904.594 77.7038 901.754 79.337 898.537 78.7227V78.7227M917.904 7.95873L913.949 13.8844C908.395 22.2063 904.379 31.6755 902.061 41.9164L901.725 43.4018C900.551 48.5888 899.819 53.947 899.536 59.4215L898.537 78.7227M917.904 7.95873L898.537 78.7227" stroke="#00AE1C"/>
<path d="M415.89 58.6404L423.44 7.95873L419.485 13.8844C413.931 22.2063 409.916 31.6755 407.598 41.9164L407.261 43.4018C406.087 48.5888 405.355 53.947 405.072 59.4215L404.073 78.7227C407.29 79.337 410.131 77.7038 411.031 74.7219L415.89 58.6404Z" fill="#3BD737"/>
<path d="M423.44 7.95873L415.89 58.6404L411.031 74.7219C410.131 77.7038 407.29 79.337 404.073 78.7227V78.7227M423.44 7.95873L419.485 13.8844C413.931 22.2063 409.916 31.6755 407.598 41.9164L407.261 43.4018C406.087 48.5888 405.355 53.947 405.072 59.4215L404.073 78.7227M423.44 7.95873L404.073 78.7227" stroke="#00AE1C"/>
<path d="M1160.98 61.4457L1168.53 10.764L1164.58 16.6897C1159.03 25.0116 1155.01 34.4808 1152.69 44.7217L1152.36 46.2071C1151.18 51.3941 1150.45 56.7523 1150.17 62.2268L1149.17 81.528C1152.38 82.1423 1155.23 80.5091 1156.13 77.5272L1160.98 61.4457Z" fill="#3BD737"/>
<path d="M1168.53 10.764L1160.98 61.4457L1156.13 77.5272C1155.23 80.5091 1152.38 82.1423 1149.17 81.528V81.528M1168.53 10.764L1164.58 16.6897C1159.03 25.0116 1155.01 34.4808 1152.69 44.7217L1152.36 46.2071C1151.18 51.3941 1150.45 56.7523 1150.17 62.2268L1149.17 81.528M1168.53 10.764L1149.17 81.528" stroke="#00AE1C"/>
<path d="M666.52 61.4457L674.07 10.764L670.115 16.6897C664.561 25.0116 660.545 34.4808 658.228 44.7217L657.891 46.2071C656.717 51.3941 655.985 56.7523 655.702 62.2268L654.703 81.528C657.92 82.1423 660.76 80.5091 661.661 77.5272L666.52 61.4457Z" fill="#3BD737"/>
<path d="M674.07 10.764L666.52 61.4457L661.661 77.5272C660.76 80.5091 657.92 82.1423 654.703 81.528V81.528M674.07 10.764L670.115 16.6897C664.561 25.0116 660.545 34.4808 658.228 44.7217L657.891 46.2071C656.717 51.3941 655.985 56.7523 655.702 62.2268L654.703 81.528M674.07 10.764L654.703 81.528" stroke="#00AE1C"/>
<path d="M891.121 60.3187L898.672 9.63707L894.717 15.5627C889.163 23.8847 885.147 33.3539 882.829 43.5947L882.493 45.0802C881.319 50.2671 880.586 55.6253 880.303 61.0998L879.304 80.401C882.521 81.0153 885.362 79.3821 886.263 76.4002L891.121 60.3187Z" fill="#3BD737"/>
<path d="M898.672 9.63708L891.121 60.3187L886.263 76.4002C885.362 79.3821 882.521 81.0153 879.304 80.401V80.401M898.672 9.63708L894.717 15.5627C889.163 23.8847 885.147 33.3539 882.829 43.5947L882.493 45.0802C881.319 50.2671 880.586 55.6253 880.303 61.0998L879.304 80.401M898.672 9.63708L879.304 80.401" stroke="#00AE1C"/>
<path d="M396.657 60.3187L404.207 9.63707L400.252 15.5627C394.698 23.8847 390.683 33.3539 388.365 43.5947L388.028 45.0802C386.854 50.2671 386.122 55.6253 385.839 61.0998L384.84 80.401C388.057 81.0153 390.898 79.3821 391.798 76.4002L396.657 60.3187Z" fill="#3BD737"/>
<path d="M404.207 9.63708L396.657 60.3187L391.798 76.4002C390.898 79.3821 388.057 81.0153 384.84 80.401V80.401M404.207 9.63708L400.252 15.5627C394.698 23.8847 390.683 33.3539 388.365 43.5947L388.028 45.0802C386.854 50.2671 386.122 55.6253 385.839 61.0998L384.84 80.401M404.207 9.63708L384.84 80.401" stroke="#00AE1C"/>
<path d="M1141.75 63.1239L1149.3 12.4422L1145.35 18.3679C1139.79 26.6899 1135.78 36.1591 1133.46 46.3999L1133.12 47.8853C1131.95 53.0723 1131.22 58.4305 1130.93 63.905L1129.94 83.2062C1133.15 83.8205 1135.99 82.1873 1136.89 79.2054L1141.75 63.1239Z" fill="#3BD737"/>
<path d="M1149.3 12.4423L1141.75 63.1239L1136.89 79.2054C1135.99 82.1873 1133.15 83.8205 1129.94 83.2062V83.2062M1149.3 12.4423L1145.35 18.3679C1139.79 26.6899 1135.78 36.1591 1133.46 46.3999L1133.12 47.8853C1131.95 53.0723 1131.22 58.4305 1130.93 63.905L1129.94 83.2062M1149.3 12.4423L1129.94 83.2062" stroke="#00AE1C"/>
<path d="M647.287 63.1239L654.838 12.4422L650.883 18.3679C645.329 26.6899 641.313 36.1591 638.995 46.3999L638.659 47.8853C637.485 53.0723 636.752 58.4305 636.469 63.905L635.47 83.2062C638.687 83.8205 641.528 82.1873 642.429 79.2054L647.287 63.1239Z" fill="#3BD737"/>
<path d="M654.838 12.4423L647.287 63.1239L642.429 79.2054C641.528 82.1873 638.687 83.8205 635.47 83.2062V83.2062M654.838 12.4423L650.883 18.3679C645.329 26.6899 641.313 36.1591 638.995 46.3999L638.659 47.8853C637.485 53.0723 636.752 58.4305 636.469 63.905L635.47 83.2062M654.838 12.4423L635.47 83.2062" stroke="#00AE1C"/>
<path d="M1005.65 59.6143L998.097 8.93261L1002.05 14.8583C1007.61 23.1802 1011.62 32.6494 1013.94 42.8902L1014.28 44.3757C1015.45 49.5626 1016.18 54.9209 1016.47 60.3954L1017.46 79.6966C1014.25 80.3108 1011.41 78.6777 1010.51 75.6957L1005.65 59.6143Z" fill="#3BD737"/>
<path d="M998.097 8.93261L1005.65 59.6143L1010.51 75.6957C1011.41 78.6777 1014.25 80.3108 1017.46 79.6966V79.6966M998.097 8.93261L1002.05 14.8582C1007.61 23.1802 1011.62 32.6494 1013.94 42.8902L1014.28 44.3757C1015.45 49.5626 1016.18 54.9209 1016.47 60.3954L1017.46 79.6966M998.097 8.93261L1017.46 79.6966" stroke="#00AE1C"/>
<path d="M511.182 59.6141L503.632 8.93248L507.586 14.8581C513.141 23.1801 517.156 32.6493 519.474 42.8901L519.81 44.3756C520.984 49.5625 521.717 54.9208 522 60.3952L522.999 79.6965C519.782 80.3107 516.941 78.6775 516.04 75.6956L511.182 59.6141Z" fill="#3BD737"/>
<path d="M503.632 8.93249L511.182 59.6141L516.04 75.6956C516.941 78.6775 519.782 80.3107 522.999 79.6965V79.6965M503.632 8.93249L507.586 14.8581C513.141 23.1801 517.156 32.6493 519.474 42.8901L519.81 44.3756C520.984 49.5625 521.717 54.9208 522 60.3952L522.999 79.6965M503.632 8.93249L522.999 79.6965" stroke="#00AE1C"/>
<path d="M773.499 68.4392L765.949 17.7576L769.904 23.6832C775.458 32.0052 779.474 41.4744 781.792 51.7152L782.128 53.2006C783.302 58.3876 784.034 63.7458 784.318 69.2203L785.316 88.5215C782.099 89.1358 779.259 87.5026 778.358 84.5207L773.499 68.4392Z" fill="#3BD737"/>
<path d="M765.949 17.7576L773.499 68.4392L778.358 84.5207C779.259 87.5026 782.099 89.1358 785.316 88.5215V88.5215M765.949 17.7576L769.904 23.6832C775.458 32.0052 779.474 41.4744 781.792 51.7152L782.128 53.2006C783.302 58.3876 784.034 63.7458 784.318 69.2203L785.316 88.5215M765.949 17.7576L785.316 88.5215" stroke="#00AE1C"/>
<path d="M279.033 68.4392L271.483 17.7576L275.438 23.6832C280.992 32.0052 285.007 41.4744 287.325 51.7152L287.661 53.2006C288.835 58.3876 289.568 63.7458 289.851 69.2203L290.85 88.5215C287.633 89.1358 284.792 87.5026 283.891 84.5207L279.033 68.4392Z" fill="#3BD737"/>
<path d="M271.483 17.7576L279.033 68.4392L283.891 84.5207C284.792 87.5026 287.633 89.1358 290.85 88.5215V88.5215M271.483 17.7576L275.438 23.6832C280.992 32.0052 285.007 41.4744 287.325 51.7152L287.661 53.2006C288.835 58.3876 289.568 63.7458 289.851 69.2203L290.85 88.5215M271.483 17.7576L290.85 88.5215" stroke="#00AE1C"/>
<path d="M1024.13 71.2457L1016.58 20.5641L1020.54 26.4897C1026.09 34.8117 1030.1 44.2809 1032.42 54.5217L1032.76 56.0072C1033.93 61.1941 1034.67 66.5523 1034.95 72.0268L1035.95 91.328C1032.73 91.9423 1029.89 90.3091 1028.99 87.3272L1024.13 71.2457Z" fill="#3BD737"/>
<path d="M1016.58 20.5641L1024.13 71.2457L1028.99 87.3272C1029.89 90.3091 1032.73 91.9423 1035.95 91.328V91.328M1016.58 20.5641L1020.54 26.4897C1026.09 34.8117 1030.1 44.2809 1032.42 54.5217L1032.76 56.0072C1033.93 61.1941 1034.67 66.5523 1034.95 72.0268L1035.95 91.328M1016.58 20.5641L1035.95 91.328" stroke="#00AE1C"/>
<path d="M529.664 71.2457L522.114 20.5641L526.068 26.4897C531.622 34.8117 535.638 44.2809 537.956 54.5217L538.292 56.0072C539.466 61.1941 540.199 66.5523 540.482 72.0268L541.481 91.328C538.264 91.9423 535.423 90.3091 534.522 87.3272L529.664 71.2457Z" fill="#3BD737"/>
<path d="M522.114 20.5641L529.664 71.2457L534.522 87.3272C535.423 90.3091 538.264 91.9423 541.481 91.328V91.328M522.114 20.5641L526.068 26.4897C531.622 34.8117 535.638 44.2809 537.956 54.5217L538.292 56.0072C539.466 61.1941 540.199 66.5523 540.482 72.0268L541.481 91.328M522.114 20.5641L541.481 91.328" stroke="#00AE1C"/>
<path d="M791.884 64.9285L784.334 14.2468L788.289 20.1725C793.843 28.4944 797.858 37.9636 800.176 48.2045L800.513 49.6899C801.687 54.8768 802.419 60.2351 802.702 65.7096L803.701 85.0108C800.484 85.625 797.643 83.9919 796.743 81.0099L791.884 64.9285Z" fill="#3BD737"/>
<path d="M784.334 14.2468L791.884 64.9285L796.743 81.0099C797.643 83.9919 800.484 85.625 803.701 85.0108V85.0108M784.334 14.2468L788.289 20.1725C793.843 28.4944 797.858 37.9636 800.176 48.2045L800.513 49.6899C801.687 54.8768 802.419 60.2351 802.702 65.7096L803.701 85.0108M784.334 14.2468L803.701 85.0108" stroke="#00AE1C"/>
<path d="M297.418 64.9285L289.867 14.2468L293.822 20.1725C299.376 28.4944 303.392 37.9636 305.71 48.2045L306.046 49.6899C307.22 54.8768 307.953 60.2351 308.236 65.7096L309.235 85.0108C306.018 85.625 303.177 83.9919 302.276 81.0099L297.418 64.9285Z" fill="#3BD737"/>
<path d="M289.867 14.2468L297.418 64.9285L302.276 81.0099C303.177 83.9919 306.018 85.625 309.235 85.0108V85.0108M289.867 14.2468L293.822 20.1725C299.376 28.4944 303.392 37.9636 305.71 48.2045L306.046 49.6899C307.22 54.8768 307.953 60.2351 308.236 65.7096L309.235 85.0108M289.867 14.2468L309.235 85.0108" stroke="#00AE1C"/>
<path d="M1042.52 67.7351L1034.97 17.0535L1038.92 22.9791C1044.48 31.3011 1048.49 40.7703 1050.81 51.0111L1051.14 52.4965C1052.32 57.6835 1053.05 63.0417 1053.33 68.5162L1054.33 87.8174C1051.12 88.4317 1048.28 86.7985 1047.37 83.8166L1042.52 67.7351Z" fill="#3BD737"/>
<path d="M1034.97 17.0535L1042.52 67.7351L1047.37 83.8166C1048.28 86.7985 1051.12 88.4317 1054.33 87.8174V87.8174M1034.97 17.0535L1038.92 22.9791C1044.48 31.3011 1048.49 40.7703 1050.81 51.0111L1051.14 52.4965C1052.32 57.6835 1053.05 63.0417 1053.33 68.5162L1054.33 87.8174M1034.97 17.0535L1054.33 87.8174" stroke="#00AE1C"/>
<path d="M548.049 67.7351L540.498 17.0535L544.453 22.9791C550.007 31.3011 554.023 40.7703 556.341 51.0111L556.677 52.4965C557.851 57.6835 558.584 63.0417 558.867 68.5162L559.866 87.8174C556.649 88.4317 553.808 86.7985 552.907 83.8166L548.049 67.7351Z" fill="#3BD737"/>
<path d="M540.498 17.0535L548.049 67.7351L552.907 83.8166C553.808 86.7985 556.649 88.4317 559.866 87.8174V87.8174M540.498 17.0535L544.453 22.9791C550.007 31.3011 554.023 40.7703 556.341 51.0111L556.677 52.4965C557.851 57.6835 558.584 63.0417 558.867 68.5162L559.866 87.8174M540.498 17.0535L559.866 87.8174" stroke="#00AE1C"/>
<path d="M807.986 60.9624L800.436 10.2808L804.391 16.2064C809.945 24.5284 813.96 33.9976 816.278 44.2384L816.615 45.7238C817.789 50.9108 818.521 56.269 818.804 61.7435L819.803 81.0447C816.586 81.659 813.745 80.0258 812.845 77.0439L807.986 60.9624Z" fill="#3BD737"/>
<path d="M800.436 10.2808L807.986 60.9624L812.845 77.0439C813.745 80.0258 816.586 81.659 819.803 81.0447V81.0447M800.436 10.2808L804.391 16.2064C809.945 24.5284 813.96 33.9976 816.278 44.2384L816.615 45.7238C817.789 50.9108 818.521 56.269 818.804 61.7435L819.803 81.0447M800.436 10.2808L819.803 81.0447" stroke="#00AE1C"/>
<path d="M313.52 60.9624L305.97 10.2808L309.925 16.2064C315.479 24.5284 319.495 33.9976 321.813 44.2384L322.149 45.7238C323.323 50.9108 324.055 56.269 324.339 61.7435L325.337 81.0447C322.12 81.659 319.28 80.0258 318.379 77.0439L313.52 60.9624Z" fill="#3BD737"/>
<path d="M305.97 10.2808L313.52 60.9624L318.379 77.0439C319.28 80.0258 322.12 81.659 325.337 81.0447V81.0447M305.97 10.2808L309.925 16.2064C315.479 24.5284 319.495 33.9976 321.813 44.2384L322.149 45.7238C323.323 50.9108 324.055 56.269 324.339 61.7435L325.337 81.0447M305.97 10.2808L325.337 81.0447" stroke="#00AE1C"/>
<path d="M1058.62 63.7689L1051.07 13.0873L1055.02 19.0129C1060.58 27.3349 1064.59 36.8041 1066.91 47.0449L1067.25 48.5304C1068.42 53.7173 1069.15 59.0755 1069.44 64.55L1070.44 83.8512C1067.22 84.4655 1064.38 82.8323 1063.48 79.8504L1058.62 63.7689Z" fill="#3BD737"/>
<path d="M1051.07 13.0873L1058.62 63.7689L1063.48 79.8504C1064.38 82.8323 1067.22 84.4655 1070.44 83.8512V83.8512M1051.07 13.0873L1055.02 19.0129C1060.58 27.3349 1064.59 36.8041 1066.91 47.0449L1067.25 48.5304C1068.42 53.7173 1069.15 59.0755 1069.44 64.55L1070.44 83.8512M1051.07 13.0873L1070.44 83.8512" stroke="#00AE1C"/>
<path d="M564.151 63.7689L556.601 13.0873L560.556 19.0129C566.11 27.3349 570.125 36.8041 572.443 47.0449L572.78 48.5304C573.954 53.7173 574.686 59.0755 574.969 64.55L575.968 83.8512C572.751 84.4655 569.911 82.8323 569.01 79.8504L564.151 63.7689Z" fill="#3BD737"/>
<path d="M556.601 13.0873L564.151 63.7689L569.01 79.8504C569.911 82.8323 572.751 84.4655 575.968 83.8512V83.8512M556.601 13.0873L560.556 19.0129C566.11 27.3349 570.125 36.8041 572.443 47.0449L572.78 48.5304C573.954 53.7173 574.686 59.0755 574.969 64.55L575.968 83.8512M556.601 13.0873L575.968 83.8512" stroke="#00AE1C"/>
<path d="M329.768 59.2933L322.217 8.61168L326.172 14.5373C331.726 22.8593 335.742 32.3285 338.06 42.5693L338.396 44.0548C339.57 49.2417 340.302 54.5999 340.586 60.0744L341.584 79.3757C338.367 79.9899 335.527 78.3567 334.626 75.3748L329.768 59.2933Z" fill="#3BD737"/>
<path d="M322.217 8.61168L329.768 59.2933L334.626 75.3748C335.527 78.3567 338.367 79.9899 341.584 79.3757V79.3757M322.217 8.61168L326.172 14.5373C331.726 22.8593 335.742 32.3285 338.06 42.5693L338.396 44.0548C339.57 49.2417 340.302 54.5999 340.586 60.0744L341.584 79.3757M322.217 8.61168L341.584 79.3757" stroke="#00AE1C"/>
<path d="M1074.87 58.1L1067.32 7.41832L1071.27 13.344C1076.82 21.6659 1080.84 31.1351 1083.16 41.376L1083.49 42.8614C1084.67 48.0484 1085.4 53.4066 1085.68 58.8811L1086.68 78.1823C1083.47 78.7966 1080.62 77.1634 1079.72 74.1814L1074.87 58.1Z" fill="#3BD737"/>
<path d="M1067.32 7.41833L1074.87 58.1L1079.72 74.1814C1080.62 77.1634 1083.47 78.7966 1086.68 78.1823V78.1823M1067.32 7.41833L1071.27 13.344C1076.82 21.6659 1080.84 31.1351 1083.16 41.376L1083.49 42.8614C1084.67 48.0484 1085.4 53.4066 1085.68 58.8811L1086.68 78.1823M1067.32 7.41833L1086.68 78.1823" stroke="#00AE1C"/>
<path d="M580.398 60.0999L572.848 9.4182L576.803 15.3438C582.357 23.6658 586.373 33.135 588.69 43.3758L589.027 44.8613C590.201 50.0482 590.933 55.4065 591.216 60.881L592.215 80.1822C588.998 80.7964 586.158 79.1633 585.257 76.1813L580.398 60.0999Z" fill="#3BD737"/>
<path d="M572.848 9.4182L580.398 60.0999L585.257 76.1813C586.158 79.1633 588.998 80.7964 592.215 80.1822V80.1822M572.848 9.4182L576.803 15.3438C582.357 23.6658 586.373 33.135 588.69 43.3758L589.027 44.8613C590.201 50.0482 590.933 55.4065 591.216 60.881L592.215 80.1822M572.848 9.4182L592.215 80.1822" stroke="#00AE1C"/>
<path d="M843.483 58.6445L835.933 7.96288L839.888 13.8885C845.442 22.2105 849.458 31.6797 851.775 41.9205L852.112 43.406C853.286 48.5929 854.018 53.9511 854.301 59.4256L855.3 78.7269C852.083 79.3411 849.243 77.7079 848.342 74.726L843.483 58.6445Z" fill="#3BD737"/>
<path d="M835.933 7.96288L843.483 58.6445L848.342 74.726C849.243 77.7079 852.083 79.3411 855.3 78.7269V78.7269M835.933 7.96288L839.888 13.8885C845.442 22.2105 849.458 31.6797 851.775 41.9205L852.112 43.406C853.286 48.5929 854.018 53.9511 854.301 59.4256L855.3 78.7269M835.933 7.96288L855.3 78.7269" stroke="#00AE1C"/>
<path d="M349.018 58.6445L341.467 7.96288L345.422 13.8885C350.976 22.2105 354.992 31.6797 357.31 41.9205L357.646 43.406C358.82 48.5929 359.552 53.9511 359.836 59.4256L360.834 78.7269C357.617 79.3411 354.777 77.7079 353.876 74.726L349.018 58.6445Z" fill="#3BD737"/>
<path d="M341.467 7.96288L349.018 58.6445L353.876 74.726C354.777 77.7079 357.617 79.3411 360.834 78.7269V78.7269M341.467 7.96288L345.422 13.8885C350.976 22.2105 354.992 31.6797 357.31 41.9205L357.646 43.406C358.82 48.5929 359.552 53.9511 359.836 59.4256L360.834 78.7269M341.467 7.96288L360.834 78.7269" stroke="#00AE1C"/>
<path d="M1094.12 61.4512L1086.56 10.7695L1090.52 16.6952C1096.07 25.0171 1100.09 34.4863 1102.41 44.7272L1102.74 46.2126C1103.92 51.3995 1104.65 56.7578 1104.93 62.2323L1105.93 81.5335C1102.71 82.1478 1099.87 80.5146 1098.97 77.5326L1094.12 61.4512Z" fill="#3BD737"/>
<path d="M1086.56 10.7695L1094.12 61.4512L1098.97 77.5326C1099.87 80.5146 1102.71 82.1478 1105.93 81.5335V81.5335M1086.56 10.7695L1090.52 16.6952C1096.07 25.0171 1100.09 34.4863 1102.41 44.7272L1102.74 46.2126C1103.92 51.3995 1104.65 56.7578 1104.93 62.2323L1105.93 81.5335M1086.56 10.7695L1105.93 81.5335" stroke="#00AE1C"/>
<path d="M599.648 61.4512L592.098 10.7695L596.053 16.6952C601.607 25.0171 605.623 34.4863 607.94 44.7272L608.277 46.2126C609.451 51.3995 610.183 56.7578 610.466 62.2323L611.465 81.5335C608.248 82.1478 605.408 80.5146 604.507 77.5326L599.648 61.4512Z" fill="#3BD737"/>
<path d="M592.098 10.7695L599.648 61.4512L604.507 77.5326C605.408 80.5146 608.248 82.1478 611.465 81.5335V81.5335M592.098 10.7695L596.053 16.6952C601.607 25.0171 605.623 34.4863 607.94 44.7272L608.277 46.2126C609.451 51.3995 610.183 56.7578 610.466 62.2323L611.465 81.5335M592.098 10.7695L611.465 81.5335" stroke="#00AE1C"/>
<path d="M862.716 60.3228L855.165 9.6411L859.12 15.5667C864.674 23.8887 868.69 33.3579 871.008 43.5987L871.344 45.0842C872.518 50.2711 873.251 55.6294 873.534 61.1039L874.533 80.4051C871.316 81.0193 868.475 79.3862 867.574 76.4042L862.716 60.3228Z" fill="#3BD737"/>
<path d="M855.165 9.6411L862.716 60.3228L867.574 76.4042C868.475 79.3862 871.316 81.0193 874.533 80.4051V80.4051M855.165 9.6411L859.12 15.5667C864.674 23.8887 868.69 33.3579 871.008 43.5987L871.344 45.0842C872.518 50.2711 873.251 55.6294 873.534 61.1039L874.533 80.4051M855.165 9.6411L874.533 80.4051" stroke="#00AE1C"/>
<path d="M368.25 60.3226L360.7 9.64098L364.654 15.5666C370.208 23.8886 374.224 33.3578 376.542 43.5986L376.878 45.0841C378.052 50.271 378.785 55.6292 379.068 61.1037L380.067 80.405C376.85 81.0192 374.009 79.386 373.108 76.4041L368.25 60.3226Z" fill="#3BD737"/>
<path d="M360.7 9.64098L368.25 60.3226L373.108 76.4041C374.009 79.386 376.85 81.0192 380.067 80.405V80.405M360.7 9.64098L364.654 15.5666C370.208 23.8886 374.224 33.3578 376.542 43.5986L376.878 45.0841C378.052 50.271 378.785 55.6292 379.068 61.1037L380.067 80.405M360.7 9.64098L380.067 80.405" stroke="#00AE1C"/>
<path d="M1113.35 63.1293L1105.8 12.4476L1109.75 18.3733C1115.31 26.6952 1119.32 36.1644 1121.64 46.4053L1121.98 47.8907C1123.15 53.0777 1123.88 58.4359 1124.17 63.9104L1125.16 83.2116C1121.95 83.8259 1119.11 82.1927 1118.21 79.2107L1113.35 63.1293Z" fill="#3BD737"/>
<path d="M1105.8 12.4476L1113.35 63.1293L1118.21 79.2107C1119.11 82.1927 1121.95 83.8259 1125.16 83.2116V83.2116M1105.8 12.4476L1109.75 18.3733C1115.31 26.6952 1119.32 36.1644 1121.64 46.4053L1121.98 47.8907C1123.15 53.0776 1123.88 58.4359 1124.17 63.9104L1125.16 83.2116M1105.8 12.4476L1125.16 83.2116" stroke="#00AE1C"/>
<path d="M618.881 63.1292L611.33 12.4475L615.285 18.3731C620.839 26.6951 624.855 36.1643 627.173 46.4051L627.509 47.8906C628.683 53.0775 629.416 58.4358 629.699 63.9103L630.698 83.2115C627.481 83.8257 624.64 82.1925 623.739 79.2106L618.881 63.1292Z" fill="#3BD737"/>
<path d="M611.33 12.4475L618.881 63.1292L623.739 79.2106C624.64 82.1925 627.481 83.8257 630.698 83.2115V83.2115M611.33 12.4475L615.285 18.3731C620.839 26.6951 624.855 36.1643 627.173 46.4051L627.509 47.8906C628.683 53.0775 629.416 58.4358 629.699 63.9103L630.698 83.2115M611.33 12.4475L630.698 83.2115" stroke="#00AE1C"/>
<path d="M385.431 59.8033L377.88 9.12169L381.835 15.0473C387.389 23.3693 391.405 32.8385 393.723 43.0793L394.059 44.5648C395.233 49.7517 395.965 55.11 396.249 60.5845L397.248 79.8857C394.03 80.4999 391.19 78.8667 390.289 75.8848L385.431 59.8033Z" fill="#3BD737"/>
<path d="M377.88 9.12169L385.431 59.8033L390.289 75.8848C391.19 78.8667 394.03 80.4999 397.248 79.8857V79.8857M377.88 9.12169L381.835 15.0473C387.389 23.3693 391.405 32.8385 393.723 43.0793L394.059 44.5648C395.233 49.7517 395.965 55.11 396.249 60.5845L397.248 79.8857M377.88 9.12169L397.248 79.8857" stroke="#00AE1C"/>
<path d="M1130.53 59.61L1122.98 8.92833L1126.93 14.854C1132.48 23.1759 1136.5 32.6452 1138.82 42.886L1139.15 44.3714C1140.33 49.5584 1141.06 54.9166 1141.34 60.3911L1142.34 79.6923C1139.13 80.3066 1136.29 78.6734 1135.38 75.6915L1130.53 59.61Z" fill="#3BD737"/>
<path d="M1122.98 8.92833L1130.53 59.61L1135.38 75.6915C1136.29 78.6734 1139.13 80.3066 1142.34 79.6923V79.6923M1122.98 8.92833L1126.93 14.854C1132.48 23.1759 1136.5 32.6452 1138.82 42.886L1139.15 44.3714C1140.33 49.5584 1141.06 54.9166 1141.34 60.3911L1142.34 79.6923M1122.98 8.92833L1142.34 79.6923" stroke="#00AE1C"/>
<path d="M636.061 59.6099L628.511 8.92821L632.466 14.8539C638.02 23.1758 642.036 32.645 644.354 42.8858L644.69 44.3713C645.864 49.5582 646.596 54.9165 646.88 60.391L647.878 79.6922C644.661 80.3064 641.821 78.6733 640.92 75.6913L636.061 59.6099Z" fill="#3BD737"/>
<path d="M628.511 8.92821L636.061 59.6099L640.92 75.6913C641.821 78.6733 644.661 80.3064 647.878 79.6922V79.6922M628.511 8.92821L632.466 14.8539C638.02 23.1758 642.036 32.645 644.354 42.8858L644.69 44.3713C645.864 49.5582 646.596 54.9165 646.88 60.391L647.878 79.6922M628.511 8.92821L647.878 79.6922" stroke="#00AE1C"/>
<path d="M898.378 68.4348L890.827 17.7532L894.782 23.6788C900.336 32.0008 904.352 41.47 906.67 51.7108L907.006 53.1962C908.18 58.3832 908.913 63.7414 909.196 69.2159L910.195 88.5171C906.978 89.1314 904.137 87.4982 903.236 84.5163L898.378 68.4348Z" fill="#3BD737"/>
<path d="M890.827 17.7532L898.378 68.4348L903.236 84.5163C904.137 87.4982 906.978 89.1314 910.195 88.5171V88.5171M890.827 17.7532L894.782 23.6788C900.336 32.0008 904.352 41.47 906.67 51.7108L907.006 53.1962C908.18 58.3832 908.913 63.7414 909.196 69.2159L910.195 88.5171M890.827 17.7532L910.195 88.5171" stroke="#00AE1C"/>
<path d="M403.913 68.4346L396.362 17.7529L400.317 23.6786C405.871 32.0005 409.887 41.4697 412.205 51.7106L412.541 53.196C413.715 58.3829 414.447 63.7412 414.731 69.2157L415.729 88.5169C412.512 89.1312 409.672 87.498 408.771 84.516L403.913 68.4346Z" fill="#3BD737"/>
<path d="M396.362 17.7529L403.913 68.4346L408.771 84.516C409.672 87.498 412.512 89.1312 415.729 88.5169V88.5169M396.362 17.7529L400.317 23.6786C405.871 32.0005 409.887 41.4697 412.205 51.7106L412.541 53.196C413.715 58.3829 414.447 63.7412 414.731 69.2157L415.729 88.5169M396.362 17.7529L415.729 88.5169" stroke="#00AE1C"/>
<path d="M1149.01 71.2412L1141.46 20.5596L1145.41 26.4852C1150.97 34.8072 1154.98 44.2764 1157.3 54.5172L1157.64 56.0026C1158.81 61.1896 1159.54 66.5478 1159.83 72.0223L1160.83 91.3235C1157.61 91.9378 1154.77 90.3046 1153.87 87.3227L1149.01 71.2412Z" fill="#3BD737"/>
<path d="M1141.46 20.5596L1149.01 71.2412L1153.87 87.3227C1154.77 90.3046 1157.61 91.9378 1160.83 91.3235V91.3235M1141.46 20.5596L1145.41 26.4852C1150.97 34.8072 1154.98 44.2764 1157.3 54.5172L1157.64 56.0026C1158.81 61.1896 1159.54 66.5478 1159.83 72.0223L1160.83 91.3235M1141.46 20.5596L1160.83 91.3235" stroke="#00AE1C"/>
<path d="M654.543 71.2412L646.993 20.5596L650.948 26.4852C656.502 34.8072 660.518 44.2764 662.835 54.5172L663.172 56.0026C664.346 61.1896 665.078 66.5478 665.361 72.0223L666.36 91.3235C663.143 91.9378 660.303 90.3046 659.402 87.3227L654.543 71.2412Z" fill="#3BD737"/>
<path d="M646.993 20.5596L654.543 71.2412L659.402 87.3227C660.303 90.3046 663.143 91.9378 666.36 91.3235V91.3235M646.993 20.5596L650.948 26.4852C656.502 34.8072 660.518 44.2764 662.835 54.5172L663.172 56.0026C664.346 61.1896 665.078 66.5478 665.361 72.0223L666.36 91.3235M646.993 20.5596L666.36 91.3235" stroke="#00AE1C"/>
<path d="M916.763 64.9243L909.212 14.2427L913.167 20.1683C918.721 28.4903 922.737 37.9595 925.055 48.2003L925.391 49.6858C926.565 54.8727 927.297 60.2309 927.581 65.7054L928.58 85.0066C925.362 85.6209 922.522 83.9877 921.621 81.0058L916.763 64.9243Z" fill="#3BD737"/>
<path d="M909.212 14.2427L916.763 64.9243L921.621 81.0058C922.522 83.9877 925.362 85.6209 928.58 85.0066V85.0066M909.212 14.2427L913.167 20.1683C918.721 28.4903 922.737 37.9595 925.055 48.2003L925.391 49.6858C926.565 54.8727 927.297 60.2309 927.581 65.7054L928.58 85.0066M909.212 14.2427L928.58 85.0066" stroke="#00AE1C"/>
<path d="M422.297 64.9242L414.746 14.2425L418.701 20.1682C424.255 28.4902 428.271 37.9594 430.589 48.2002L430.925 49.6856C432.099 54.8726 432.832 60.2308 433.115 65.7053L434.114 85.0065C430.897 85.6208 428.056 83.9876 427.155 81.0057L422.297 64.9242Z" fill="#3BD737"/>
<path d="M414.746 14.2425L422.297 64.9242L427.155 81.0057C428.056 83.9876 430.897 85.6208 434.114 85.0065V85.0065M414.746 14.2425L418.701 20.1682C424.255 28.4902 428.271 37.9594 430.589 48.2002L430.925 49.6856C432.099 54.8726 432.832 60.2308 433.115 65.7053L434.114 85.0065M414.746 14.2425L434.114 85.0065" stroke="#00AE1C"/>
<path d="M1167.39 67.7308L1159.84 17.0492L1163.8 22.9748C1169.35 31.2968 1173.37 40.766 1175.69 51.0068L1176.02 52.4923C1177.2 57.6792 1177.93 63.0374 1178.21 68.5119L1179.21 87.8132C1175.99 88.4274 1173.15 86.7942 1172.25 83.8123L1167.39 67.7308Z" fill="#3BD737"/>
<path d="M1159.84 17.0492L1167.39 67.7308L1172.25 83.8123C1173.15 86.7942 1175.99 88.4274 1179.21 87.8132V87.8132M1159.84 17.0492L1163.8 22.9748C1169.35 31.2968 1173.37 40.766 1175.69 51.0068L1176.02 52.4923C1177.2 57.6792 1177.93 63.0374 1178.21 68.5119L1179.21 87.8132M1159.84 17.0492L1179.21 87.8132" stroke="#00AE1C"/>
<path d="M672.928 67.7308L665.378 17.0492L669.333 22.9748C674.887 31.2968 678.902 40.766 681.22 51.0068L681.556 52.4923C682.73 57.6792 683.463 63.0374 683.746 68.5119L684.745 87.8132C681.528 88.4274 678.687 86.7942 677.786 83.8123L672.928 67.7308Z" fill="#3BD737"/>
<path d="M665.378 17.0492L672.928 67.7308L677.786 83.8123C678.687 86.7942 681.528 88.4274 684.745 87.8132V87.8132M665.378 17.0492L669.333 22.9748C674.887 31.2968 678.902 40.766 681.22 51.0068L681.556 52.4923C682.73 57.6792 683.463 63.0374 683.746 68.5119L684.745 87.8132M665.378 17.0492L684.745 87.8132" stroke="#00AE1C"/>
<path d="M932.865 60.9583L925.314 10.2766L929.269 16.2022C934.823 24.5242 938.839 33.9934 941.157 44.2342L941.493 45.7197C942.667 50.9066 943.399 56.2649 943.683 61.7394L944.682 81.0406C941.464 81.6548 938.624 80.0216 937.723 77.0397L932.865 60.9583Z" fill="#3BD737"/>
<path d="M925.314 10.2766L932.865 60.9583L937.723 77.0397C938.624 80.0216 941.464 81.6548 944.682 81.0406V81.0406M925.314 10.2766L929.269 16.2022C934.823 24.5242 938.839 33.9934 941.157 44.2342L941.493 45.7197C942.667 50.9066 943.399 56.2649 943.683 61.7394L944.682 81.0406M925.314 10.2766L944.682 81.0406" stroke="#00AE1C"/>
<path d="M438.399 60.9583L430.849 10.2766L434.804 16.2022C440.358 24.5242 444.374 33.9934 446.691 44.2342L447.028 45.7197C448.202 50.9066 448.934 56.2649 449.217 61.7394L450.216 81.0406C446.999 81.6548 444.159 80.0216 443.258 77.0397L438.399 60.9583Z" fill="#3BD737"/>
<path d="M430.849 10.2766L438.399 60.9583L443.258 77.0397C444.159 80.0216 446.999 81.6548 450.216 81.0406V81.0406M430.849 10.2766L434.804 16.2022C440.358 24.5242 444.374 33.9934 446.691 44.2342L447.028 45.7197C448.202 50.9066 448.934 56.2649 449.217 61.7394L450.216 81.0406M430.849 10.2766L450.216 81.0406" stroke="#00AE1C"/>
<path d="M1183.5 63.7647L1175.95 13.083L1179.9 19.0086C1185.46 27.3306 1189.47 36.7998 1191.79 47.0406L1192.13 48.5261C1193.3 53.713 1194.03 59.0713 1194.32 64.5458L1195.31 83.847C1192.1 84.4612 1189.26 82.828 1188.36 79.8461L1183.5 63.7647Z" fill="#3BD737"/>
<path d="M1175.95 13.083L1183.5 63.7647L1188.36 79.8461C1189.26 82.828 1192.1 84.4612 1195.31 83.847V83.847M1175.95 13.083L1179.9 19.0086C1185.46 27.3306 1189.47 36.7998 1191.79 47.0406L1192.13 48.5261C1193.3 53.713 1194.03 59.0713 1194.32 64.5458L1195.31 83.847M1175.95 13.083L1195.31 83.847" stroke="#00AE1C"/>
<path d="M689.03 63.7647L681.48 13.083L685.435 19.0086C690.989 27.3306 695.004 36.7998 697.322 47.0406L697.659 48.5261C698.833 53.713 699.565 59.0713 699.848 64.5458L700.847 83.847C697.63 84.4612 694.789 82.828 693.889 79.8461L689.03 63.7647Z" fill="#3BD737"/>
<path d="M681.48 13.083L689.03 63.7647L693.889 79.8461C694.789 82.828 697.63 84.4612 700.847 83.847V83.847M681.48 13.083L685.435 19.0086C690.989 27.3306 695.004 36.7998 697.322 47.0406L697.659 48.5261C698.833 53.713 699.565 59.0713 699.848 64.5458L700.847 83.847M681.48 13.083L700.847 83.847" stroke="#00AE1C"/>
<path d="M949.112 58.2893L941.562 7.60765L945.517 13.5333C951.071 21.8553 955.086 31.3245 957.404 41.5653L957.741 43.0507C958.915 48.2377 959.647 53.5959 959.93 59.0704L960.929 78.3716C957.712 78.9859 954.871 77.3527 953.971 74.3708L949.112 58.2893Z" fill="#3BD737"/>
<path d="M941.562 7.60766L949.112 58.2893L953.971 74.3708C954.871 77.3527 957.712 78.9859 960.929 78.3716V78.3716M941.562 7.60766L945.517 13.5333C951.071 21.8553 955.086 31.3245 957.404 41.5653L957.741 43.0507C958.915 48.2377 959.647 53.5959 959.93 59.0704L960.929 78.3716M941.562 7.60766L960.929 78.3716" stroke="#00AE1C"/>
<path d="M454.647 59.2891L447.097 8.60741L451.052 14.5331C456.606 22.855 460.622 32.3242 462.939 42.565L463.276 44.0505C464.45 49.2374 465.182 54.5957 465.465 60.0702L466.464 79.3714C463.247 79.9856 460.407 78.3525 459.506 75.3705L454.647 59.2891Z" fill="#3BD737"/>
<path d="M447.097 8.60741L454.647 59.2891L459.506 75.3705C460.407 78.3525 463.247 79.9856 466.464 79.3714V79.3714M447.097 8.60741L451.052 14.5331C456.606 22.855 460.622 32.3242 462.939 42.565L463.276 44.0505C464.45 49.2374 465.182 54.5957 465.465 60.0702L466.464 79.3714M447.097 8.60741L466.464 79.3714" stroke="#00AE1C"/>
<path d="M705.278 61.0957L697.728 10.4141L701.683 16.3397C707.237 24.6617 711.252 34.1309 713.57 44.3717L713.907 45.8571C715.081 51.0441 715.813 56.4023 716.096 61.8768L717.095 81.178C713.878 81.7923 711.037 80.1591 710.137 77.1772L705.278 61.0957Z" fill="#3BD737"/>
<path d="M697.728 10.4141L705.278 61.0957L710.137 77.1772C711.037 80.1591 713.878 81.7923 717.095 81.178V81.178M697.728 10.4141L701.683 16.3397C707.237 24.6617 711.252 34.1309 713.57 44.3717L713.907 45.8571C715.081 51.0441 715.813 56.4023 716.096 61.8768L717.095 81.178M697.728 10.4141L717.095 81.178" stroke="#00AE1C"/>
<path d="M968.362 58.6404L960.811 7.95873L964.766 13.8844C970.32 22.2063 974.336 31.6755 976.654 41.9164L976.99 43.4018C978.164 48.5888 978.897 53.947 979.18 59.4215L980.179 78.7227C976.962 79.337 974.121 77.7038 973.22 74.7219L968.362 58.6404Z" fill="#3BD737"/>
<path d="M960.811 7.95873L968.362 58.6404L973.22 74.7219C974.121 77.7038 976.962 79.337 980.179 78.7227V78.7227M960.811 7.95873L964.766 13.8844C970.32 22.2063 974.336 31.6755 976.654 41.9164L976.99 43.4018C978.164 48.5888 978.897 53.947 979.18 59.4215L980.179 78.7227M960.811 7.95873L980.179 78.7227" stroke="#00AE1C"/>
<path d="M473.896 58.6404L466.346 7.95873L470.301 13.8844C475.855 22.2063 479.871 31.6755 482.189 41.9164L482.525 43.4018C483.699 48.5888 484.431 53.947 484.714 59.4215L485.713 78.7227C482.496 79.337 479.656 77.7038 478.755 74.7219L473.896 58.6404Z" fill="#3BD737"/>
<path d="M466.346 7.95873L473.896 58.6404L478.755 74.7219C479.656 77.7038 482.496 79.337 485.713 78.7227V78.7227M466.346 7.95873L470.301 13.8844C475.855 22.2063 479.871 31.6755 482.189 41.9164L482.525 43.4018C483.699 48.5888 484.431 53.947 484.714 59.4215L485.713 78.7227M466.346 7.95873L485.713 78.7227" stroke="#00AE1C"/>
<path d="M1218.99 61.4469L1211.44 10.7652L1215.4 16.6909C1220.95 25.0129 1224.97 34.4821 1227.29 44.7229L1227.62 46.2083C1228.8 51.3953 1229.53 56.7535 1229.81 62.228L1230.81 81.5292C1227.59 82.1435 1224.75 80.5103 1223.85 77.5284L1218.99 61.4469Z" fill="#3BD737"/>
<path d="M1211.44 10.7652L1218.99 61.4469L1223.85 77.5284C1224.75 80.5103 1227.59 82.1435 1230.81 81.5292V81.5292M1211.44 10.7652L1215.4 16.6909C1220.95 25.0129 1224.97 34.4821 1227.29 44.7229L1227.62 46.2083C1228.8 51.3953 1229.53 56.7535 1229.81 62.228L1230.81 81.5292M1211.44 10.7652L1230.81 81.5292" stroke="#00AE1C"/>
<path d="M724.527 61.4469L716.977 10.7652L720.932 16.6909C726.486 25.0129 730.501 34.4821 732.819 44.7229L733.156 46.2083C734.33 51.3953 735.062 56.7535 735.345 62.228L736.344 81.5292C733.127 82.1435 730.286 80.5103 729.386 77.5284L724.527 61.4469Z" fill="#3BD737"/>
<path d="M716.977 10.7652L724.527 61.4469L729.386 77.5284C730.286 80.5103 733.127 82.1435 736.344 81.5292V81.5292M716.977 10.7652L720.932 16.6909C726.486 25.0129 730.501 34.4821 732.819 44.7229L733.156 46.2083C734.33 51.3953 735.062 56.7535 735.345 62.228L736.344 81.5292M716.977 10.7652L736.344 81.5292" stroke="#00AE1C"/>
<path d="M987.595 60.3186L980.044 9.63695L983.999 15.5626C989.553 23.8846 993.569 33.3538 995.887 43.5946L996.223 45.08C997.397 50.267 998.129 55.6252 998.413 61.0997L999.412 80.4009C996.194 81.0152 993.354 79.382 992.453 76.4001L987.595 60.3186Z" fill="#3BD737"/>
<path d="M980.044 9.63695L987.595 60.3186L992.453 76.4001C993.354 79.382 996.194 81.0152 999.412 80.4009V80.4009M980.044 9.63695L983.999 15.5626C989.553 23.8846 993.569 33.3538 995.887 43.5946L996.223 45.08C997.397 50.267 998.129 55.6252 998.413 61.0997L999.412 80.4009M980.044 9.63695L999.412 80.4009" stroke="#00AE1C"/>
<path d="M493.129 60.3184L485.578 9.63671L489.533 15.5624C495.087 23.8843 499.103 33.3535 501.421 43.5943L501.757 45.0798C502.931 50.2667 503.664 55.625 503.947 61.0995L504.946 80.4007C501.729 81.0149 498.888 79.3818 497.987 76.3998L493.129 60.3184Z" fill="#3BD737"/>
<path d="M485.578 9.63671L493.129 60.3184L497.987 76.3998C498.888 79.3818 501.729 81.0149 504.946 80.4007V80.4007M485.578 9.63671L489.533 15.5623C495.087 23.8843 499.103 33.3535 501.421 43.5943L501.757 45.0798C502.931 50.2667 503.664 55.625 503.947 61.0995L504.946 80.4007M485.578 9.63671L504.946 80.4007" stroke="#00AE1C"/>
<path d="M1238.23 63.125L1230.68 12.4433L1234.63 18.369C1240.18 26.691 1244.2 36.1602 1246.52 46.401L1246.85 47.8864C1248.03 53.0734 1248.76 58.4316 1249.04 63.9061L1250.04 83.2073C1246.83 83.8216 1243.99 82.1884 1243.08 79.2065L1238.23 63.125Z" fill="#3BD737"/>
<path d="M1230.68 12.4433L1238.23 63.125L1243.08 79.2065C1243.99 82.1884 1246.83 83.8216 1250.04 83.2073V83.2073M1230.68 12.4433L1234.63 18.369C1240.18 26.691 1244.2 36.1602 1246.52 46.401L1246.85 47.8864C1248.03 53.0734 1248.76 58.4316 1249.04 63.9061L1250.04 83.2073M1230.68 12.4433L1250.04 83.2073" stroke="#00AE1C"/>
<path d="M743.76 63.125L736.21 12.4433L740.165 18.369C745.719 26.691 749.734 36.1602 752.052 46.401L752.388 47.8864C753.563 53.0734 754.295 58.4316 754.578 63.9061L755.577 83.2073C752.36 83.8216 749.519 82.1884 748.619 79.2065L743.76 63.125Z" fill="#3BD737"/>
<path d="M736.21 12.4433L743.76 63.125L748.619 79.2065C749.519 82.1884 752.36 83.8216 755.577 83.2073V83.2073M736.21 12.4433L740.165 18.369C745.719 26.691 749.734 36.1602 752.052 46.401L752.388 47.8864C753.563 53.0734 754.295 58.4316 754.578 63.9061L755.577 83.2073M736.21 12.4433L755.577 83.2073" stroke="#00AE1C"/>
<path d="M1489.08 72.7306L1481.53 22.0489L1485.48 27.9746C1491.04 36.2965 1495.05 45.7658 1497.37 56.0066L1497.71 57.492C1498.88 62.679 1499.62 68.0372 1499.9 73.5117L1500.9 92.8129C1497.68 93.4272 1494.84 91.794 1493.94 88.8121L1489.08 72.7306Z" fill="#3BD737"/>
<path d="M1481.53 22.0489L1489.08 72.7306L1493.94 88.8121C1494.84 91.794 1497.68 93.4272 1500.9 92.8129V92.8129M1481.53 22.0489L1485.48 27.9746C1491.04 36.2965 1495.05 45.7658 1497.37 56.0066L1497.71 57.492C1498.88 62.679 1499.62 68.0372 1499.9 73.5117L1500.9 92.8129M1481.53 22.0489L1500.9 92.8129" stroke="#00AE1C"/>
<path d="M1446.26 64.6113L1453.81 13.9297L1449.85 19.8553C1444.3 28.1773 1440.28 37.6465 1437.96 47.8873L1437.63 49.3728C1436.45 54.5597 1435.72 59.9179 1435.44 65.3924L1434.44 84.6936C1437.66 85.3079 1440.5 83.6747 1441.4 80.6928L1446.26 64.6113Z" fill="#3BD737"/>
<path d="M1453.81 13.9297L1446.26 64.6113L1441.4 80.6928C1440.5 83.6747 1437.66 85.3079 1434.44 84.6936V84.6936M1453.81 13.9297L1449.85 19.8553C1444.3 28.1773 1440.28 37.6465 1437.96 47.8873L1437.63 49.3728C1436.45 54.5597 1435.72 59.9179 1435.44 65.3924L1434.44 84.6936M1453.81 13.9297L1434.44 84.6936" stroke="#00AE1C"/>
<path d="M1427.77 76.2426L1435.33 25.5609L1431.37 31.4865C1425.82 39.8085 1421.8 49.2777 1419.48 59.5185L1419.15 61.004C1417.97 66.1909 1417.24 71.5492 1416.96 77.0237L1415.96 96.3249C1419.18 96.9391 1422.02 95.306 1422.92 92.324L1427.77 76.2426Z" fill="#3BD737"/>
<path d="M1435.33 25.5609L1427.77 76.2426L1422.92 92.324C1422.02 95.306 1419.18 96.9391 1415.96 96.3249V96.3249M1435.33 25.5609L1431.37 31.4865C1425.82 39.8085 1421.8 49.2777 1419.48 59.5185L1419.15 61.004C1417.97 66.1909 1417.24 71.5492 1416.96 77.0237L1415.96 96.3249M1435.33 25.5609L1415.96 96.3249" stroke="#00AE1C"/>
<path d="M1409.39 72.7322L1416.94 22.0505L1412.99 27.9762C1407.43 36.2981 1403.42 45.7673 1401.1 56.0082L1400.76 57.4936C1399.59 62.6806 1398.86 68.0388 1398.57 73.5133L1397.57 92.8145C1400.79 93.4288 1403.63 91.7956 1404.53 88.8137L1409.39 72.7322Z" fill="#3BD737"/>
<path d="M1416.94 22.0505L1409.39 72.7322L1404.53 88.8137C1403.63 91.7956 1400.79 93.4288 1397.57 92.8145V92.8145M1416.94 22.0505L1412.99 27.9762C1407.43 36.2981 1403.42 45.7673 1401.1 56.0082L1400.76 57.4936C1399.59 62.6806 1398.86 68.0388 1398.57 73.5133L1397.57 92.8145M1416.94 22.0505L1397.57 92.8145" stroke="#00AE1C"/>
<path d="M1393.29 68.766L1400.84 18.0843L1396.88 24.01C1391.33 32.3319 1387.31 41.8012 1385 52.042L1384.66 53.5274C1383.49 58.7144 1382.75 64.0726 1382.47 69.5471L1381.47 88.8483C1384.69 89.4626 1387.53 87.8294 1388.43 84.8475L1393.29 68.766Z" fill="#3BD737"/>
<path d="M1400.84 18.0843L1393.29 68.766L1388.43 84.8475C1387.53 87.8294 1384.69 89.4626 1381.47 88.8483V88.8483M1400.84 18.0843L1396.88 24.01C1391.33 32.3319 1387.31 41.8012 1385 52.042L1384.66 53.5274C1383.49 58.7144 1382.75 64.0726 1382.47 69.5471L1381.47 88.8483M1400.84 18.0843L1381.47 88.8483" stroke="#00AE1C"/>
<path d="M1377.04 62.097L1384.59 11.4154L1380.64 17.341C1375.08 25.663 1371.07 35.1322 1368.75 45.373L1368.41 46.8585C1367.24 52.0454 1366.5 57.4037 1366.22 62.8782L1365.22 82.1794C1368.44 82.7936 1371.28 81.1604 1372.18 78.1785L1377.04 62.097Z" fill="#3BD737"/>
<path d="M1384.59 11.4154L1377.04 62.097L1372.18 78.1785C1371.28 81.1604 1368.44 82.7936 1365.22 82.1794V82.1794M1384.59 11.4154L1380.64 17.341C1375.08 25.663 1371.07 35.1322 1368.75 45.373L1368.41 46.8585C1367.24 52.0454 1366.5 57.4037 1366.22 62.8782L1365.22 82.1794M1384.59 11.4154L1365.22 82.1794" stroke="#00AE1C"/>
<path d="M1357.79 66.4482L1365.34 15.7666L1361.39 21.6922C1355.83 30.0142 1351.82 39.4834 1349.5 49.7242L1349.16 51.2097C1347.99 56.3966 1347.26 61.7549 1346.97 67.2293L1345.97 86.5306C1349.19 87.1448 1352.03 85.5116 1352.93 82.5297L1357.79 66.4482Z" fill="#3BD737"/>
<path d="M1365.34 15.7666L1357.79 66.4482L1352.93 82.5297C1352.03 85.5116 1349.19 87.1448 1345.97 86.5306V86.5306M1365.34 15.7666L1361.39 21.6922C1355.83 30.0142 1351.82 39.4834 1349.5 49.7242L1349.16 51.2097C1347.99 56.3966 1347.26 61.7549 1346.97 67.2293L1345.97 86.5306M1365.34 15.7666L1345.97 86.5306" stroke="#00AE1C"/>
<path d="M1338.56 68.1265L1346.11 17.4448L1342.15 23.3705C1336.6 31.6924 1332.58 41.1616 1330.27 51.4024L1329.93 52.8879C1328.76 58.0748 1328.02 63.4331 1327.74 68.9076L1326.74 88.2088C1329.96 88.823 1332.8 87.1899 1333.7 84.2079L1338.56 68.1265Z" fill="#3BD737"/>
<path d="M1346.11 17.4448L1338.56 68.1265L1333.7 84.2079C1332.8 87.1899 1329.96 88.823 1326.74 88.2088V88.2088M1346.11 17.4448L1342.15 23.3705C1336.6 31.6924 1332.58 41.1616 1330.27 51.4024L1329.93 52.8879C1328.76 58.0748 1328.02 63.4331 1327.74 68.9076L1326.74 88.2088M1346.11 17.4448L1326.74 88.2088" stroke="#00AE1C"/>
<path d="M1320.51 61.803L1328.06 11.1213L1324.1 17.047C1318.55 25.3689 1314.53 34.8381 1312.21 45.079L1311.88 46.5644C1310.7 51.7514 1309.97 57.1096 1309.69 62.5841L1308.69 81.8853C1311.91 82.4996 1314.75 80.8664 1315.65 77.8845L1320.51 61.803Z" fill="#3BD737"/>
<path d="M1328.06 11.1213L1320.51 61.803L1315.65 77.8845C1314.75 80.8664 1311.91 82.4996 1308.69 81.8853V81.8853M1328.06 11.1213L1324.1 17.047C1318.55 25.3689 1314.53 34.8381 1312.21 45.079L1311.88 46.5644C1310.7 51.7514 1309.97 57.1096 1309.69 62.5841L1308.69 81.8853M1328.06 11.1213L1308.69 81.8853" stroke="#00AE1C"/>
<path d="M1302.02 73.4343L1309.57 22.7527L1305.62 28.6783C1300.07 37.0003 1296.05 46.4695 1293.73 56.7103L1293.4 58.1958C1292.22 63.3827 1291.49 68.7409 1291.21 74.2154L1290.21 93.5166C1293.42 94.1309 1296.26 92.4977 1297.17 89.5158L1302.02 73.4343Z" fill="#3BD737"/>
<path d="M1309.57 22.7527L1302.02 73.4343L1297.17 89.5158C1296.26 92.4977 1293.42 94.1309 1290.21 93.5166V93.5166M1309.57 22.7527L1305.62 28.6783C1300.07 37.0003 1296.05 46.4695 1293.73 56.7103L1293.4 58.1958C1292.22 63.3827 1291.49 68.7409 1291.21 74.2154L1290.21 93.5166M1309.57 22.7527L1290.21 93.5166" stroke="#00AE1C"/>
<path d="M1283.64 69.924L1291.19 19.2423L1287.23 25.1679C1281.68 33.4899 1277.67 42.9591 1275.35 53.1999L1275.01 54.6854C1273.84 59.8723 1273.1 65.2306 1272.82 70.7051L1271.82 90.0063C1275.04 90.6205 1277.88 88.9873 1278.78 86.0054L1283.64 69.924Z" fill="#3BD737"/>
<path d="M1291.19 19.2423L1283.64 69.924L1278.78 86.0054C1277.88 88.9873 1275.04 90.6205 1271.82 90.0063V90.0063M1291.19 19.2423L1287.23 25.1679C1281.68 33.4899 1277.67 42.9591 1275.35 53.1999L1275.01 54.6854C1273.84 59.8723 1273.1 65.2306 1272.82 70.7051L1271.82 90.0063M1291.19 19.2423L1271.82 90.0063" stroke="#00AE1C"/>
<path d="M1267.54 65.9578L1275.09 15.2761L1271.13 21.2018C1265.58 29.5237 1261.56 38.9929 1259.25 49.2337L1258.91 50.7192C1257.73 55.9061 1257 61.2644 1256.72 66.7389L1255.72 86.0401C1258.94 86.6543 1261.78 85.0212 1262.68 82.0392L1267.54 65.9578Z" fill="#3BD737"/>
<path d="M1275.09 15.2761L1267.54 65.9578L1262.68 82.0392C1261.78 85.0212 1258.94 86.6543 1255.72 86.0401V86.0401M1275.09 15.2761L1271.13 21.2018C1265.58 29.5237 1261.56 38.9929 1259.25 49.2337L1258.91 50.7192C1257.73 55.9061 1257 61.2644 1256.72 66.7389L1255.72 86.0401M1275.09 15.2761L1255.72 86.0401" stroke="#00AE1C"/>
<path d="M1501.92 62.0941L1509.47 11.4125L1505.52 17.3381C1499.96 25.6601 1495.95 35.1293 1493.63 45.3701L1493.29 46.8556C1492.12 52.0425 1491.38 57.4007 1491.1 62.8752L1490.1 82.1764C1493.32 82.7907 1496.16 81.1575 1497.06 78.1756L1501.92 62.0941Z" fill="#3BD737"/>
<path d="M1509.47 11.4125L1501.92 62.0941L1497.06 78.1756C1496.16 81.1575 1493.32 82.7907 1490.1 82.1764V82.1764M1509.47 11.4125L1505.52 17.3381C1499.96 25.6601 1495.95 35.1293 1493.63 45.3701L1493.29 46.8556C1492.12 52.0425 1491.38 57.4007 1491.1 62.8752L1490.1 82.1764M1509.47 11.4125L1490.1 82.1764" stroke="#00AE1C"/>
<path d="M1482.67 66.4454L1490.22 15.7638L1486.27 21.6894C1480.71 30.0114 1476.7 39.4806 1474.38 49.7214L1474.04 51.2069C1472.87 56.3938 1472.14 61.752 1471.85 67.2265L1470.85 86.5278C1474.07 87.142 1476.91 85.5088 1477.81 82.5269L1482.67 66.4454Z" fill="#3BD737"/>
<path d="M1490.22 15.7638L1482.67 66.4454L1477.81 82.5269C1476.91 85.5088 1474.07 87.142 1470.85 86.5278V86.5278M1490.22 15.7638L1486.27 21.6894C1480.71 30.0114 1476.7 39.4806 1474.38 49.7214L1474.04 51.2069C1472.87 56.3938 1472.14 61.752 1471.85 67.2265L1470.85 86.5278M1490.22 15.7638L1470.85 86.5278" stroke="#00AE1C"/>
<path d="M1463.44 68.1237L1470.99 17.442L1467.03 23.3677C1461.48 31.6896 1457.46 41.1588 1455.15 51.3996L1454.81 52.8851C1453.64 58.072 1452.9 63.4303 1452.62 68.9048L1451.62 88.206C1454.84 88.8202 1457.68 87.1871 1458.58 84.2051L1463.44 68.1237Z" fill="#3BD737"/>
<path d="M1470.99 17.442L1463.44 68.1237L1458.58 84.2051C1457.68 87.1871 1454.84 88.8202 1451.62 88.206V88.206M1470.99 17.442L1467.03 23.3676C1461.48 31.6896 1457.46 41.1588 1455.15 51.3996L1454.81 52.8851C1453.64 58.072 1452.9 63.4303 1452.62 68.9048L1451.62 88.206M1470.99 17.442L1451.62 88.206" stroke="#00AE1C"/>
<path d="M1327.33 64.614L1319.78 13.9324L1323.74 19.858C1329.29 28.18 1333.31 37.6492 1335.63 47.89L1335.96 49.3754C1337.14 54.5624 1337.87 59.9206 1338.15 65.3951L1339.15 84.6963C1335.93 85.3106 1333.09 83.6774 1332.19 80.6955L1327.33 64.614Z" fill="#3BD737"/>
<path d="M1319.78 13.9324L1327.33 64.614L1332.19 80.6955C1333.09 83.6774 1335.93 85.3106 1339.15 84.6963V84.6963M1319.78 13.9324L1323.74 19.858C1329.29 28.18 1333.31 37.6492 1335.63 47.89L1335.96 49.3754C1337.14 54.5624 1337.87 59.9206 1338.15 65.3951L1339.15 84.6963M1319.78 13.9324L1339.15 84.6963" stroke="#00AE1C"/>
<path d="M1345.82 76.2455L1338.27 25.5638L1342.22 31.4895C1347.78 39.8114 1351.79 49.2807 1354.11 59.5215L1354.45 61.0069C1355.62 66.1939 1356.35 71.5521 1356.63 77.0266L1357.63 96.3278C1354.42 96.9421 1351.58 95.3089 1350.68 92.327L1345.82 76.2455Z" fill="#3BD737"/>
<path d="M1338.27 25.5638L1345.82 76.2455L1350.68 92.327C1351.58 95.3089 1354.42 96.9421 1357.63 96.3278V96.3278M1338.27 25.5638L1342.22 31.4895C1347.78 39.8114 1351.79 49.2807 1354.11 59.5215L1354.45 61.0069C1355.62 66.1939 1356.35 71.5521 1356.63 77.0266L1357.63 96.3278M1338.27 25.5638L1357.63 96.3278" stroke="#00AE1C"/>
<path d="M1364.2 72.7349L1356.65 22.0532L1360.61 27.9789C1366.16 36.3008 1370.18 45.77 1372.49 56.0108L1372.83 57.4963C1374 62.6832 1374.74 68.0415 1375.02 73.516L1376.02 92.8172C1372.8 93.4314 1369.96 91.7983 1369.06 88.8163L1364.2 72.7349Z" fill="#3BD737"/>
<path d="M1356.65 22.0532L1364.2 72.7349L1369.06 88.8163C1369.96 91.7983 1372.8 93.4314 1376.02 92.8172V92.8172M1356.65 22.0532L1360.61 27.9789C1366.16 36.3008 1370.18 45.77 1372.49 56.0108L1372.83 57.4963C1374 62.6832 1374.74 68.0415 1375.02 73.516L1376.02 92.8172M1356.65 22.0532L1376.02 92.8172" stroke="#00AE1C"/>
<path d="M1380.3 68.7687L1372.75 18.087L1376.71 24.0127C1382.26 32.3346 1386.28 41.8038 1388.6 52.0447L1388.93 53.5301C1390.11 58.7171 1390.84 64.0753 1391.12 69.5498L1392.12 88.851C1388.9 89.4653 1386.06 87.8321 1385.16 84.8502L1380.3 68.7687Z" fill="#3BD737"/>
<path d="M1372.75 18.087L1380.3 68.7687L1385.16 84.8502C1386.06 87.8321 1388.9 89.4653 1392.12 88.851V88.851M1372.75 18.087L1376.71 24.0127C1382.26 32.3346 1386.28 41.8038 1388.6 52.0447L1388.93 53.5301C1390.11 58.7171 1390.84 64.0753 1391.12 69.5498L1392.12 88.851M1372.75 18.087L1392.12 88.851" stroke="#00AE1C"/>
<path d="M1396.55 62.0997L1389 11.4181L1392.96 17.3437C1398.51 25.6657 1402.53 35.1349 1404.84 45.3757L1405.18 46.8612C1406.35 52.0481 1407.09 57.4063 1407.37 62.8808L1408.37 82.1821C1405.15 82.7963 1402.31 81.1631 1401.41 78.1812L1396.55 62.0997Z" fill="#3BD737"/>
<path d="M1389 11.4181L1396.55 62.0997L1401.41 78.1812C1402.31 81.1631 1405.15 82.7963 1408.37 82.1821V82.1821M1389 11.4181L1392.96 17.3437C1398.51 25.6657 1402.53 35.1349 1404.84 45.3757L1405.18 46.8612C1406.35 52.0481 1407.09 57.4063 1407.37 62.8808L1408.37 82.1821M1389 11.4181L1408.37 82.1821" stroke="#00AE1C"/>
<path d="M1415.8 66.4509L1408.25 15.7693L1412.21 21.6949C1417.76 30.0169 1421.78 39.4861 1424.09 49.7269L1424.43 51.2124C1425.6 56.3993 1426.34 61.7575 1426.62 67.232L1427.62 86.5332C1424.4 87.1475 1421.56 85.5143 1420.66 82.5324L1415.8 66.4509Z" fill="#3BD737"/>
<path d="M1408.25 15.7693L1415.8 66.4509L1420.66 82.5324C1421.56 85.5143 1424.4 87.1475 1427.62 86.5332V86.5332M1408.25 15.7693L1412.21 21.6949C1417.76 30.0169 1421.78 39.4861 1424.09 49.7269L1424.43 51.2124C1425.6 56.3993 1426.34 61.7575 1426.62 67.232L1427.62 86.5332M1408.25 15.7693L1427.62 86.5332" stroke="#00AE1C"/>
<path d="M1435.03 68.129L1427.48 17.4474L1431.44 23.373C1436.99 31.695 1441.01 41.1642 1443.33 51.405L1443.66 52.8905C1444.84 58.0774 1445.57 63.4356 1445.85 68.9101L1446.85 88.2113C1443.63 88.8256 1440.79 87.1924 1439.89 84.2105L1435.03 68.129Z" fill="#3BD737"/>
<path d="M1427.48 17.4474L1435.03 68.129L1439.89 84.2105C1440.79 87.1924 1443.63 88.8256 1446.85 88.2113V88.2113M1427.48 17.4474L1431.44 23.373C1436.99 31.695 1441.01 41.1642 1443.33 51.405L1443.66 52.8905C1444.84 58.0774 1445.57 63.4356 1445.85 68.9101L1446.85 88.2113M1427.48 17.4474L1446.85 88.2113" stroke="#00AE1C"/>
<path d="M1452.21 64.6097L1444.66 13.9281L1448.62 19.8537C1454.17 28.1757 1458.19 37.6449 1460.5 47.8857L1460.84 49.3712C1462.01 54.5581 1462.75 59.9164 1463.03 65.3908L1464.03 84.6921C1460.81 85.3063 1457.97 83.6731 1457.07 80.6912L1452.21 64.6097Z" fill="#3BD737"/>
<path d="M1444.66 13.9281L1452.21 64.6097L1457.07 80.6912C1457.97 83.6731 1460.81 85.3063 1464.03 84.6921V84.6921M1444.66 13.9281L1448.62 19.8537C1454.17 28.1757 1458.19 37.6449 1460.5 47.8857L1460.84 49.3712C1462.01 54.5581 1462.75 59.9164 1463.03 65.3908L1464.03 84.6921M1444.66 13.9281L1464.03 84.6921" stroke="#00AE1C"/>
<path d="M1470.69 72.241L1463.14 21.5593L1467.1 27.485C1472.65 35.8069 1476.67 45.2761 1478.99 55.517L1479.32 57.0024C1480.5 62.1893 1481.23 67.5476 1481.51 73.0221L1482.51 92.3233C1479.29 92.9375 1476.45 91.3044 1475.55 88.3224L1470.69 72.241Z" fill="#3BD737"/>
<path d="M1463.14 21.5593L1470.69 72.241L1475.55 88.3224C1476.45 91.3044 1479.29 92.9375 1482.51 92.3233V92.3233M1463.14 21.5593L1467.1 27.485C1472.65 35.8069 1476.67 45.2761 1478.99 55.517L1479.32 57.0024C1480.5 62.1893 1481.23 67.5476 1481.51 73.0221L1482.51 92.3233M1463.14 21.5593L1482.51 92.3233" stroke="#00AE1C"/>
<path d="M1254.55 65.958L1247 15.2764L1250.96 21.202C1256.51 29.524 1260.52 38.9932 1262.84 49.234L1263.18 50.7194C1264.35 55.9064 1265.09 61.2646 1265.37 66.7391L1266.37 86.0403C1263.15 86.6546 1260.31 85.0214 1259.41 82.0395L1254.55 65.958Z" fill="#3BD737"/>
<path d="M1247 15.2764L1254.55 65.958L1259.41 82.0395C1260.31 85.0214 1263.15 86.6546 1266.37 86.0403V86.0403M1247 15.2764L1250.96 21.202C1256.51 29.524 1260.52 38.9932 1262.84 49.234L1263.18 50.7194C1264.35 55.9064 1265.09 61.2646 1265.37 66.7391L1266.37 86.0403M1247 15.2764L1266.37 86.0403" stroke="#00AE1C"/>
<path d="M1505.18 64.7644L1497.63 14.0828L1501.59 20.0084C1507.14 28.3304 1511.16 37.7996 1513.48 48.0404L1513.81 49.5258C1514.99 54.7128 1515.72 60.071 1516 65.5455L1517 84.8467C1513.78 85.461 1510.94 83.8278 1510.04 80.8459L1505.18 64.7644Z" fill="#3BD737"/>
<path d="M1497.63 14.0828L1505.18 64.7644L1510.04 80.8459C1510.94 83.8278 1513.78 85.461 1517 84.8467V84.8467M1497.63 14.0828L1501.59 20.0084C1507.14 28.3304 1511.16 37.7996 1513.48 48.0404L1513.81 49.5258C1514.99 54.7128 1515.72 60.071 1516 65.5455L1517 84.8467M1497.63 14.0828L1517 84.8467" stroke="#00AE1C"/>
<path d="M1270.8 59.2891L1263.25 8.60741L1267.2 14.5331C1272.76 22.855 1276.77 32.3242 1279.09 42.565L1279.43 44.0505C1280.6 49.2374 1281.33 54.5957 1281.62 60.0702L1282.62 79.3714C1279.4 79.9856 1276.56 78.3525 1275.66 75.3705L1270.8 59.2891Z" fill="#3BD737"/>
<path d="M1263.25 8.60741L1270.8 59.2891L1275.66 75.3705C1276.56 78.3525 1279.4 79.9856 1282.62 79.3714V79.3714M1263.25 8.60741L1267.2 14.5331C1272.76 22.855 1276.77 32.3242 1279.09 42.565L1279.43 44.0505C1280.6 49.2374 1281.33 54.5957 1281.62 60.0702L1282.62 79.3714M1263.25 8.60741L1282.62 79.3714" stroke="#00AE1C"/>
<path d="M1290.05 63.6401L1282.5 12.9585L1286.45 18.8841C1292.01 27.2061 1296.02 36.6753 1298.34 46.9161L1298.68 48.4016C1299.85 53.5885 1300.58 58.9468 1300.87 64.4212L1301.87 83.7225C1298.65 84.3367 1295.81 82.7035 1294.91 79.7216L1290.05 63.6401Z" fill="#3BD737"/>
<path d="M1282.5 12.9585L1290.05 63.6401L1294.91 79.7216C1295.81 82.7035 1298.65 84.3367 1301.87 83.7225V83.7225M1282.5 12.9585L1286.45 18.8841C1292.01 27.2061 1296.02 36.6753 1298.34 46.9161L1298.68 48.4016C1299.85 53.5885 1300.58 58.9468 1300.87 64.4212L1301.87 83.7225M1282.5 12.9585L1301.87 83.7225" stroke="#00AE1C"/>
<path d="M1309.28 65.3184L1301.73 14.6367L1305.69 20.5624C1311.24 28.8843 1315.25 38.3535 1317.57 48.5943L1317.91 50.0798C1319.08 55.2667 1319.82 60.625 1320.1 66.0995L1321.1 85.4007C1317.88 86.0149 1315.04 84.3818 1314.14 81.3998L1309.28 65.3184Z" fill="#3BD737"/>
<path d="M1301.73 14.6367L1309.28 65.3184L1314.14 81.3998C1315.04 84.3818 1317.88 86.0149 1321.1 85.4007V85.4007M1301.73 14.6367L1305.69 20.5623C1311.24 28.8843 1315.25 38.3535 1317.57 48.5943L1317.91 50.0798C1319.08 55.2667 1319.82 60.625 1320.1 66.0995L1321.1 85.4007M1301.73 14.6367L1321.1 85.4007" stroke="#00AE1C"/>
<path d="M99.5512 57.0997L92.0008 6.41808L95.9556 12.3437C101.51 20.6657 105.525 30.1349 107.843 40.3757L108.18 41.8612C109.354 47.0481 110.086 52.4063 110.369 57.8808L111.368 77.1821C108.151 77.7963 105.31 76.1631 104.41 73.1812L99.5512 57.0997Z" fill="#3BD737"/>
<path d="M92.0008 6.41808L99.5512 57.0997L104.41 73.1812C105.31 76.1631 108.151 77.7963 111.368 77.1821V77.1821M92.0008 6.41808L95.9556 12.3437C101.51 20.6657 105.525 30.1349 107.843 40.3757L108.18 41.8612C109.354 47.0481 110.086 52.4063 110.369 57.8808L111.368 77.1821M92.0008 6.41808L111.368 77.1821" stroke="#00AE1C"/>
<path d="M224.43 57.0955L216.88 6.41381L220.834 12.3395C226.389 20.6614 230.404 30.1306 232.722 40.3714L233.058 41.8569C234.232 47.0438 234.965 52.4021 235.248 57.8766L236.247 77.1778C233.03 77.792 230.189 76.1589 229.288 73.1769L224.43 57.0955Z" fill="#3BD737"/>
<path d="M216.88 6.41381L224.43 57.0955L229.288 73.1769C230.189 76.1589 233.03 77.792 236.247 77.1778V77.1778M216.88 6.41381L220.834 12.3394C226.389 20.6614 230.404 30.1306 232.722 40.3714L233.058 41.8569C234.232 47.0438 234.965 52.4021 235.248 57.8766L236.247 77.1778M216.88 6.41381L236.247 77.1778" stroke="#00AE1C"/>
<path d="M149.256 59.6113L156.807 8.92968L152.852 14.8553C147.298 23.1773 143.282 32.6465 140.964 42.8873L140.628 44.3728C139.454 49.5597 138.722 54.9179 138.438 60.3924L137.439 79.6936C140.657 80.3079 143.497 78.6747 144.398 75.6928L149.256 59.6113Z" fill="#3BD737"/>
<path d="M156.807 8.92968L149.256 59.6113L144.398 75.6928C143.497 78.6747 140.657 80.3079 137.439 79.6936V79.6936M156.807 8.92968L152.852 14.8553C147.298 23.1773 143.282 32.6465 140.964 42.8873L140.628 44.3728C139.454 49.5597 138.722 54.9179 138.438 60.3924L137.439 79.6936M156.807 8.92968L137.439 79.6936" stroke="#00AE1C"/>
<path d="M130.775 71.2426L138.325 20.5609L134.371 26.4865C128.816 34.8085 124.801 44.2777 122.483 54.5185L122.147 56.004C120.973 61.1909 120.24 66.5492 119.957 72.0237L118.958 91.3249C122.175 91.9391 125.016 90.306 125.917 87.324L130.775 71.2426Z" fill="#3BD737"/>
<path d="M138.325 20.5609L130.775 71.2426L125.917 87.324C125.016 90.306 122.175 91.9391 118.958 91.3249V91.3249M138.325 20.5609L134.371 26.4865C128.816 34.8085 124.801 44.2777 122.483 54.5185L122.147 56.004C120.973 61.1909 120.24 66.5492 119.957 72.0237L118.958 91.3249M138.325 20.5609L118.958 91.3249" stroke="#00AE1C"/>
<path d="M112.39 67.7322L119.941 17.0505L115.986 22.9762C110.432 31.2981 106.416 40.7673 104.098 51.0082L103.762 52.4936C102.588 57.6806 101.855 63.0388 101.572 68.5133L100.573 87.8145C103.79 88.4288 106.631 86.7956 107.532 83.8137L112.39 67.7322Z" fill="#3BD737"/>
<path d="M119.941 17.0505L112.39 67.7322L107.532 83.8137C106.631 86.7956 103.79 88.4288 100.573 87.8145V87.8145M119.941 17.0505L115.986 22.9762C110.432 31.2981 106.416 40.7673 104.098 51.0082L103.762 52.4936C102.588 57.6806 101.855 63.0388 101.572 68.5133L100.573 87.8145M119.941 17.0505L100.573 87.8145" stroke="#00AE1C"/>
<path d="M96.2876 63.766L103.838 13.0843L99.8833 19.01C94.3292 27.3319 90.3135 36.8012 87.9956 47.042L87.6594 48.5274C86.4853 53.7144 85.7529 59.0726 85.4696 64.5471L84.4707 83.8483C87.6879 84.4626 90.5285 82.8294 91.4293 79.8475L96.2876 63.766Z" fill="#3BD737"/>
<path d="M103.838 13.0843L96.2876 63.766L91.4293 79.8475C90.5285 82.8294 87.6879 84.4626 84.4707 83.8483V83.8483M103.838 13.0843L99.8833 19.01C94.3292 27.3319 90.3135 36.8012 87.9956 47.042L87.6594 48.5274C86.4853 53.7144 85.7529 59.0726 85.4696 64.5471L84.4707 83.8483M103.838 13.0843L84.4707 83.8483" stroke="#00AE1C"/>
<path d="M80.0396 57.097L87.59 6.41539L83.6352 12.341C78.0811 20.663 74.0654 30.1322 71.7475 40.373L71.4113 41.8585C70.2373 47.0454 69.5049 52.4037 69.2215 57.8782L68.2227 77.1794C71.4398 77.7936 74.2804 76.1604 75.1813 73.1785L80.0396 57.097Z" fill="#3BD737"/>
<path d="M87.59 6.4154L80.0396 57.097L75.1813 73.1785C74.2804 76.1604 71.4398 77.7936 68.2227 77.1794V77.1794M87.59 6.4154L83.6352 12.341C78.0811 20.663 74.0654 30.1322 71.7475 40.373L71.4113 41.8585C70.2373 47.0454 69.5049 52.4037 69.2215 57.8782L68.2227 77.1794M87.59 6.4154L68.2227 77.1794" stroke="#00AE1C"/>
<path d="M60.7906 61.4482L68.341 10.7666L64.3862 16.6922C58.8321 25.0142 54.8164 34.4834 52.4985 44.7242L52.1623 46.2097C50.9883 51.3966 50.2558 56.7549 49.9725 62.2293L48.9736 81.5306C52.1908 82.1448 55.0314 80.5116 55.9323 77.5297L60.7906 61.4482Z" fill="#3BD737"/>
<path d="M68.341 10.7666L60.7906 61.4482L55.9323 77.5297C55.0314 80.5116 52.1908 82.1448 48.9736 81.5306V81.5306M68.341 10.7666L64.3862 16.6922C58.8321 25.0142 54.8164 34.4834 52.4985 44.7242L52.1623 46.2097C50.9883 51.3966 50.2558 56.7549 49.9725 62.2293L48.9736 81.5306M68.341 10.7666L48.9736 81.5306" stroke="#00AE1C"/>
<path d="M41.5572 63.1265L49.1076 12.4448L45.1528 18.3705C39.5987 26.6924 35.583 36.1616 33.2651 46.4024L32.9289 47.8879C31.7549 53.0748 31.0224 58.4331 30.7391 63.9076L29.7402 83.2088C32.9574 83.823 35.798 82.1899 36.6989 79.2079L41.5572 63.1265Z" fill="#3BD737"/>
<path d="M49.1076 12.4448L41.5572 63.1265L36.6989 79.2079C35.798 82.1899 32.9574 83.823 29.7402 83.2088V83.2088M49.1076 12.4448L45.1528 18.3705C39.5987 26.6924 35.583 36.1616 33.2651 46.4024L32.9289 47.8879C31.7549 53.0748 31.0224 58.4331 30.7391 63.9076L29.7402 83.2088M49.1076 12.4448L29.7402 83.2088" stroke="#00AE1C"/>
<path d="M23.5054 56.803L31.0559 6.12133L27.1011 12.047C21.5469 20.3689 17.5313 29.8381 15.2133 40.079L14.8771 41.5644C13.7031 46.7514 12.9707 52.1096 12.6874 57.5841L11.6885 76.8853C14.9057 77.4996 17.7462 75.8664 18.6471 72.8845L23.5054 56.803Z" fill="#3BD737"/>
<path d="M31.0559 6.12133L23.5054 56.803L18.6471 72.8845C17.7462 75.8664 14.9057 77.4996 11.6885 76.8853V76.8853M31.0559 6.12133L27.1011 12.047C21.5469 20.3689 17.5313 29.8381 15.2133 40.079L14.8771 41.5644C13.7031 46.7514 12.9707 52.1096 12.6874 57.5841L11.6885 76.8853M31.0559 6.12133L11.6885 76.8853" stroke="#00AE1C"/>
<path d="M5.02397 68.4343L12.5744 17.7527L8.61961 23.6783C3.06549 32.0003 -0.950181 41.4695 -3.2681 51.7103L-3.60432 53.1958C-4.77834 58.3827 -5.51077 63.7409 -5.79408 69.2154L-6.79296 88.5166C-3.57578 89.1309 -0.735208 87.4977 0.165651 84.5158L5.02397 68.4343Z" fill="#3BD737"/>
<path d="M12.5744 17.7527L5.02397 68.4343L0.165651 84.5158C-0.735208 87.4977 -3.57578 89.1309 -6.79296 88.5166V88.5166M12.5744 17.7527L8.61961 23.6783C3.06549 32.0003 -0.950182 41.4695 -3.2681 51.7103L-3.60432 53.1958C-4.77834 58.3827 -5.51077 63.7409 -5.79408 69.2154L-6.79296 88.5166M12.5744 17.7527L-6.79296 88.5166" stroke="#00AE1C"/>
<path d="M255.654 71.2396L263.204 20.558L259.249 26.4836C253.695 34.8056 249.68 44.2748 247.362 54.5156L247.026 56.0011C245.852 61.188 245.119 66.5462 244.836 72.0207L243.837 91.3219C247.054 91.9362 249.895 90.303 250.796 87.3211L255.654 71.2396Z" fill="#3BD737"/>
<path d="M263.204 20.558L255.654 71.2396L250.796 87.3211C249.895 90.303 247.054 91.9362 243.837 91.3219V91.3219M263.204 20.558L259.249 26.4836C253.695 34.8056 249.68 44.2748 247.362 54.5156L247.026 56.0011C245.852 61.188 245.119 66.5462 244.836 72.0207L243.837 91.3219M263.204 20.558L243.837 91.3219" stroke="#00AE1C"/>
<path d="M237.27 67.7291L244.82 17.0475L240.865 22.9731C235.311 31.2951 231.295 40.7643 228.978 51.0051L228.641 52.4906C227.467 57.6775 226.735 63.0357 226.452 68.5102L225.453 87.8114C228.67 88.4257 231.51 86.7925 232.411 83.8106L237.27 67.7291Z" fill="#3BD737"/>
<path d="M244.82 17.0475L237.27 67.7291L232.411 83.8106C231.51 86.7925 228.67 88.4257 225.453 87.8114V87.8114M244.82 17.0475L240.865 22.9731C235.311 31.2951 231.295 40.7643 228.978 51.0051L228.641 52.4906C227.467 57.6775 226.735 63.0357 226.452 68.5102L225.453 87.8114M244.82 17.0475L225.453 87.8114" stroke="#00AE1C"/>
<path d="M221.168 63.7631L228.718 13.0814L224.763 19.0071C219.209 27.329 215.193 36.7982 212.875 47.039L212.539 48.5245C211.365 53.7114 210.633 59.0697 210.349 64.5442L209.351 83.8454C212.568 84.4596 215.408 82.8265 216.309 79.8445L221.168 63.7631Z" fill="#3BD737"/>
<path d="M228.718 13.0814L221.168 63.7631L216.309 79.8445C215.408 82.8265 212.568 84.4596 209.351 83.8454V83.8454M228.718 13.0814L224.763 19.0071C219.209 27.329 215.193 36.7982 212.875 47.039L212.539 48.5245C211.365 53.7114 210.633 59.0697 210.349 64.5442L209.351 83.8454M228.718 13.0814L209.351 83.8454" stroke="#00AE1C"/>
<path d="M204.919 57.0941L212.47 6.41246L208.515 12.3381C202.961 20.6601 198.945 30.1293 196.627 40.3701L196.291 41.8556C195.117 47.0425 194.385 52.4007 194.101 57.8752L193.103 77.1764C196.32 77.7907 199.16 76.1575 200.061 73.1756L204.919 57.0941Z" fill="#3BD737"/>
<path d="M212.47 6.41247L204.919 57.0941L200.061 73.1756C199.16 76.1575 196.32 77.7907 193.103 77.1764V77.1764M212.47 6.41247L208.515 12.3381C202.961 20.6601 198.945 30.1293 196.627 40.3701L196.291 41.8556C195.117 47.0425 194.385 52.4007 194.101 57.8752L193.103 77.1764M212.47 6.41247L193.103 77.1764" stroke="#00AE1C"/>
<path d="M185.67 61.4454L193.221 10.7638L189.266 16.6894C183.712 25.0114 179.696 34.4806 177.378 44.7214L177.042 46.2069C175.868 51.3938 175.136 56.752 174.852 62.2265L173.854 81.5278C177.071 82.142 179.911 80.5088 180.812 77.5269L185.67 61.4454Z" fill="#3BD737"/>
<path d="M193.221 10.7638L185.67 61.4454L180.812 77.5269C179.911 80.5088 177.071 82.142 173.854 81.5278V81.5278M193.221 10.7638L189.266 16.6894C183.712 25.0114 179.696 34.4806 177.378 44.7214L177.042 46.2069C175.868 51.3938 175.136 56.752 174.852 62.2265L173.854 81.5278M193.221 10.7638L173.854 81.5278" stroke="#00AE1C"/>
<path d="M166.438 63.1237L173.988 12.442L170.033 18.3677C164.479 26.6896 160.463 36.1588 158.145 46.3996L157.809 47.8851C156.635 53.072 155.903 58.4303 155.619 63.9048L154.621 83.206C157.838 83.8202 160.678 82.1871 161.579 79.2051L166.438 63.1237Z" fill="#3BD737"/>
<path d="M173.988 12.442L166.438 63.1237L161.579 79.2051C160.678 82.1871 157.838 83.8202 154.621 83.206V83.206M173.988 12.442L170.033 18.3676C164.479 26.6896 160.463 36.1588 158.145 46.3996L157.809 47.8851C156.635 53.072 155.903 58.4303 155.619 63.9048L154.621 83.206M173.988 12.442L154.621 83.206" stroke="#00AE1C"/>
<path d="M30.3334 59.614L22.783 8.93236L26.7378 14.858C32.2919 23.18 36.3076 32.6492 38.6255 42.89L38.9617 44.3754C40.1358 49.5624 40.8682 54.9206 41.1515 60.3951L42.1504 79.6963C38.9332 80.3106 36.0926 78.6774 35.1918 75.6955L30.3334 59.614Z" fill="#3BD737"/>
<path d="M22.783 8.93236L30.3334 59.614L35.1918 75.6955C36.0926 78.6774 38.9332 80.3106 42.1504 79.6963V79.6963M22.783 8.93236L26.7378 14.858C32.2919 23.18 36.3076 32.6492 38.6255 42.89L38.9617 44.3754C40.1358 49.5624 40.8682 54.9206 41.1515 60.3951L42.1504 79.6963M22.783 8.93236L42.1504 79.6963" stroke="#00AE1C"/>
<path d="M48.8168 71.2455L41.2664 20.5638L45.2212 26.4895C50.7753 34.8114 54.791 44.2807 57.1089 54.5215L57.4451 56.0069C58.6192 61.1939 59.3516 66.5521 59.6349 72.0266L60.6338 91.3278C57.4166 91.9421 54.576 90.3089 53.6752 87.327L48.8168 71.2455Z" fill="#3BD737"/>
<path d="M41.2664 20.5638L48.8168 71.2455L53.6752 87.327C54.576 90.3089 57.4166 91.9421 60.6338 91.3278V91.3278M41.2664 20.5638L45.2212 26.4895C50.7753 34.8114 54.791 44.2807 57.1089 54.5215L57.4451 56.0069C58.6192 61.1939 59.3516 66.5521 59.6349 72.0266L60.6338 91.3278M41.2664 20.5638L60.6338 91.3278" stroke="#00AE1C"/>
<path d="M67.2016 67.7349L59.6512 17.0532L63.606 22.9789C69.1601 31.3008 73.1758 40.77 75.4937 51.0108L75.8299 52.4963C77.0039 57.6832 77.7364 63.0415 78.0197 68.516L79.0185 87.8172C75.8014 88.4314 72.9608 86.7983 72.0599 83.8163L67.2016 67.7349Z" fill="#3BD737"/>
<path d="M59.6512 17.0532L67.2016 67.7349L72.0599 83.8163C72.9608 86.7983 75.8014 88.4314 79.0185 87.8172V87.8172M59.6512 17.0532L63.606 22.9789C69.1601 31.3008 73.1758 40.77 75.4937 51.0108L75.8299 52.4963C77.0039 57.6832 77.7364 63.0415 78.0197 68.516L79.0185 87.8172M59.6512 17.0532L79.0185 87.8172" stroke="#00AE1C"/>
<path d="M83.3042 63.7687L75.7537 13.087L79.7085 19.0127C85.2626 27.3346 89.2783 36.8038 91.5962 47.0447L91.9324 48.5301C93.1065 53.7171 93.8389 59.0753 94.1222 64.5498L95.1211 83.851C91.9039 84.4653 89.0633 82.8321 88.1625 79.8502L83.3042 63.7687Z" fill="#3BD737"/>
<path d="M75.7537 13.087L83.3042 63.7687L88.1625 79.8502C89.0633 82.8321 91.9039 84.4653 95.1211 83.851V83.851M75.7537 13.087L79.7085 19.0127C85.2626 27.3346 89.2783 36.8038 91.5962 47.0447L91.9324 48.5301C93.1065 53.7171 93.8389 59.0753 94.1222 64.5498L95.1211 83.851M75.7537 13.087L95.1211 83.851" stroke="#00AE1C"/>
<path d="M118.801 61.4509L111.251 10.7693L115.206 16.6949C120.76 25.0169 124.775 34.4861 127.093 44.7269L127.43 46.2124C128.604 51.3993 129.336 56.7575 129.619 62.232L130.618 81.5332C127.401 82.1475 124.56 80.5143 123.66 77.5324L118.801 61.4509Z" fill="#3BD737"/>
<path d="M111.251 10.7693L118.801 61.4509L123.66 77.5324C124.56 80.5143 127.401 82.1475 130.618 81.5332V81.5332M111.251 10.7693L115.206 16.6949C120.76 25.0169 124.775 34.4861 127.093 44.7269L127.43 46.2124C128.604 51.3993 129.336 56.7575 129.619 62.232L130.618 81.5332M111.251 10.7693L130.618 81.5332" stroke="#00AE1C"/>
<path d="M138.034 63.129L130.483 12.4474L134.438 18.373C139.992 26.695 144.008 36.1642 146.326 46.405L146.662 47.8905C147.836 53.0774 148.568 58.4356 148.852 63.9101L149.851 83.2113C146.633 83.8256 143.793 82.1924 142.892 79.2105L138.034 63.129Z" fill="#3BD737"/>
<path d="M130.483 12.4474L138.034 63.129L142.892 79.2105C143.793 82.1924 146.633 83.8256 149.851 83.2113V83.2113M130.483 12.4474L134.438 18.373C139.992 26.695 144.008 36.1642 146.326 46.405L146.662 47.8905C147.836 53.0774 148.568 58.4356 148.852 63.9101L149.851 83.2113M130.483 12.4474L149.851 83.2113" stroke="#00AE1C"/>
<path d="M155.212 59.6097L147.662 8.92809L151.617 14.8537C157.171 23.1757 161.187 32.6449 163.504 42.8857L163.841 44.3712C165.015 49.5581 165.747 54.9164 166.03 60.3908L167.029 79.6921C163.812 80.3063 160.972 78.6731 160.071 75.6912L155.212 59.6097Z" fill="#3BD737"/>
<path d="M147.662 8.92809L155.212 59.6097L160.071 75.6912C160.972 78.6731 163.812 80.3063 167.029 79.6921V79.6921M147.662 8.92809L151.617 14.8537C157.171 23.1757 161.187 32.6449 163.504 42.8857L163.841 44.3712C165.015 49.5581 165.747 54.9164 166.03 60.3908L167.029 79.6921M147.662 8.92809L167.029 79.6921" stroke="#00AE1C"/>
<path d="M173.695 71.241L166.144 20.5593L170.099 26.485C175.653 34.8069 179.669 44.2761 181.987 54.517L182.323 56.0024C183.497 61.1893 184.23 66.5476 184.513 72.0221L185.512 91.3233C182.295 91.9375 179.454 90.3044 178.553 87.3224L173.695 71.241Z" fill="#3BD737"/>
<path d="M166.144 20.5593L173.695 71.241L178.553 87.3224C179.454 90.3044 182.295 91.9375 185.512 91.3233V91.3233M166.144 20.5593L170.099 26.485C175.653 34.8069 179.669 44.2761 181.987 54.517L182.323 56.0024C183.497 61.1893 184.23 66.5476 184.513 72.0221L185.512 91.3233M166.144 20.5593L185.512 91.3233" stroke="#00AE1C"/>
<path d="M192.081 67.7306L184.53 17.0489L188.485 22.9746C194.039 31.2965 198.055 40.7658 200.373 51.0066L200.709 52.492C201.883 57.679 202.615 63.0372 202.899 68.5117L203.897 87.8129C200.68 88.4272 197.84 86.794 196.939 83.8121L192.081 67.7306Z" fill="#3BD737"/>
<path d="M184.53 17.0489L192.081 67.7306L196.939 83.8121C197.84 86.794 200.68 88.4272 203.897 87.8129V87.8129M184.53 17.0489L188.485 22.9746C194.039 31.2965 198.055 40.7658 200.373 51.0066L200.709 52.492C201.883 57.679 202.615 63.0372 202.899 68.5117L203.897 87.8129M184.53 17.0489L203.897 87.8129" stroke="#00AE1C"/>
<path d="M208.183 63.7644L200.632 13.0828L204.587 19.0084C210.141 27.3304 214.157 36.7996 216.475 47.0404L216.811 48.5258C217.985 53.7128 218.717 59.071 219.001 64.5455L220 83.8467C216.782 84.461 213.942 82.8278 213.041 79.8459L208.183 63.7644Z" fill="#3BD737"/>
<path d="M200.632 13.0828L208.183 63.7644L213.041 79.8459C213.942 82.8278 216.782 84.461 220 83.8467V83.8467M200.632 13.0828L204.587 19.0084C210.141 27.3304 214.157 36.7996 216.475 47.0404L216.811 48.5258C217.985 53.7128 218.717 59.071 219.001 64.5455L220 83.8467M200.632 13.0828L220 83.8467" stroke="#00AE1C"/>
<path d="M243.68 61.4467L236.129 10.765L240.084 16.6906C245.638 25.0126 249.654 34.4818 251.972 44.7226L252.308 46.2081C253.482 51.395 254.214 56.7533 254.498 62.2278L255.497 81.529C252.279 82.1432 249.439 80.5101 248.538 77.5281L243.68 61.4467Z" fill="#3BD737"/>
<path d="M236.129 10.765L243.68 61.4467L248.538 77.5281C249.439 80.5101 252.279 82.1432 255.497 81.529V81.529M236.129 10.765L240.084 16.6906C245.638 25.0126 249.654 34.4818 251.972 44.7226L252.308 46.2081C253.482 51.395 254.214 56.7533 254.498 62.2278L255.497 81.529M236.129 10.765L255.497 81.529" stroke="#00AE1C"/>
<path d="M12.2807 60.3184L4.73028 9.63671L8.68508 15.5624C14.2392 23.8843 18.2549 33.3535 20.5728 43.5943L20.909 45.0798C22.083 50.2667 22.8155 55.625 23.0988 61.0995L24.0976 80.4007C20.8805 81.0149 18.0399 79.3818 17.139 76.3998L12.2807 60.3184Z" fill="#3BD737"/>
<path d="M4.73028 9.63671L12.2807 60.3184L17.139 76.3998C18.0399 79.3818 20.8805 81.0149 24.0976 80.4007V80.4007M4.73028 9.63671L8.68508 15.5623C14.2392 23.8843 18.2549 33.3535 20.5728 43.5943L20.909 45.0798C22.083 50.2667 22.8155 55.625 23.0988 61.0995L24.0976 80.4007M4.73028 9.63671L24.0976 80.4007" stroke="#00AE1C"/>
</svg>
