<svg width="99" height="132" viewBox="0 0 99 132" fill="none" xmlns="http://www.w3.org/2000/svg">
<g filter="url(#filter0_d_305_5569)">
<path d="M89.5379 45.1855C83.9166 48.2801 77.5807 50.1321 71.4426 48.4687C70.5548 48.2281 69.6128 47.9475 68.619 47.6204C61.1783 45.1716 58.2458 40.5963 56.8191 38.3705C56.6962 38.1787 56.5844 38.0043 56.4819 37.8503C55.8087 36.8385 54.0724 33.6542 53.5065 29.8249C52.9383 25.9806 53.5462 21.4184 57.6718 17.8062C59.9688 15.7951 62.7158 14.8531 65.2385 14.6308C67.75 14.4096 70.0907 14.8977 71.5845 15.8111C74.4921 17.5891 76.0835 20.5782 75.3334 23.9428C74.5703 27.3657 71.6567 28.5893 69.5008 28.2746C68.3437 28.1057 67.5831 27.3498 67.2359 26.5206C66.9044 25.7288 66.9003 24.7165 67.5017 24.0767C67.7932 23.7665 68.2079 23.5705 68.5991 23.4395C69.0013 23.3048 69.4406 23.2188 69.8375 23.1629C69.9827 23.1425 70.1241 23.1258 70.2582 23.1122C69.4862 22.313 68.5668 21.6788 67.5988 21.3257C66.3533 20.8714 65.0455 20.8857 63.8319 21.5818C63.1211 21.9896 62.473 22.5039 61.984 23.1499C60.8453 24.6546 60.5705 26.4311 60.8219 28.1192C61.0742 29.8137 61.8526 31.3784 62.7579 32.4033C65.3344 35.3201 68.4013 36.4429 72.3291 36.1307C76.2492 35.8192 80.0599 33.8301 83.1943 30.1584C84.7042 28.3897 86.0106 25.0472 86.0187 21.1184C86.0267 17.2086 84.7475 12.7508 81.1355 8.75106C77.5499 4.78059 72.0475 2.89024 66.4049 2.64013C60.7603 2.38993 55.0557 3.78571 51.122 6.29044C42.956 11.4901 37.698 21.7232 38.3767 30.2416C39.0616 38.8378 42.2566 46.4689 50.1049 55.2988C58.3709 64.5986 68.4292 75.1976 76.4232 83.4739C80.4197 87.6115 83.8994 91.1676 86.3799 93.6893C87.6201 94.9501 88.6105 95.9523 89.2908 96.6392C89.329 96.6778 89.3662 96.7154 89.4025 96.752L89.3599 95.9837C88.7405 84.796 86.2105 73.8736 81.8777 63.6825L81.279 62.2742L81.0865 61.8215L81.55 61.6113C86.8999 59.1854 90.2138 53.6684 89.7579 47.9466L89.5379 45.1855Z" fill="#94CBFB" fill-opacity="0.4" stroke="#FEE58E"/>
<path d="M16.9755 82.9872C22.5968 79.8926 28.9328 78.0406 35.071 79.7041C35.9587 79.9446 36.9007 80.2252 37.8945 80.5523C45.3352 83.0012 48.2677 87.5764 49.6944 89.8023C49.8173 89.9941 49.9291 90.1684 50.0316 90.3224C50.7047 91.3342 52.4411 94.5185 53.007 98.3478C53.5751 102.192 52.9673 106.754 48.8416 110.367C46.5447 112.378 43.7977 113.32 41.275 113.542C38.7634 113.763 36.4227 113.275 34.9289 112.362C32.0213 110.584 30.4299 107.594 31.18 104.23C31.9431 100.807 34.8567 99.5834 37.0127 99.8981C38.1697 100.067 38.9303 100.823 39.2775 101.652C39.6091 102.444 39.6132 103.456 39.0118 104.096C38.7202 104.406 38.3055 104.602 37.9144 104.733C37.5121 104.868 37.0728 104.954 36.6759 105.01C36.5307 105.03 36.3894 105.047 36.2552 105.06C37.0272 105.86 37.9467 106.494 38.9147 106.847C40.1602 107.301 41.468 107.287 42.6816 106.591C43.3923 106.183 44.0405 105.669 44.5294 105.023C45.6681 103.518 45.9429 101.742 45.6916 100.054C45.4393 98.359 44.6608 96.7943 43.7555 95.7694C41.179 92.8526 38.1122 91.7298 34.1843 92.0419C30.2642 92.3535 26.4536 94.3425 23.3191 98.0143C21.8093 99.783 20.5029 103.125 20.4948 107.054C20.4867 110.964 21.766 115.422 25.378 119.422C28.9635 123.392 34.4659 125.282 40.1086 125.533C45.7531 125.783 51.4578 124.387 55.3914 121.882C63.5574 116.683 68.8154 106.45 68.1367 97.9311C67.4518 89.3349 64.2569 81.7038 56.4085 72.8739C48.1425 63.5741 38.0845 52.9751 30.0907 44.6988C26.0943 40.5612 22.6147 37.005 20.1343 34.4834C18.8942 33.2226 17.9038 32.2204 17.2235 31.5335C17.0955 31.4042 16.9785 31.2861 16.8728 31.1795C15.1286 43.0097 17.7826 54.8995 24.3528 64.5832L25.1906 65.8181L25.5228 66.3077L24.9634 66.5613C19.6135 68.9873 16.2996 74.5041 16.7555 80.2257L16.9755 82.9872Z" fill="#94CBFB" fill-opacity="0.4" stroke="#FEE58E"/>
</g>
<defs>
<filter id="filter0_d_305_5569" x="12.8486" y="0.112549" width="80.4521" height="129.948" filterUnits="userSpaceOnUse" color-interpolation-filters="sRGB">
<feFlood flood-opacity="0" result="BackgroundImageFix"/>
<feColorMatrix in="SourceAlpha" type="matrix" values="0 0 0 0 0 0 0 0 0 0 0 0 0 0 0 0 0 0 127 0" result="hardAlpha"/>
<feOffset dy="1"/>
<feGaussianBlur stdDeviation="1.5"/>
<feComposite in2="hardAlpha" operator="out"/>
<feColorMatrix type="matrix" values="0 0 0 0 0 0 0 0 0 0 0 0 0 0 0 0 0 0 0.25 0"/>
<feBlend mode="normal" in2="BackgroundImageFix" result="effect1_dropShadow_305_5569"/>
<feBlend mode="normal" in="SourceGraphic" in2="effect1_dropShadow_305_5569" result="shape"/>
</filter>
</defs>
</svg>
